{"glyphs":{"0":{"ha":1010,"x_min":45,"x_max":979,"o":"m 942 468 q 839 410 912 460 q 743 354 829 403 q 746 410 746 382 l 746 410 q 945 541 807 487 q 942 468 945 505 m 927 377 q 920 345 924 362 q 844 309 907 342 q 780 281 816 295 q 754 271 772 278 q 740 262 751 269 q 724 254 730 255 q 731 282 726 258 q 741 334 737 307 q 827 384 783 359 q 882 420 837 389 q 940 451 915 443 q 927 377 935 414 m 878 234 q 800 144 838 161 q 685 102 761 127 q 639 85 655 92 q 659 108 646 93 q 674 127 669 121 q 768 172 686 133 q 861 222 826 200 q 863 233 867 227 q 852 236 859 240 q 700 157 823 217 q 703 161 701 160 q 720 237 709 186 q 728 238 724 237 q 729 238 728 238 q 730 238 730 238 q 734 240 732 239 q 749 249 739 243 q 762 256 758 255 q 793 270 773 262 q 825 283 816 278 q 869 306 834 286 q 915 326 897 321 q 878 234 899 270 m 364 35 q 246 105 305 54 q 152 208 186 159 q 90 338 105 275 q 77 487 77 397 q 250 948 73 818 q 371 987 304 989 q 492 947 437 987 q 577 870 538 912 q 636 779 627 816 q 652 774 640 766 q 676 699 665 753 l 699 587 q 718 317 741 435 q 609 81 688 161 q 364 35 513 -14 m 555 1000 q 534 985 547 995 q 513 970 519 975 q 512 957 504 964 q 450 994 477 983 q 555 1000 479 994 m 675 1008 q 838 876 774 961 q 850 857 842 871 q 782 812 825 850 q 736 770 776 807 q 690 730 709 745 q 664 791 678 771 q 725 838 690 804 q 782 890 767 880 q 784 901 788 895 q 774 903 780 908 q 715 851 760 893 q 654 804 680 817 q 653 804 654 804 q 649 804 651 804 q 625 845 642 823 q 683 899 643 857 q 745 948 718 936 q 747 958 751 951 q 736 962 743 965 q 675 912 709 949 q 616 858 635 870 q 615 857 616 858 q 578 898 600 877 q 682 985 608 947 q 685 996 689 989 q 674 999 682 1002 q 567 909 600 961 q 513 956 538 937 q 521 956 517 954 q 588 1003 579 998 q 673 1008 650 1008 l 675 1008 m 859 844 q 899 771 882 809 q 899 771 897 770 q 845 742 882 760 q 792 712 810 724 q 772 699 787 709 q 752 684 760 690 q 711 660 717 661 q 705 656 708 660 q 694 709 698 698 q 694 714 695 708 q 765 776 716 730 q 859 844 831 836 q 859 844 857 843 m 919 717 q 867 686 902 705 q 814 656 830 668 q 722 583 756 616 q 708 644 715 607 l 708 645 l 708 645 q 711 644 709 644 q 781 685 723 645 q 843 721 802 699 q 905 756 886 744 q 919 717 913 738 m 938 639 q 737 516 873 616 q 729 554 734 536 q 732 561 732 557 q 728 568 731 566 q 759 595 728 568 q 822 643 779 612 q 873 672 838 654 q 924 701 908 690 q 938 639 932 671 l 938 639 m 945 564 q 941 555 940 562 q 746 434 808 505 q 740 498 745 467 q 940 623 880 602 q 945 564 944 595 m 954 656 q 682 1025 902 922 q 676 1027 680 1027 q 673 1027 675 1027 q 611 1024 654 1027 q 600 1028 607 1032 q 591 1023 596 1026 q 536 1019 566 1021 q 399 1016 451 1012 q 389 1008 391 1017 q 278 990 329 1014 q 155 880 211 958 q 67 654 88 787 q 61 387 45 517 q 100 255 71 311 q 176 144 130 195 q 394 5 288 24 q 587 37 507 -14 q 598 38 593 33 q 730 94 623 60 q 840 144 810 121 q 875 186 857 157 q 910 251 902 233 q 951 389 935 302 q 954 656 979 533 m 482 431 q 471 336 475 359 l 470 332 q 426 419 438 382 q 409 523 411 463 q 454 693 403 658 q 488 543 486 642 q 482 431 489 496 m 437 257 q 400 238 421 241 q 418 256 407 243 q 435 273 429 268 q 435 284 441 279 q 424 285 430 290 q 375 239 373 238 q 349 250 362 242 q 330 260 339 254 q 332 261 332 261 q 409 334 397 326 q 411 345 415 338 q 401 348 407 352 q 320 272 387 339 q 319 269 319 271 q 288 303 301 284 q 350 348 314 318 q 409 397 399 390 q 412 399 410 397 q 460 311 428 359 q 465 307 463 309 q 437 257 456 273 m 280 317 q 262 359 269 336 q 267 362 264 359 q 388 458 271 369 q 390 470 394 463 q 380 473 386 477 q 258 376 260 381 q 250 431 252 402 q 248 476 248 450 q 249 477 249 477 q 317 528 273 500 q 388 576 380 570 q 388 527 387 553 q 406 414 391 456 q 406 412 406 413 q 407 412 406 412 q 401 410 404 412 q 342 361 392 404 q 280 317 306 332 m 252 555 q 328 601 282 567 q 401 650 378 637 q 389 594 393 625 q 384 593 387 595 q 315 546 368 581 q 248 497 272 517 q 252 555 249 527 m 272 627 q 279 631 279 627 q 283 633 281 633 q 286 635 285 635 q 299 644 281 632 q 329 662 304 647 q 419 711 394 701 q 425 719 425 713 q 420 726 425 725 q 422 729 421 728 q 441 710 433 720 q 408 667 420 695 q 401 667 404 669 q 336 627 375 655 q 274 583 292 593 q 273 583 271 585 q 262 583 267 589 q 260 581 261 581 q 256 581 258 581 q 266 627 260 609 l 272 627 m 290 682 q 349 747 319 728 q 381 757 370 760 q 406 730 396 753 q 412 724 408 726 q 306 667 381 712 q 272 646 271 645 q 290 682 280 667 m 506 591 q 420 755 492 712 q 414 757 418 757 q 324 753 382 801 q 256 661 275 712 q 231 549 237 614 q 229 435 225 475 q 282 283 235 347 q 355 225 316 236 q 368 222 361 223 q 372 221 370 221 q 441 233 414 213 q 498 388 486 267 q 506 591 513 528 m 366 525 q 320 481 350 506 q 260 444 276 444 q 252 437 252 445 q 260 429 252 429 q 314 456 277 427 q 377 514 353 486 q 376 526 382 519 q 366 525 371 531 z "},"1":{"ha":839,"x_min":52,"x_max":756,"o":"m 724 653 q 724 631 724 639 q 720 597 722 620 q 716 540 718 556 q 705 407 713 469 q 682 172 685 239 q 678 80 677 71 q 666 14 675 38 l 665 14 q 656 10 659 14 q 488 5 498 6 q 485 12 488 9 q 507 139 486 15 l 513 182 q 523 189 519 186 q 526 200 528 193 q 516 203 522 207 l 526 276 q 531 282 530 277 q 528 290 531 286 l 532 320 q 551 492 537 358 q 555 498 555 494 q 552 505 556 503 q 574 671 563 608 q 568 682 576 679 q 556 680 560 686 q 542 680 549 690 q 431 543 496 627 q 361 455 391 492 q 340 428 337 425 q 203 498 273 486 l 200 498 q 198 498 200 498 q 195 500 196 500 q 181 507 186 503 l 182 508 q 218 568 195 532 q 219 570 218 569 q 303 690 252 620 q 422 831 390 806 q 577 825 465 831 q 732 820 677 819 q 724 653 726 802 m 447 104 q 418 90 422 95 q 419 78 413 83 q 429 79 425 73 q 458 91 431 81 q 478 99 475 98 q 475 81 475 86 q 465 22 468 45 q 406 73 439 38 q 351 130 361 121 q 358 176 352 135 q 361 193 359 184 q 434 229 390 201 q 505 269 484 260 q 494 189 503 255 q 363 146 440 158 q 358 137 356 144 q 368 130 360 129 q 491 170 438 142 q 487 140 487 140 q 482 118 486 135 q 447 104 476 115 m 376 266 q 388 265 382 260 q 513 330 431 307 q 512 319 513 324 q 509 302 511 314 q 507 287 508 292 q 436 248 483 278 q 364 210 391 219 q 376 266 369 236 m 415 422 q 530 485 472 465 q 522 414 526 446 q 395 353 504 411 q 399 395 397 372 q 404 427 401 412 q 408 421 404 423 q 415 422 411 418 m 425 503 q 449 532 440 521 q 552 661 508 607 q 538 567 545 622 q 425 502 506 558 q 425 503 425 503 m 536 550 q 532 503 534 527 q 407 435 469 481 q 405 432 406 434 q 416 476 409 458 q 536 550 526 547 m 383 294 q 391 334 388 311 q 394 334 393 334 q 521 398 522 398 q 515 347 517 369 q 379 279 428 323 q 383 294 381 287 m 165 521 q 161 525 165 522 q 160 528 161 527 q 157 529 159 528 q 155 534 157 531 q 153 539 154 538 q 149 547 153 538 q 189 561 162 555 q 165 521 174 537 m 139 562 q 128 579 136 567 q 229 621 208 608 q 231 623 230 621 q 201 580 214 599 q 140 560 158 571 q 139 562 139 562 m 119 593 q 111 605 115 600 q 87 648 97 628 q 276 694 118 651 q 281 704 283 696 q 272 710 279 712 q 87 665 115 667 q 82 662 84 664 q 73 692 75 678 l 74 693 q 88 709 79 697 q 98 703 90 702 q 328 756 235 725 q 292 709 311 734 q 231 623 257 661 q 230 633 234 628 q 220 634 226 638 q 119 593 202 623 m 111 742 q 140 785 121 756 q 170 828 159 814 q 191 859 180 844 q 275 860 213 868 q 359 875 331 853 q 360 876 359 876 q 396 850 392 854 q 408 848 401 845 l 406 845 q 389 829 399 840 q 380 828 385 831 q 278 802 366 816 q 216 793 250 797 q 178 792 182 790 q 168 789 172 795 q 171 779 163 782 q 274 785 184 772 q 365 802 349 796 q 336 766 351 786 q 326 772 334 775 q 95 718 233 741 q 111 742 102 729 m 231 911 q 239 920 235 916 q 245 918 241 918 q 299 914 238 918 q 304 916 302 914 q 335 892 317 904 q 346 885 343 887 q 204 878 359 895 q 231 911 220 898 m 257 937 q 266 942 262 941 q 269 943 269 944 q 281 944 275 939 q 290 931 284 937 q 254 934 260 934 q 257 937 256 937 m 372 945 q 403 945 385 945 q 321 928 338 941 q 302 949 308 940 q 372 945 319 945 m 544 930 q 551 935 549 930 q 550 943 553 939 q 555 949 553 945 q 598 918 569 938 q 488 907 562 918 q 378 897 416 897 q 371 892 373 897 q 349 908 353 905 q 335 918 342 913 l 335 919 q 371 925 334 918 q 431 930 391 929 q 544 930 436 931 m 618 902 q 622 902 620 902 q 633 895 627 899 q 643 888 635 893 q 562 873 620 887 q 481 863 511 862 q 474 859 476 864 q 477 850 473 854 q 431 852 448 851 q 418 854 426 860 q 415 852 420 855 q 412 852 414 852 q 411 865 418 859 q 387 881 412 864 q 503 893 420 882 q 618 902 576 903 m 660 873 q 665 874 663 873 q 711 840 694 854 q 571 845 661 840 q 511 848 538 847 q 585 863 528 850 q 660 873 631 874 m 753 836 q 747 840 751 840 q 745 840 747 840 q 741 840 743 840 l 741 842 q 656 903 711 868 q 570 962 589 948 q 542 962 555 960 l 542 962 q 465 964 515 962 q 386 966 421 965 q 302 970 313 966 q 276 963 292 964 q 265 963 271 962 q 231 941 252 962 q 166 859 208 918 q 102 765 156 846 q 60 708 68 715 q 56 700 56 704 q 53 690 52 696 q 94 595 59 651 q 109 571 100 585 q 124 548 121 553 q 138 524 132 537 q 151 506 148 508 q 159 505 155 505 q 161 497 159 500 q 189 479 172 484 q 192 479 190 479 q 197 475 193 475 q 335 404 276 461 q 351 406 345 394 q 389 461 365 431 q 378 387 382 436 q 367 312 372 336 q 340 198 342 209 q 334 154 338 171 q 332 145 334 153 q 330 136 331 140 q 328 128 328 133 q 330 118 327 122 q 336 115 333 115 q 465 -2 475 -6 q 469 -5 466 -4 q 479 -15 469 -15 q 573 -14 515 -15 q 667 -10 653 -10 q 680 -5 675 -13 q 697 57 692 13 q 702 150 700 82 q 721 374 703 208 q 734 500 732 478 q 743 633 743 627 q 743 726 745 648 q 753 817 743 792 q 753 826 756 821 q 753 836 756 831 m 743 633 q 743 633 744 634 l 743 633 m 745 841 q 747 840 745 841 q 749 841 748 841 l 745 841 z "},"2":{"ha":1010,"x_min":65,"x_max":949,"o":"m 924 140 q 912 142 919 150 q 831 48 895 123 q 806 18 835 54 q 766 -28 781 -12 q 772 31 769 -3 q 773 34 773 32 q 781 35 777 32 q 784 43 785 38 q 798 65 784 45 q 825 103 807 79 q 871 157 854 139 q 926 181 907 174 q 924 140 926 163 m 906 -2 q 824 -33 845 -24 q 859 8 828 -22 q 911 56 867 16 q 911 67 916 61 q 899 67 905 73 q 844 16 856 28 q 806 -36 810 -18 q 806 -40 806 -38 q 762 -60 770 -55 q 764 -49 763 -55 q 923 131 755 -58 q 924 132 922 130 q 906 -2 919 77 m 752 26 q 744 -42 747 -13 q 736 -46 739 -41 l 736 -47 l 736 -48 q 736 -48 736 -47 l 735 -48 l 735 -48 q 735 -49 734 -51 q 735 -49 736 -47 l 734 -50 l 734 -50 q 734 -50 735 -49 l 734 -51 l 734 -51 q 734 -51 734 -52 l 734 -51 q 737 -64 726 -60 q 741 -66 739 -65 q 739 -77 739 -72 q 734 -74 737 -75 q 555 -24 678 -55 q 376 26 437 4 q 208 83 246 74 q 92 128 115 104 q 92 131 92 130 q 109 280 88 193 q 164 418 126 359 q 375 552 208 489 q 425 570 384 555 q 476 589 456 581 q 542 654 532 613 q 519 755 555 708 q 435 795 492 791 q 282 730 346 799 q 145 874 262 751 q 367 958 271 958 q 376 966 375 958 q 391 964 379 966 q 441 960 402 963 q 476 956 459 959 q 485 955 480 954 q 563 932 529 947 q 642 884 608 911 q 641 883 641 882 q 644 873 638 877 q 653 873 649 869 q 721 773 701 830 q 736 640 743 708 q 686 518 728 565 q 585 447 658 486 q 484 375 511 406 q 439 300 454 342 q 431 264 436 291 q 424 235 425 235 q 427 222 418 227 l 427 215 q 428 199 416 203 q 437 194 431 194 q 445 199 442 194 q 505 191 464 199 q 548 181 522 187 q 591 170 569 176 q 677 149 609 166 q 764 129 731 136 q 752 26 760 99 m 381 1086 q 432 1097 415 1093 q 452 1093 439 1095 q 451 1091 451 1092 q 439 1092 445 1097 q 363 1030 414 1073 q 288 968 315 989 q 243 954 264 962 q 201 932 223 945 q 381 1086 382 1086 m 464 1090 q 507 1080 490 1084 q 512 1080 509 1080 q 517 1078 515 1078 q 448 1032 473 1050 q 394 984 401 999 q 391 985 393 985 l 381 986 q 370 987 376 991 q 363 978 363 985 q 321 975 342 978 q 386 1028 338 989 q 450 1081 426 1062 q 451 1082 450 1081 q 457 1078 453 1078 q 464 1090 469 1078 m 627 1046 q 661 1032 645 1040 q 562 954 588 962 q 498 974 533 967 q 537 1003 506 982 q 596 1037 571 1027 q 601 1048 603 1040 q 592 1053 599 1055 q 524 1014 563 1040 q 481 977 492 991 q 459 979 469 978 q 435 981 450 980 q 413 983 418 982 q 412 983 413 983 l 412 983 q 428 998 413 984 q 473 1030 441 1009 q 538 1073 492 1044 q 627 1046 581 1062 m 767 971 q 707 939 760 966 q 653 901 669 920 q 582 945 622 924 q 677 1025 598 952 q 767 971 728 1002 m 824 910 q 825 909 824 909 q 825 907 825 908 q 796 892 816 901 q 766 876 774 880 q 717 831 729 854 q 665 890 697 863 q 719 929 682 910 q 779 960 771 956 q 824 910 805 937 m 863 836 q 855 836 859 838 q 747 760 760 777 q 729 807 740 784 q 724 817 727 812 q 730 821 728 818 q 776 863 741 844 q 806 879 784 868 q 834 895 825 888 q 863 836 852 865 m 867 827 q 875 741 881 782 q 760 661 767 669 q 752 741 761 701 q 863 823 764 761 q 867 827 866 824 m 861 692 q 731 549 836 640 q 738 564 734 557 q 758 643 753 602 q 766 645 762 642 q 870 718 785 665 q 861 692 866 704 m 467 220 q 493 231 471 222 q 562 260 535 250 q 542 245 551 252 q 505 212 513 223 q 463 219 476 217 q 467 220 466 220 m 582 355 q 591 291 585 328 q 452 236 558 282 q 446 239 450 239 q 448 250 445 236 q 452 253 450 251 q 582 355 471 280 m 505 368 q 559 410 528 391 q 586 426 570 416 q 585 422 585 425 q 580 420 582 422 q 544 393 568 408 q 505 368 512 372 m 581 400 q 581 373 580 388 q 578 372 579 372 q 456 283 471 298 q 467 313 462 301 q 469 317 466 311 q 480 319 476 312 q 581 400 483 323 m 602 253 q 613 258 609 252 q 616 257 614 257 q 551 201 577 225 q 522 208 534 205 q 555 235 528 215 q 593 262 576 252 q 595 261 597 260 q 602 253 595 254 m 635 253 q 671 245 656 248 q 615 201 656 232 q 612 190 609 197 q 623 188 616 183 q 690 241 673 224 q 741 230 715 236 q 673 180 748 234 q 669 172 669 178 q 597 190 623 184 q 570 196 588 192 q 635 253 597 221 m 795 218 q 722 159 751 189 q 684 169 705 163 q 766 225 753 219 q 795 218 781 222 m 836 142 q 806 104 825 128 q 777 66 774 62 q 783 121 781 101 q 786 122 785 121 q 836 142 805 128 m 901 193 q 843 167 882 184 q 785 143 806 151 q 772 148 781 151 q 771 148 770 149 q 740 155 758 151 q 817 214 770 184 q 901 193 892 197 m 949 134 q 947 205 948 157 q 937 214 946 214 q 926 205 926 214 l 926 202 q 779 241 911 211 q 770 243 775 245 q 770 243 770 243 q 769 243 769 243 q 654 269 720 254 q 653 279 659 273 q 642 279 648 283 q 635 273 632 271 q 613 277 623 275 q 608 315 612 286 q 602 351 603 340 q 625 436 594 425 q 631 450 636 439 q 664 471 651 462 q 716 524 695 494 q 732 522 723 515 q 881 691 857 635 q 894 734 890 711 q 901 739 903 741 q 903 749 906 743 q 897 755 901 755 q 845 916 900 829 q 793 975 824 947 q 785 982 791 981 q 644 1061 730 1028 q 551 1090 601 1078 q 541 1093 547 1097 q 512 1100 525 1097 q 378 1106 435 1118 q 374 1105 376 1106 q 370 1103 371 1105 q 249 1003 326 1075 q 128 904 173 932 q 127 887 115 896 q 126 886 127 886 q 125 885 126 886 q 124 884 125 885 q 123 869 114 878 q 268 716 258 726 q 278 714 273 711 q 294 713 286 703 q 387 770 330 753 q 492 754 451 787 q 522 704 514 737 q 517 645 530 671 q 425 591 506 618 q 212 496 272 540 q 85 267 119 430 q 71 135 69 190 q 71 120 65 127 q 189 66 98 87 q 359 11 250 52 q 544 -43 422 -13 q 729 -94 672 -74 q 738 -93 734 -96 q 748 -98 742 -98 q 755 -92 754 -98 q 781 -74 760 -85 q 832 -51 799 -64 q 910 -23 841 -48 q 924 -18 922 -32 q 932 -8 931 -16 q 928 1 932 -2 l 949 134 z "},"3":{"ha":854,"x_min":52,"x_max":802,"o":"m 735 184 q 730 186 733 186 q 722 181 724 186 q 720 179 721 180 q 641 121 694 156 q 572 81 586 85 q 604 158 593 118 q 666 204 630 172 q 726 254 709 243 q 728 265 732 258 q 718 268 724 272 q 664 223 700 256 q 610 180 631 193 q 618 223 615 202 q 654 261 621 224 q 749 328 710 322 q 754 336 756 329 q 744 343 751 344 q 665 294 712 338 q 635 263 646 276 q 629 256 634 262 q 620 244 623 248 q 621 260 621 252 q 615 316 621 289 q 621 323 621 317 q 675 378 623 340 q 727 411 705 400 q 757 324 753 369 q 735 184 762 250 m 692 107 q 690 101 690 104 q 589 46 675 90 q 550 25 577 41 q 511 4 525 11 q 549 45 533 22 q 560 62 554 52 q 635 99 579 64 q 726 164 690 133 q 692 107 712 134 m 359 -35 q 310 -40 326 -38 q 252 -23 290 -35 q 157 4 170 2 q 139 106 140 92 q 140 195 132 162 q 169 178 150 190 q 197 160 188 165 q 273 141 233 140 q 311 146 293 142 q 321 149 317 142 q 322 149 321 149 q 322 150 322 150 q 381 201 366 164 q 387 203 386 203 q 393 212 393 205 q 387 219 392 219 q 339 340 398 282 q 210 406 283 395 q 208 431 210 415 q 203 458 204 451 q 208 512 198 503 q 224 508 213 511 q 228 499 223 503 q 237 500 233 495 q 242 504 237 500 q 297 496 272 498 q 314 496 305 496 q 323 494 318 492 q 325 496 322 494 q 389 514 368 497 q 421 588 420 539 q 404 669 422 629 q 264 762 374 730 q 87 783 178 787 q 83 821 85 798 q 78 859 79 848 q 79 929 73 905 q 79 930 79 929 q 80 930 80 930 q 286 916 196 930 q 287 915 286 916 q 288 915 287 915 q 289 915 288 915 q 501 838 424 893 q 510 830 505 834 q 513 823 510 827 q 520 822 516 821 q 585 746 552 793 q 630 622 628 686 q 630 610 630 617 q 628 606 629 608 q 629 600 627 602 q 604 507 626 549 q 522 423 576 450 l 519 425 q 509 426 515 429 q 505 416 505 422 q 502 404 498 411 q 513 398 505 395 q 519 401 516 399 q 574 363 566 374 q 600 254 602 323 q 585 165 599 209 q 585 163 585 164 q 531 54 568 108 q 359 -35 479 -22 m 183 225 q 216 241 195 231 q 249 258 241 254 q 289 259 275 271 q 312 243 296 253 q 328 235 319 239 q 302 217 320 230 q 276 198 285 205 q 235 166 237 169 q 203 181 220 171 q 195 185 200 182 q 286 245 273 239 q 288 256 292 249 q 277 259 284 263 q 184 197 267 254 q 177 197 180 199 q 174 199 175 198 q 152 212 161 207 q 170 220 159 216 q 183 225 182 224 m 365 228 q 366 228 365 228 q 366 220 366 224 q 362 208 364 214 q 317 170 336 193 q 265 161 296 162 q 255 162 261 161 q 260 166 257 163 q 264 169 264 168 q 300 196 275 177 q 347 231 352 235 q 365 228 355 229 m 297 590 q 378 642 357 625 l 378 640 q 319 575 365 606 q 279 551 313 571 q 241 525 255 536 q 218 530 229 528 q 297 590 242 557 m 397 562 q 381 534 392 545 q 355 520 372 525 q 397 562 389 556 m 113 964 q 180 1006 136 980 q 301 1072 212 1024 q 304 1074 302 1074 q 368 1072 318 1080 q 299 1025 340 1067 q 280 1004 294 1020 q 258 979 267 987 q 207 949 229 949 q 201 946 203 949 q 169 948 184 947 q 162 949 169 948 q 209 991 177 968 q 258 1031 247 1020 q 258 1042 264 1036 q 247 1042 252 1048 q 195 1000 236 1031 q 146 954 161 975 q 144 949 145 951 q 96 951 121 951 q 113 964 101 956 m 384 1069 q 439 1057 408 1065 q 290 937 388 1039 q 287 936 288 937 q 237 943 262 940 q 277 979 250 950 q 298 1002 282 983 q 321 1027 312 1019 q 377 1058 351 1056 q 384 1069 389 1059 m 459 1053 q 466 1050 467 1050 q 552 1023 526 1034 q 600 998 576 1012 q 532 954 581 992 q 458 888 477 911 q 458 887 458 888 q 394 911 429 900 q 389 913 397 910 q 537 1008 482 985 q 542 1019 544 1011 q 532 1023 540 1027 q 376 922 474 999 q 373 918 373 920 q 307 932 342 926 q 454 1046 399 1029 q 459 1053 459 1047 m 613 989 q 663 950 639 972 q 595 895 640 926 q 524 844 538 857 q 494 867 509 857 q 472 880 484 873 q 532 935 487 898 q 608 983 587 979 q 613 989 612 985 m 711 896 q 625 833 679 867 q 581 808 614 827 q 574 804 579 806 q 568 800 570 802 q 536 834 552 819 q 607 884 549 845 q 675 939 652 915 q 711 896 694 920 m 742 836 q 607 750 656 797 q 580 787 595 768 q 578 789 579 788 q 578 789 578 789 l 577 789 q 576 790 577 789 q 576 791 576 791 q 597 799 581 789 q 641 825 622 814 q 720 883 686 853 q 742 836 732 861 m 762 715 q 762 707 762 715 q 753 706 758 709 q 709 671 741 697 q 665 636 681 649 q 650 627 663 635 q 642 676 648 652 q 648 678 646 675 q 750 760 694 732 q 753 770 757 764 q 742 774 749 777 q 637 690 684 745 q 615 736 630 713 q 747 821 663 783 q 762 715 763 772 m 744 616 q 736 615 740 618 q 697 584 722 602 q 657 554 665 560 q 649 549 656 553 q 639 541 643 544 q 644 564 642 553 q 650 605 648 585 q 658 612 661 614 q 680 628 678 627 q 761 692 740 676 q 744 616 758 652 m 671 509 q 594 455 639 479 q 624 502 612 476 q 632 505 629 501 q 633 513 635 509 q 637 516 634 512 q 651 528 642 520 q 687 557 662 538 q 710 574 693 562 q 732 591 724 585 q 671 509 710 547 m 718 425 q 657 385 692 411 q 609 336 617 355 q 591 373 602 355 q 585 380 589 376 q 621 410 594 386 q 659 437 643 429 q 662 446 666 439 q 651 450 658 454 q 612 422 635 442 q 574 391 585 399 q 542 412 562 401 q 572 433 558 421 q 587 428 577 425 q 669 480 631 449 q 669 479 669 479 q 718 425 699 452 m 777 324 q 746 420 774 374 q 749 431 751 424 q 740 435 747 437 q 737 433 742 435 q 683 493 716 464 q 751 584 726 534 q 772 804 802 685 q 687 956 752 890 q 684 964 688 960 q 677 966 681 968 q 628 1004 654 986 q 437 1078 566 1047 q 345 1095 384 1092 q 281 1084 300 1099 q 151 1012 192 1036 q 83 967 107 986 q 68 954 73 959 q 63 947 64 952 q 57 864 52 920 q 62 818 58 852 q 67 772 66 789 q 77 762 68 762 q 237 747 155 767 q 377 673 340 724 q 401 602 398 644 q 401 579 402 591 q 394 578 397 581 q 360 549 380 570 q 328 516 338 524 q 297 517 313 515 q 262 521 281 517 q 299 546 274 530 q 337 570 326 562 q 393 636 380 601 q 391 644 395 641 q 382 646 387 647 q 382 659 389 651 q 367 659 375 665 q 279 602 348 643 q 198 539 224 569 q 195 532 195 536 q 191 524 192 530 q 182 469 178 512 q 186 433 182 458 q 191 396 191 410 q 201 387 192 387 q 317 333 263 381 q 366 252 359 294 l 365 252 q 287 292 326 255 q 275 296 281 298 q 182 250 248 284 q 154 239 180 250 q 125 224 134 231 q 117 217 120 222 q 116 213 116 215 q 116 213 116 212 q 119 197 111 203 q 118 106 112 162 q 138 -7 119 98 q 145 -14 139 -14 q 258 -45 153 -16 q 373 -53 313 -62 q 462 -28 421 -47 q 473 -31 465 -33 q 594 26 496 -26 q 717 95 704 85 q 718 108 724 101 q 777 324 783 205 z "},"4":{"ha":1016,"x_min":51,"x_max":972,"o":"m 617 410 q 599 429 606 421 q 659 467 618 446 q 659 436 659 454 q 638 423 654 433 q 617 410 625 416 m 654 372 q 629 399 645 382 q 659 417 634 402 q 654 372 658 392 m 616 354 q 549 331 594 347 q 617 377 587 363 q 620 380 618 378 q 633 365 625 374 q 644 354 642 356 l 616 354 m 528 334 q 528 323 522 329 q 503 314 519 320 l 508 321 q 515 335 511 327 q 522 349 519 345 q 522 349 522 349 q 522 351 522 350 q 554 370 526 352 q 598 401 583 389 q 608 391 602 397 q 608 391 608 391 q 528 334 576 374 m 551 410 q 562 437 557 423 q 570 430 566 433 q 572 427 571 429 q 587 412 576 422 q 546 384 575 402 q 535 376 545 382 q 551 410 546 397 m 576 463 q 583 486 576 466 q 590 485 586 483 q 623 503 602 490 q 655 522 645 517 q 659 526 657 524 q 659 484 659 512 q 588 440 609 460 q 587 441 587 441 q 585 443 585 442 q 583 447 582 448 q 576 462 576 452 l 576 463 m 588 507 q 620 595 608 568 q 651 648 637 637 q 652 621 651 641 q 654 578 652 605 q 658 534 657 546 q 658 531 658 534 q 646 536 654 540 q 616 519 636 531 q 586 501 597 507 q 587 504 587 502 q 588 507 588 505 m 679 488 q 678 534 678 524 q 675 572 677 546 q 673 609 673 600 q 678 671 669 659 q 675 684 684 680 q 660 682 666 690 q 655 673 658 677 q 651 671 653 673 q 608 617 630 663 q 572 523 593 587 q 532 415 551 462 q 498 348 530 410 q 484 320 487 324 q 478 304 478 311 q 479 301 478 303 q 474 293 474 297 q 484 283 473 283 q 494 293 494 283 q 498 290 494 288 q 511 296 501 291 q 549 309 526 301 q 643 333 620 333 q 652 339 650 333 q 655 337 654 338 q 669 340 663 331 q 669 343 671 345 q 671 358 677 349 q 673 362 673 359 q 673 367 673 366 q 678 391 675 374 q 680 431 680 406 q 680 441 684 435 l 680 442 q 679 477 680 461 q 679 488 686 481 m 926 317 q 921 272 924 301 q 917 226 918 239 q 919 219 916 221 l 918 218 q 917 213 917 214 q 890 210 911 213 q 863 208 872 208 q 860 209 861 209 q 858 208 859 209 q 848 198 848 208 q 852 138 845 175 q 861 79 860 88 q 856 -46 865 25 q 697 -79 707 -74 q 694 -3 699 -53 q 694 6 698 1 q 693 9 694 8 q 686 79 690 54 q 687 149 679 127 q 685 159 690 156 q 674 161 680 163 q 665 161 670 163 q 433 120 611 144 q 387 113 420 118 q 360 108 377 111 q 339 104 345 105 q 251 109 278 97 l 250 109 q 273 201 270 182 q 273 205 273 203 q 272 218 279 212 q 273 222 273 223 q 300 297 278 237 q 331 390 296 284 q 372 504 345 432 q 447 706 427 650 q 478 789 467 764 q 515 850 497 834 q 519 858 519 853 q 660 882 592 878 q 798 895 781 887 q 803 899 802 896 q 806 901 804 899 q 807 902 807 902 l 810 902 q 806 812 802 867 q 826 682 806 817 q 828 520 834 620 q 821 358 821 392 q 827 349 821 351 q 837 349 831 346 q 924 371 866 366 q 937 372 932 372 q 926 317 932 359 m 679 -81 q 637 -56 662 -79 q 658 -41 645 -53 q 676 -21 663 -37 q 679 -76 679 -63 l 679 -81 m 623 -43 q 606 -26 614 -35 q 589 -9 598 -18 q 600 -9 595 -14 q 668 54 635 22 q 674 15 674 5 q 675 0 674 19 q 656 -20 673 -2 q 627 -43 635 -42 q 623 -43 625 -43 m 588 -8 q 581 -1 585 -4 q 559 17 576 3 q 563 19 562 18 q 663 106 598 54 q 664 92 663 100 q 666 74 665 84 q 663 72 665 73 q 589 2 629 38 q 588 -8 584 -3 m 549 25 q 531 45 537 36 q 527 52 528 47 q 578 93 538 58 q 634 124 608 120 q 639 133 642 125 q 664 140 653 136 q 663 125 663 134 q 659 123 661 125 q 551 30 588 66 q 549 25 549 28 m 530 113 q 589 123 562 117 q 557 95 580 115 q 523 68 536 76 q 530 109 522 85 q 530 113 532 111 m 232 122 q 190 153 228 127 q 178 163 189 153 q 214 177 189 168 q 248 191 237 186 l 250 190 q 232 122 247 171 m 166 172 q 129 203 150 186 q 197 229 150 213 q 264 256 241 245 q 251 218 254 229 q 248 209 250 214 q 209 192 235 201 q 170 176 181 181 q 166 172 168 175 m 115 214 q 115 215 115 214 q 114 216 114 216 q 82 256 88 237 q 185 292 115 262 q 288 324 250 321 q 279 299 283 309 q 272 279 277 292 q 195 245 245 263 q 115 214 137 225 m 82 277 q 96 307 86 288 q 105 326 102 317 q 111 325 108 324 q 312 398 229 357 q 311 396 311 395 q 296 347 309 387 q 294 340 296 348 q 186 310 252 338 q 81 272 112 277 q 82 277 81 275 m 135 419 q 136 419 136 420 q 238 450 170 435 q 341 479 310 466 q 319 419 328 441 q 319 419 319 419 q 111 342 235 376 q 110 346 111 345 q 135 419 119 372 m 158 489 q 159 490 159 490 q 374 567 179 503 q 355 516 364 541 q 349 499 351 504 q 347 498 347 498 q 245 467 312 481 q 142 439 171 451 q 158 489 149 463 m 184 572 q 195 564 184 561 q 399 634 335 598 q 381 586 399 634 q 165 511 156 507 q 184 572 175 543 m 204 627 q 422 699 330 651 q 406 653 416 682 q 399 653 402 655 q 191 579 336 614 q 186 576 188 578 q 204 627 196 604 m 220 666 q 234 703 226 682 q 445 760 296 705 q 431 724 439 744 q 430 719 431 722 q 427 718 428 719 q 211 644 337 670 q 220 666 216 656 m 254 762 q 472 824 342 782 q 464 808 468 817 q 452 780 459 797 q 240 720 294 722 q 254 762 247 739 m 277 830 q 462 884 380 847 q 490 858 475 871 q 492 856 490 857 q 479 838 486 849 q 471 840 476 842 q 260 779 345 800 q 277 830 268 804 m 299 898 q 352 915 305 901 q 402 938 385 924 q 404 941 404 939 q 450 897 425 921 q 282 848 376 864 q 299 898 291 875 m 339 1013 q 394 951 346 1000 q 305 917 382 943 q 339 1013 326 977 m 351 1042 q 353 1045 353 1044 q 425 1044 373 1047 q 413 1039 420 1042 q 401 1034 405 1036 q 368 1023 372 1021 q 360 1021 363 1024 q 350 1038 353 1031 q 351 1042 350 1038 m 452 1042 q 486 1039 469 1040 q 504 1038 494 1038 q 406 979 437 1014 q 406 968 402 974 q 372 1006 385 991 q 398 1015 377 1007 q 422 1026 403 1017 q 447 1036 437 1032 q 452 1042 452 1037 m 560 1038 q 618 1050 593 1041 q 621 1048 619 1048 q 755 959 705 998 q 718 935 716 934 q 676 916 684 913 q 667 911 669 917 q 669 901 664 905 q 646 901 644 901 q 578 892 613 899 q 709 961 602 921 q 713 971 715 964 q 705 976 711 979 q 559 893 585 931 q 558 888 558 890 q 502 873 530 882 q 408 966 444 928 q 418 968 414 962 q 560 1038 456 1012 m 768 949 q 800 920 787 933 q 795 918 798 919 q 792 913 793 916 q 788 912 790 913 q 724 903 771 905 q 691 902 701 903 q 711 913 696 904 q 766 947 715 915 q 768 949 767 948 m 845 467 q 868 444 849 462 q 847 433 854 437 q 844 423 840 430 q 855 419 848 416 q 880 432 867 425 q 901 414 888 424 q 926 391 924 394 q 920 391 915 391 q 891 387 904 389 q 842 374 859 381 q 845 467 842 410 m 967 398 q 955 401 962 405 q 950 403 951 402 q 945 401 948 402 q 924 420 938 408 q 903 438 909 433 q 871 468 885 454 q 859 486 858 484 q 856 496 860 492 q 847 499 852 500 q 847 675 854 614 q 838 739 844 696 q 828 800 831 779 q 836 916 819 876 q 832 926 838 922 q 821 926 827 929 q 631 1065 768 983 q 627 1066 629 1066 q 616 1071 624 1074 q 484 1059 567 1051 q 350 1065 378 1067 q 340 1064 344 1067 q 332 1062 335 1063 q 326 1048 319 1060 q 326 1044 326 1046 q 328 1038 327 1042 q 281 907 309 991 q 277 905 278 905 q 277 892 268 900 q 267 861 271 876 q 237 772 251 811 q 236 768 236 770 q 205 684 218 716 q 188 640 197 665 q 187 640 188 640 q 186 640 186 640 q 180 634 180 639 q 183 626 180 629 q 143 506 165 576 q 82 328 104 386 q 84 327 83 328 q 61 279 60 275 q 77 222 51 251 q 119 184 91 205 q 163 149 155 156 q 191 128 172 141 q 218 109 216 111 l 217 109 q 216 107 216 107 q 235 101 227 106 q 240 98 237 100 q 245 92 241 94 q 329 84 274 79 q 430 99 342 85 q 510 111 448 102 q 507 43 496 71 q 561 -9 511 37 q 590 -40 572 -20 q 620 -70 610 -60 q 682 -102 654 -102 q 687 -101 685 -102 q 696 -101 692 -103 q 868 -64 703 -98 q 875 -58 874 -63 q 882 66 883 4 q 874 127 881 85 q 867 188 867 166 q 891 191 870 188 q 915 195 918 195 l 918 195 q 928 203 926 195 q 936 208 934 203 q 937 210 936 208 l 937 211 q 939 212 939 211 q 946 221 946 214 q 937 231 946 230 q 941 267 939 243 q 945 302 943 291 q 953 353 947 330 q 966 385 958 377 q 967 398 972 391 m 901 403 q 893 411 901 412 q 855 395 872 408 q 854 385 849 390 q 866 383 861 378 q 893 395 879 393 q 901 403 901 396 m 461 927 q 625 1021 500 982 q 630 1031 632 1024 q 621 1037 627 1039 q 448 935 490 996 q 450 925 443 928 q 461 927 456 921 m 490 898 q 492 887 485 891 q 503 890 499 883 q 671 994 541 949 q 676 1004 678 996 q 667 1009 674 1011 q 490 898 530 963 z "},"5":{"ha":902,"x_min":73,"x_max":848,"o":"m 669 986 q 508 949 539 959 q 497 945 504 947 q 669 1025 616 1026 q 676 1036 680 1025 q 771 1008 734 1017 q 669 986 725 998 m 451 929 q 441 926 450 929 q 372 904 399 910 q 345 897 366 902 q 317 892 328 895 q 304 888 310 890 q 424 970 332 901 q 622 1057 480 1013 q 663 1041 642 1048 q 554 1002 616 1040 q 503 968 538 992 q 454 937 471 947 q 451 929 450 935 m 316 588 q 320 562 317 578 q 191 473 234 521 q 190 465 188 470 q 158 484 171 476 q 161 486 159 484 q 233 547 182 515 q 310 602 293 587 q 310 613 315 608 q 299 614 304 618 q 221 558 281 598 q 149 497 172 526 q 148 490 147 494 q 127 503 132 499 q 117 517 132 514 l 117 521 q 124 525 122 521 q 209 600 151 562 q 258 629 215 604 q 306 661 288 648 q 316 588 311 626 m 326 526 q 336 465 333 486 q 338 347 347 385 q 259 425 317 389 q 327 484 292 461 q 330 495 334 488 q 319 498 326 503 q 248 436 281 473 q 245 433 246 435 q 244 434 245 433 q 243 435 243 435 q 199 460 215 451 q 203 463 201 460 q 323 545 243 507 q 326 526 325 534 m 298 726 q 304 677 300 704 q 300 675 302 677 q 119 545 115 538 q 117 586 118 567 q 209 654 139 605 q 298 726 268 694 m 116 606 q 115 661 115 631 q 189 711 131 667 q 241 743 206 723 q 292 774 276 762 q 296 742 294 760 q 290 740 292 743 q 205 670 260 709 q 116 606 131 618 l 116 606 m 114 730 q 115 741 114 730 q 117 741 116 741 q 232 793 111 737 q 288 825 275 812 q 290 792 289 811 q 197 735 277 782 q 157 705 186 728 q 115 678 132 686 q 114 730 114 731 m 117 785 q 140 798 128 791 q 144 806 145 800 q 248 872 164 821 q 251 880 252 875 q 279 864 270 871 q 288 859 283 859 q 287 852 287 856 q 201 796 282 831 q 115 759 118 760 q 117 785 116 771 l 117 785 m 125 863 q 154 890 134 874 q 184 916 176 908 q 184 916 183 915 q 203 901 198 904 q 238 885 214 896 q 119 806 146 829 q 125 863 121 837 m 139 945 q 172 926 154 943 q 151 907 164 918 q 129 889 133 893 q 139 945 134 920 m 209 970 q 320 1000 257 984 q 357 1009 328 1002 q 206 948 220 948 q 199 940 199 947 q 206 932 199 932 q 304 964 244 932 q 400 1007 372 1001 q 406 1013 405 1008 q 402 1021 406 1018 q 426 1027 416 1024 q 573 1057 520 1053 q 445 1003 492 1031 q 365 945 430 994 q 279 896 317 907 l 279 896 q 276 895 277 896 l 276 895 q 275 892 275 893 q 274 892 274 892 q 274 891 274 891 q 250 902 264 897 q 210 921 222 914 q 186 939 201 926 q 164 957 172 951 q 209 970 180 963 m 586 365 q 589 335 589 351 q 589 330 589 334 q 465 254 563 320 q 475 276 471 266 q 481 300 479 288 q 586 365 551 354 m 574 250 q 559 214 568 232 q 557 213 558 213 q 523 194 534 200 q 514 193 518 197 q 397 110 463 150 q 328 60 338 75 q 301 71 314 63 q 299 71 300 71 q 296 83 302 78 q 576 266 437 155 q 576 276 583 271 q 565 277 571 282 q 264 85 418 159 q 179 132 227 110 q 272 136 274 136 q 403 189 342 150 q 443 222 426 203 q 444 222 445 223 q 514 270 460 232 q 587 312 557 300 q 574 250 585 283 m 469 104 q 345 56 402 50 q 386 87 358 71 q 431 113 425 109 q 517 175 515 174 q 524 176 520 174 l 546 189 q 469 104 517 142 m 261 -3 q 226 -38 243 -13 q 196 -78 201 -73 q 180 -66 186 -71 q 174 -62 182 -68 q 176 -60 175 -60 q 266 41 228 16 q 261 -3 263 24 m 210 -87 q 233 -54 216 -80 q 260 -23 248 -33 q 260 -119 258 -64 q 210 -87 235 -104 m 162 -52 q 134 -28 146 -39 q 245 63 231 58 q 251 69 250 64 q 265 60 258 64 q 263 59 264 59 q 162 -52 219 31 q 162 -52 162 -52 m 112 -1 q 203 83 130 22 q 203 94 208 89 q 191 95 197 100 q 104 15 123 37 q 98 37 100 26 q 109 37 104 33 q 140 68 117 43 q 173 96 159 87 q 176 107 180 100 q 165 110 172 114 q 137 87 152 102 q 134 88 134 88 q 127 78 126 88 q 98 48 106 56 q 96 47 98 48 q 94 71 94 60 l 94 73 q 148 123 140 106 q 148 124 147 122 q 239 77 199 102 q 123 -16 223 71 q 112 -1 116 -7 m 111 140 q 114 138 111 139 q 117 136 113 138 q 121 126 116 131 q 130 123 125 123 q 95 92 121 111 q 111 140 98 121 m 621 620 q 645 634 632 627 q 648 642 650 637 q 676 622 662 633 q 722 570 701 603 q 621 620 671 610 m 600 623 q 562 621 581 624 q 561 623 562 621 l 559 623 q 546 625 554 623 q 532 673 536 652 q 544 669 539 669 q 554 677 554 669 l 554 677 q 587 672 570 677 q 547 642 568 661 q 547 631 541 637 q 557 631 552 625 q 608 665 585 654 q 639 648 623 659 q 637 648 637 648 q 604 629 616 635 q 600 623 600 627 m 847 852 q 845 1010 823 943 q 844 1021 847 1015 q 834 1024 840 1025 q 828 1021 834 1024 q 822 1020 819 1020 l 821 1020 q 600 1086 734 1034 q 587 1078 589 1090 q 423 1047 535 1078 q 363 1031 405 1042 q 304 1018 321 1021 q 183 983 272 1009 q 134 964 136 968 l 133 964 q 123 960 125 964 q 121 958 123 960 q 94 690 91 827 q 98 589 95 631 q 93 586 92 585 q 92 577 89 582 q 98 572 94 572 q 100 546 100 558 l 104 500 q 107 496 105 498 q 225 423 127 477 q 323 330 301 381 q 334 324 327 321 q 342 320 338 321 q 375 328 359 319 q 385 332 381 326 q 463 395 410 368 q 559 408 521 427 q 582 380 574 401 q 485 322 545 368 q 483 355 486 339 q 499 365 478 353 q 549 390 537 386 q 555 400 557 393 q 545 406 553 408 q 506 387 532 401 q 486 375 506 387 q 479 371 483 374 q 473 387 475 380 q 459 392 469 396 q 454 379 449 389 q 462 304 470 343 q 460 299 460 302 q 452 273 457 286 q 370 193 430 224 q 241 153 297 157 q 192 151 230 151 q 143 148 162 151 q 121 157 132 153 q 113 165 119 163 q 101 162 106 167 q 74 86 76 136 q 87 5 73 44 q 91 -3 89 1 q 95 -11 90 -8 q 149 -66 111 -35 q 256 -140 191 -103 q 260 -141 258 -140 q 269 -149 262 -148 q 492 -94 345 -161 q 701 28 646 -26 q 811 260 783 109 q 789 489 838 397 q 798 495 795 493 q 790 503 795 498 q 745 570 779 515 q 687 641 717 617 q 534 696 604 707 q 529 694 532 696 q 532 734 528 717 q 524 745 534 745 q 511 737 513 747 q 529 610 500 689 q 538 604 532 604 q 555 601 534 604 q 564 599 559 598 q 671 578 616 609 q 755 504 720 551 q 788 246 823 413 q 653 13 755 93 q 545 -47 625 -9 q 432 -98 478 -80 q 286 -132 337 -135 q 282 -131 285 -131 l 279 -131 q 280 -125 280 -126 q 280 -124 280 -125 q 280 -26 278 -73 q 290 53 283 34 q 467 76 371 7 q 587 224 550 134 q 597 397 631 331 q 517 434 573 441 q 427 399 474 429 q 374 351 394 378 q 372 351 372 351 q 357 342 364 344 q 359 448 366 378 q 349 514 355 473 q 338 580 339 568 q 326 652 336 591 q 316 724 321 686 q 309 869 302 819 q 328 873 304 868 q 355 880 338 876 q 382 885 374 884 q 447 906 408 891 q 511 928 502 926 q 671 966 540 938 q 821 1000 756 983 q 825 855 806 933 q 733 823 799 848 q 640 796 675 802 q 600 790 625 793 q 561 783 572 785 q 511 764 523 776 q 513 751 505 758 q 528 752 522 745 q 581 766 534 758 q 617 772 591 768 q 654 777 641 775 q 745 806 687 783 q 836 836 808 830 q 844 844 842 838 q 847 852 848 847 m 315 447 q 288 416 298 437 q 292 405 285 409 q 302 408 298 401 q 322 433 311 427 q 325 444 329 437 q 315 447 321 450 z "},"6":{"ha":808,"x_min":42,"x_max":807,"o":"m 692 -41 q 621 -70 677 -62 q 541 -75 608 -71 q 513 -77 532 -75 q 706 4 552 -50 q 694 -33 701 -16 q 694 -39 693 -37 q 692 -41 690 -43 m 490 -77 q 547 27 526 -45 q 551 21 548 22 q 559 22 556 19 q 718 91 607 65 q 724 100 726 93 q 715 106 722 109 q 549 34 600 79 q 549 33 549 34 q 562 101 557 64 q 565 119 564 108 q 575 116 568 112 q 661 150 602 131 q 747 184 720 168 q 744 167 746 177 q 732 103 738 127 q 711 22 724 66 q 709 21 710 22 q 503 -65 538 -39 q 503 -77 494 -71 q 488 -79 492 -78 q 490 -77 491 -77 m 476 -62 q 448 -81 463 -73 q 432 -81 431 -81 q 419 -81 425 -82 q 413 -82 412 -82 q 400 -92 401 -79 q 376 -94 389 -94 q 127 24 230 -92 q 71 267 60 98 q 85 414 77 359 q 121 568 96 475 q 166 709 146 661 q 248 835 195 777 q 462 998 302 895 q 519 839 473 958 q 526 789 509 817 q 355 653 422 749 q 352 652 354 653 q 350 652 351 652 q 345 640 340 649 q 298 565 314 594 q 297 564 298 565 q 295 564 296 564 q 292 552 288 560 q 281 523 285 536 q 281 523 281 523 q 273 515 274 522 q 277 507 272 509 q 278 481 275 492 q 283 475 279 477 q 271 460 276 468 q 273 446 264 452 q 287 449 282 441 q 368 491 317 489 q 459 465 414 493 q 551 260 543 413 q 524 21 559 132 q 476 -62 508 -33 m 516 912 q 706 943 659 947 q 711 925 709 935 q 705 925 708 926 q 617 899 681 914 q 531 884 546 880 q 524 883 528 886 q 513 912 518 901 q 516 912 515 912 m 713 911 q 714 911 713 911 q 720 875 718 895 q 717 876 718 876 q 538 833 696 876 q 539 835 539 834 q 539 844 541 839 q 530 869 535 854 q 613 881 547 865 q 713 911 681 897 m 722 861 q 722 861 722 861 q 722 861 722 861 q 723 837 722 851 q 583 809 593 810 q 577 804 578 808 q 579 795 576 799 q 544 798 552 800 q 536 816 537 808 q 716 859 707 859 q 722 861 719 859 m 724 821 q 724 817 724 820 q 725 814 725 815 q 729 768 728 784 q 724 770 726 770 q 710 777 721 783 q 680 778 705 774 q 625 787 665 779 q 590 794 606 791 q 724 821 602 796 m 462 732 q 543 774 500 759 q 550 779 548 775 q 583 775 557 779 q 601 772 585 775 q 462 732 497 753 m 583 682 q 517 593 542 638 q 512 593 515 594 q 408 559 475 588 q 303 525 339 531 q 316 555 308 538 q 374 576 336 563 q 431 598 412 591 q 530 643 522 635 q 531 654 536 648 q 520 655 526 660 q 423 612 506 643 q 329 577 343 583 q 368 637 343 601 q 370 640 368 638 q 371 642 370 641 q 473 675 391 647 q 576 706 536 696 q 583 715 584 707 q 573 722 581 723 q 387 663 566 720 q 445 720 414 696 q 446 711 441 715 q 457 710 452 706 q 618 759 486 733 q 624 767 625 760 q 637 764 637 764 q 655 760 640 764 q 675 755 667 758 q 583 682 631 734 m 361 511 q 298 488 325 507 q 298 509 296 496 q 404 541 337 513 q 509 576 474 570 q 497 549 502 562 q 469 547 481 549 q 366 522 401 541 q 361 511 359 518 m 538 530 q 490 515 519 527 q 442 497 451 500 q 441 497 442 497 q 433 500 436 500 q 391 511 413 509 q 468 527 417 522 q 538 530 487 529 m 565 529 q 563 530 566 529 q 578 530 572 530 q 666 519 629 530 q 497 460 503 463 q 461 487 481 475 q 564 513 540 517 q 572 520 572 513 q 565 529 572 528 m 690 511 q 743 467 724 495 q 705 452 725 460 q 694 456 701 458 q 617 428 674 448 q 541 399 568 412 q 509 448 527 427 q 599 480 543 462 q 690 511 671 504 m 766 410 q 758 412 762 413 q 580 340 659 394 q 576 334 576 338 q 564 326 570 330 q 557 353 561 340 q 547 385 553 370 q 617 412 574 397 q 688 437 677 433 q 699 433 692 431 q 725 444 708 437 q 751 454 743 451 q 766 410 761 435 m 767 401 q 770 342 770 375 q 760 342 765 345 q 668 296 731 321 q 574 252 602 270 q 572 250 573 251 q 567 307 571 281 q 612 336 597 332 q 618 345 619 338 q 762 397 686 382 q 767 401 766 397 m 763 273 q 758 273 760 274 q 665 236 736 262 q 574 195 606 214 q 572 191 573 193 q 572 239 573 216 q 582 237 576 234 q 675 283 610 256 q 769 328 740 308 q 763 273 768 304 m 756 231 q 750 201 754 222 q 744 201 747 203 q 656 165 716 183 q 568 130 594 145 q 566 128 568 130 q 572 184 570 158 q 582 180 574 176 q 670 221 613 200 q 761 256 741 247 q 756 231 759 243 m 721 -28 l 721 -25 l 720 -24 q 754 104 739 35 q 767 172 759 127 q 779 241 776 227 q 768 464 807 389 q 764 473 770 471 q 760 479 761 478 q 715 521 743 505 q 715 530 719 526 q 705 533 711 536 q 698 530 709 534 q 584 551 652 551 q 551 550 577 550 q 519 550 524 550 q 593 664 542 605 q 724 751 661 740 q 732 758 729 751 q 738 755 732 757 l 740 754 q 750 754 741 747 q 752 759 751 756 q 755 763 754 763 q 748 778 762 774 q 744 826 747 793 q 744 827 744 826 q 743 838 749 832 q 741 874 742 861 q 727 944 736 916 q 728 951 730 947 q 723 958 727 956 q 711 981 718 972 q 611 1018 689 1017 q 541 1025 566 1019 q 505 1034 545 1025 q 482 1038 487 1038 q 475 1031 477 1038 q 476 1021 472 1026 q 482 1016 477 1019 q 494 1017 488 1010 l 505 1014 q 541 1004 515 1011 q 601 998 565 998 q 633 996 618 998 q 503 979 523 979 q 495 972 495 979 q 502 964 494 964 q 587 972 534 963 q 671 984 648 983 q 673 985 672 984 q 698 963 691 977 q 700 960 698 964 q 513 928 652 962 q 509 926 511 927 q 479 1016 486 989 q 473 1023 477 1021 q 464 1023 468 1026 q 238 854 293 912 q 110 606 157 770 q 53 302 60 430 q 74 64 42 132 q 277 -97 127 -48 q 450 -102 380 -131 q 467 -100 462 -100 q 547 -96 541 -96 q 638 -87 611 -93 q 709 -53 690 -79 q 711 -45 711 -48 q 717 -41 716 -43 l 721 -28 m 359 123 q 307 114 336 91 q 281 163 288 129 q 291 163 286 159 q 382 220 350 210 q 382 184 385 203 q 379 167 381 175 q 309 131 324 132 q 301 123 302 131 q 309 115 301 115 q 371 142 332 116 q 359 123 366 132 m 279 174 q 277 221 277 195 q 313 304 280 300 q 319 311 318 306 q 350 280 337 295 q 316 264 332 273 q 279 233 285 248 q 284 224 277 226 q 294 229 292 221 q 326 252 298 236 q 360 268 344 261 q 368 257 365 262 q 378 235 374 247 q 281 175 342 224 q 279 174 280 174 m 398 159 q 401 172 407 163 q 391 258 410 220 q 377 279 386 267 q 370 288 379 289 q 328 330 354 308 q 315 324 318 338 q 309 324 311 326 q 257 222 262 317 q 300 94 252 127 q 359 94 329 73 q 398 159 386 113 l 398 159 q 398 159 398 159 z "},"7":{"ha":979,"x_min":82,"x_max":932,"o":"m 243 977 q 243 977 242 977 l 243 977 m 868 721 q 868 720 868 720 l 868 721 m 894 876 q 890 839 891 846 q 876 760 884 805 q 868 720 869 721 q 875 708 868 711 q 873 673 870 694 q 874 637 875 645 q 848 604 873 624 q 808 575 840 597 q 646 411 707 506 q 544 183 562 281 q 532 83 537 142 q 528 23 528 28 q 528 22 527 26 q 525 14 526 18 q 515 15 522 18 q 461 2 494 8 q 408 -8 419 -6 q 363 -24 392 -12 q 317 -39 333 -35 q 315 -28 320 -33 q 317 16 314 -4 q 321 20 320 18 l 326 30 q 321 41 330 37 q 323 62 321 49 q 328 65 329 66 q 331 74 332 68 q 326 80 330 79 q 357 208 334 124 q 428 393 381 298 q 647 680 524 585 q 648 693 655 686 q 634 696 642 702 q 623 687 629 692 q 614 689 620 691 q 474 671 572 680 q 335 650 384 663 q 324 734 335 665 q 328 814 315 784 q 328 823 330 819 q 336 822 331 823 q 346 828 342 822 q 557 861 461 850 q 663 882 587 864 q 768 899 728 899 q 779 905 776 899 l 780 908 q 848 908 813 907 q 899 911 891 909 q 894 876 895 899 m 297 20 q 294 -15 294 4 q 249 20 289 -12 q 245 22 248 20 q 242 25 243 24 q 245 24 244 24 q 279 35 252 22 q 302 47 291 41 q 301 27 301 35 q 297 20 298 25 m 212 50 q 201 59 206 54 q 318 137 290 119 q 304 68 308 96 q 283 56 296 62 q 249 39 252 38 q 240 35 243 41 q 241 26 237 29 q 212 50 224 39 m 192 72 q 194 119 188 84 q 198 142 195 125 q 338 216 300 203 q 335 203 335 204 q 321 150 327 175 q 311 151 317 155 q 192 72 283 134 m 206 183 q 212 216 208 191 q 355 292 349 287 q 357 303 361 296 q 347 306 353 310 q 215 235 328 292 q 222 277 218 255 q 222 277 222 277 l 222 278 q 390 368 332 346 q 395 378 397 371 q 385 383 393 386 q 225 299 325 360 q 237 353 231 330 q 426 441 387 431 q 431 450 433 442 q 422 456 429 458 q 243 374 373 445 q 262 426 252 402 q 359 467 299 444 q 458 504 443 498 q 463 515 465 507 q 454 519 460 522 q 361 484 433 511 q 271 448 304 463 q 298 505 283 479 q 520 579 295 505 q 409 399 462 504 q 343 234 370 323 q 340 234 342 235 q 202 163 296 219 q 206 183 203 172 m 308 522 q 335 562 319 542 q 414 594 346 562 q 569 658 545 655 q 575 662 573 659 q 598 665 588 663 q 530 592 564 634 q 522 597 528 599 q 416 554 505 591 q 307 522 351 528 q 308 522 308 522 m 428 643 q 431 648 431 644 q 440 648 437 648 q 505 654 462 650 q 455 631 509 656 q 383 597 381 596 q 370 591 382 596 q 354 583 361 586 q 428 643 387 617 m 262 888 q 305 905 277 895 q 347 922 334 916 q 485 976 452 970 q 488 977 486 976 q 528 981 515 979 q 600 987 562 984 q 465 927 535 964 q 338 851 355 868 q 338 851 337 852 q 262 888 316 864 m 314 827 q 309 821 311 825 q 304 734 295 789 q 314 644 315 665 q 263 683 297 654 q 212 721 232 710 q 195 730 198 728 q 298 792 277 770 q 298 803 303 798 q 287 803 292 809 q 178 740 271 787 q 163 748 168 745 q 142 762 151 754 q 138 764 140 762 q 278 836 237 816 q 281 846 285 840 q 271 850 277 853 q 131 778 228 829 q 130 822 132 798 q 189 844 155 825 q 245 873 237 869 q 315 841 303 847 q 314 827 308 834 m 129 838 q 127 856 128 849 q 124 871 126 862 q 127 871 126 871 q 187 899 143 877 q 227 882 209 890 q 129 838 143 839 m 121 886 q 118 903 119 895 q 113 926 116 911 q 109 939 113 927 l 111 938 q 113 935 111 937 q 115 932 115 933 q 122 930 119 930 q 143 920 120 932 q 168 907 157 913 q 123 887 139 892 q 121 886 123 887 m 160 938 q 225 953 163 939 q 288 960 242 957 q 240 943 281 958 q 193 922 210 933 q 191 920 192 922 q 153 937 174 927 q 160 938 156 938 m 323 963 q 373 966 346 964 q 410 969 375 966 q 364 947 395 962 q 304 923 347 939 q 244 897 265 908 q 208 913 228 904 q 264 935 224 922 q 319 958 301 947 q 323 963 321 960 m 635 990 q 694 994 669 992 q 701 998 700 994 q 711 998 706 996 q 751 1002 718 1001 l 752 1002 q 484 872 631 938 q 439 866 457 869 q 363 852 407 861 q 464 908 385 869 q 630 981 573 962 q 635 990 637 983 m 792 1006 q 836 977 802 1000 q 661 909 753 954 q 656 902 656 907 q 559 882 585 884 q 536 878 554 881 q 792 1006 676 942 m 895 932 q 846 929 888 930 q 777 928 812 927 q 766 922 770 929 q 766 922 768 922 q 760 919 764 920 q 705 912 736 918 q 853 965 782 947 q 895 932 879 946 m 928 936 q 917 941 924 941 l 916 941 q 877 970 917 941 q 878 971 877 970 q 880 971 879 971 q 885 981 887 973 q 876 987 883 988 q 860 983 873 986 q 808 1021 833 1002 q 799 1027 806 1029 q 795 1028 797 1028 q 787 1028 791 1030 q 744 1023 773 1023 q 702 1017 715 1022 q 696 1013 699 1015 q 690 1014 694 1014 q 539 1001 635 1011 q 388 987 433 990 q 243 977 246 977 q 179 963 236 976 q 125 956 141 954 q 115 962 123 963 q 107 959 102 958 q 100 964 104 964 q 87 943 82 963 q 100 888 94 916 q 111 779 113 826 q 111 772 111 779 q 112 769 111 771 q 113 765 113 766 l 113 764 q 121 753 113 753 q 125 750 121 752 q 130 745 127 747 q 184 713 146 734 q 239 678 220 694 q 304 626 309 623 q 313 624 309 623 q 323 621 315 620 q 332 628 330 621 q 390 642 358 636 q 323 579 353 614 q 317 572 317 578 q 296 543 306 557 q 243 435 269 502 q 241 434 243 435 q 239 433 239 433 q 237 420 229 428 q 222 376 229 397 q 201 281 211 339 q 193 223 196 245 q 191 213 186 219 q 186 184 187 191 q 178 150 182 163 q 166 142 168 144 q 163 132 159 138 q 174 129 168 125 q 174 129 174 129 l 174 129 q 172 116 173 119 q 174 61 167 76 l 176 58 q 176 56 176 56 q 194 38 178 52 q 232 8 207 27 q 296 -41 281 -31 q 298 -53 296 -41 q 309 -62 299 -63 q 363 -45 330 -58 q 417 -28 401 -31 q 471 -17 428 -24 q 523 -3 503 -11 q 527 -1 526 -3 q 533 -4 529 -4 q 541 4 542 -4 q 543 16 540 10 q 548 26 549 18 q 549 29 549 24 q 549 42 549 32 q 553 81 550 59 q 564 182 556 135 q 673 414 581 282 q 833 568 729 496 q 884 604 867 591 q 891 621 886 609 q 895 659 897 635 q 895 703 891 698 q 890 716 898 710 q 890 728 895 723 q 892 738 892 734 q 899 770 895 748 q 905 804 901 782 q 911 838 908 826 q 926 922 926 921 q 928 936 932 928 z "},"8":{"ha":842,"x_min":29,"x_max":793,"o":"m 378 119 q 323 94 357 94 q 306 98 313 95 q 315 99 311 96 q 359 139 331 113 q 403 179 389 167 q 403 175 403 172 q 378 119 399 141 m 286 123 q 286 174 279 144 q 350 262 300 246 q 355 266 354 263 q 379 252 369 262 q 296 166 347 209 q 294 165 295 165 q 290 161 290 161 q 286 157 285 157 q 286 147 281 153 q 296 145 290 141 q 304 153 301 149 q 389 239 355 195 q 394 230 392 235 q 402 199 400 216 q 399 197 400 198 q 351 154 382 182 q 304 111 319 124 q 306 98 296 104 q 286 123 292 105 m 410 246 q 351 288 391 281 q 338 279 340 290 q 263 168 279 255 q 271 104 257 130 q 324 74 286 77 q 393 102 365 72 q 422 172 418 130 q 410 246 427 214 m 422 653 q 376 626 406 625 q 428 703 385 650 q 427 714 433 708 q 417 713 422 720 q 359 629 371 657 q 336 647 345 634 q 408 742 395 709 q 408 745 408 743 q 433 710 429 736 q 422 653 437 679 m 332 707 q 329 718 334 713 q 386 749 346 749 q 393 748 389 749 q 392 747 393 747 q 329 663 381 716 q 332 707 322 684 m 453 707 q 452 743 452 731 q 425 759 443 748 q 369 766 400 772 q 318 738 336 760 q 306 679 297 712 l 307 678 q 369 607 309 616 q 434 635 409 600 q 453 707 456 667 m 637 1011 q 624 1011 633 1011 q 644 1002 634 1007 q 637 1011 640 1008 m 709 514 q 709 513 708 513 q 709 514 709 514 m 756 202 q 743 155 753 182 q 739 162 743 160 q 730 161 734 164 q 650 100 713 142 q 579 32 598 66 q 582 21 575 25 q 593 24 589 17 q 663 90 611 56 q 741 149 724 131 q 709 78 729 117 q 689 43 699 58 q 684 48 688 47 q 675 47 680 50 q 645 21 666 39 q 615 -5 625 3 q 517 -37 579 -20 q 619 134 600 38 q 629 137 625 132 q 684 186 641 155 q 738 220 723 216 q 743 229 745 222 q 733 235 741 237 q 672 197 716 230 q 623 155 636 171 q 624 220 627 186 q 631 215 626 216 q 638 219 635 214 q 694 281 654 245 q 755 340 740 321 q 754 351 760 346 q 743 351 748 357 q 682 290 728 332 q 625 227 642 254 q 623 225 624 226 q 612 279 621 253 q 615 280 614 279 q 622 284 618 282 q 625 294 629 288 q 746 417 671 345 q 758 359 754 391 q 756 202 770 280 m 669 16 q 663 7 666 11 q 661 13 662 11 q 682 31 670 22 q 669 16 675 22 m 473 -46 q 301 -100 394 -100 q 144 -40 209 -100 q 66 101 88 12 q 63 263 45 182 q 142 403 83 350 q 226 446 176 433 q 232 459 237 450 q 242 462 237 460 q 248 474 252 464 q 236 481 245 484 q 126 575 160 462 q 119 741 99 667 q 220 918 153 866 q 416 960 305 983 q 530 873 489 944 q 558 802 549 841 q 557 799 557 802 q 555 796 556 798 q 562 787 552 788 q 568 732 567 760 q 456 457 576 550 q 456 440 444 448 q 458 434 456 437 q 550 350 547 354 q 594 269 579 314 q 585 96 620 186 q 473 -46 551 9 m 458 1008 q 431 977 456 1004 q 410 982 421 980 q 345 984 380 987 q 458 1008 397 1002 m 505 1010 q 519 1010 521 1010 q 517 1008 517 1009 q 499 981 509 999 q 483 953 488 960 q 448 971 466 964 q 475 1008 471 995 q 505 1010 492 1010 m 571 1010 q 681 949 585 1008 q 690 937 689 938 q 701 919 695 929 q 697 916 698 918 q 642 842 681 888 q 585 768 601 793 q 578 808 583 789 q 665 945 602 861 q 663 954 670 951 q 652 952 656 958 q 571 830 596 880 q 556 867 564 850 q 620 976 576 905 q 617 987 624 983 q 606 984 610 991 q 547 883 566 920 q 541 893 542 891 q 528 911 535 901 q 529 913 529 912 q 579 994 542 942 q 576 1004 583 1000 q 566 1002 570 1008 q 517 924 530 952 q 496 943 506 935 q 511 970 500 950 q 528 997 520 988 q 526 1010 534 1005 q 571 1010 562 1010 m 730 844 q 584 652 649 741 q 588 740 591 694 q 646 823 605 773 q 708 904 692 878 q 730 844 721 878 m 745 732 q 743 732 743 732 q 517 460 753 741 q 476 446 479 448 l 475 447 q 561 567 532 495 q 576 616 570 590 q 579 618 578 616 q 734 824 646 711 q 745 734 743 783 l 745 732 m 713 555 q 705 547 706 555 q 701 532 704 542 q 698 531 700 532 q 619 494 669 513 q 615 494 617 494 q 723 616 623 501 q 722 628 728 622 q 712 627 717 633 q 589 492 606 507 q 588 482 585 488 q 581 479 578 479 q 545 469 572 477 q 745 711 728 696 q 713 555 745 621 m 525 404 q 498 427 512 415 q 499 432 499 430 q 505 434 503 434 q 534 444 513 437 q 585 460 566 453 q 525 404 551 418 m 715 475 q 740 433 729 459 q 605 296 654 351 q 585 336 597 317 q 537 392 570 359 q 614 471 561 407 q 685 500 656 486 q 689 496 686 498 q 703 487 696 492 q 574 372 607 420 q 577 361 570 366 q 588 364 584 357 q 715 475 618 409 m 778 369 q 762 434 772 405 q 758 442 762 439 q 729 490 747 471 q 721 498 730 500 q 704 511 713 506 q 709 514 709 514 q 713 520 713 516 q 720 524 718 521 q 766 727 766 602 q 714 935 764 849 q 644 1002 690 979 q 654 987 648 996 q 624 1009 633 1002 q 620 1011 624 1008 q 624 1011 623 1011 q 612 1015 621 1013 q 549 1029 587 1027 q 547 1028 549 1029 q 331 1000 441 1039 q 292 984 311 994 q 288 973 285 980 q 219 942 250 962 q 111 786 150 897 q 96 614 83 703 q 170 470 114 507 q 199 459 182 462 q 82 364 126 432 q 35 218 42 301 q 56 61 29 136 q 142 -65 85 -17 q 279 -119 199 -113 q 427 -95 355 -125 q 439 -96 432 -100 q 530 -54 469 -71 q 583 -39 562 -45 q 596 -41 589 -47 q 608 -31 597 -41 q 626 -25 620 -27 q 629 -26 628 -26 q 717 49 667 -38 q 776 195 761 127 q 778 369 793 273 z "},"9":{"ha":875,"x_min":71,"x_max":821,"o":"m 794 586 q 771 429 789 524 q 738 285 754 334 q 667 153 715 214 q 466 -27 618 89 q 440 34 458 -7 q 444 36 444 36 q 447 46 451 39 q 436 50 443 54 q 433 48 437 50 q 396 127 418 82 q 385 176 406 149 q 549 330 489 226 q 595 420 581 387 q 608 503 618 475 q 603 509 606 507 q 614 524 609 516 q 610 538 618 532 q 596 534 601 543 q 518 486 570 491 q 426 505 473 480 q 398 523 412 512 q 389 531 399 532 q 370 553 379 541 q 366 558 370 556 q 322 671 336 602 q 325 680 326 674 q 319 686 324 684 q 317 701 318 694 q 325 941 299 828 q 366 1028 337 996 q 393 1048 378 1040 l 409 1050 q 422 1053 406 1050 q 427 1054 429 1053 q 439 1065 439 1053 q 463 1067 451 1067 q 722 971 610 1078 q 757 938 738 956 q 791 848 758 927 q 795 844 792 845 q 795 795 795 829 q 797 733 796 755 q 794 586 799 641 m 210 33 q 199 74 204 52 q 377 152 316 113 q 377 136 380 142 q 376 130 376 132 q 376 120 374 125 q 384 104 380 111 q 210 33 212 34 m 189 134 q 181 181 184 165 q 186 179 184 179 q 201 172 191 165 q 232 175 207 176 q 257 173 240 174 q 197 151 222 156 q 192 141 190 149 q 202 135 194 134 q 286 170 226 140 l 287 170 q 369 165 355 161 q 197 90 309 127 q 189 134 193 105 m 267 221 q 475 290 349 224 q 479 300 483 294 q 468 304 475 307 q 286 239 357 247 q 320 277 303 256 q 334 296 327 286 q 342 294 337 292 q 441 333 372 304 q 542 371 505 359 q 547 380 549 373 q 538 386 545 389 q 441 350 500 375 q 345 311 370 321 q 372 358 361 336 q 373 357 373 357 q 374 356 373 357 q 375 355 374 356 q 385 354 380 352 q 585 453 596 457 q 572 418 581 437 q 531 340 560 391 q 366 190 471 235 q 361 184 363 188 q 328 185 353 182 q 315 186 327 185 q 314 194 317 191 q 307 196 311 197 q 292 189 300 193 q 273 192 285 191 q 255 194 270 192 q 234 197 242 196 q 267 221 250 206 m 528 467 q 589 494 564 473 q 589 471 591 485 q 476 420 541 454 q 445 404 466 414 q 414 387 425 392 q 389 374 402 380 q 388 372 389 374 q 380 377 386 376 q 395 418 390 398 q 423 421 410 419 q 523 454 490 432 q 528 467 529 459 m 347 433 q 377 462 355 440 q 408 490 395 481 q 410 491 408 490 q 454 471 431 478 q 498 464 476 465 q 422 441 472 451 q 347 433 403 439 m 335 432 q 312 430 324 431 q 253 429 281 427 q 351 489 311 477 q 357 496 357 490 q 384 509 372 501 q 395 500 387 506 q 365 472 383 491 q 334 443 345 451 q 335 432 328 437 m 237 431 q 199 441 216 434 q 357 538 319 514 q 372 520 363 529 q 342 509 359 513 q 337 500 336 507 q 239 439 296 486 q 237 431 235 435 m 140 484 q 135 490 138 486 q 137 491 137 490 q 228 548 168 516 q 321 601 298 585 q 347 551 332 573 q 181 448 317 531 q 140 484 155 462 m 127 503 q 111 556 117 526 q 123 554 117 549 q 304 661 161 585 q 316 616 309 638 q 220 562 290 598 q 127 503 159 529 m 106 644 q 113 638 108 639 q 120 642 118 637 q 199 705 140 676 q 292 752 282 745 q 300 677 294 713 q 113 566 150 596 q 111 563 111 564 q 106 644 105 598 m 111 713 q 113 729 112 720 q 119 731 117 729 q 294 852 182 781 q 292 771 291 811 q 290 770 290 770 q 191 718 272 755 q 106 650 128 687 q 106 650 107 651 q 111 713 108 680 m 118 778 q 123 833 121 810 q 127 834 125 833 q 217 897 142 844 q 309 958 272 936 q 294 871 298 921 q 115 748 180 798 q 118 778 117 764 m 136 912 q 161 938 146 926 q 230 982 182 950 q 273 1001 248 991 q 276 1002 275 1002 q 286 1006 279 1003 q 331 1025 320 1020 q 334 1032 336 1027 q 329 1038 334 1037 q 329 1040 328 1040 q 353 1043 340 1041 q 352 1042 351 1042 q 315 980 330 1019 q 313 979 314 979 q 126 853 309 977 q 136 912 131 884 m 151 983 q 151 988 152 985 q 153 990 153 989 q 221 1024 165 1012 q 301 1036 233 1027 q 310 1037 305 1036 q 273 1018 296 1028 q 270 1017 271 1017 q 259 1020 267 1025 q 218 994 244 1011 q 153 951 179 974 q 146 947 146 947 q 142 943 143 946 q 151 983 146 964 m 806 846 q 806 852 807 849 q 804 858 806 851 q 794 894 800 877 q 795 878 795 886 q 785 901 788 892 q 779 918 779 916 q 790 907 787 909 q 777 935 785 923 q 773 942 777 936 q 774 952 773 948 q 770 961 776 958 q 761 960 765 964 q 563 1080 697 1047 q 389 1069 457 1104 q 372 1066 377 1067 q 292 1055 299 1056 q 203 1040 229 1048 q 136 1000 152 1027 q 133 993 132 995 q 129 988 129 989 l 125 975 l 127 973 q 103 842 113 911 q 95 772 99 814 q 89 702 91 716 q 127 467 71 538 q 160 436 141 448 q 159 435 160 435 q 157 425 153 431 q 168 422 161 418 q 172 424 169 422 q 176 427 175 426 q 309 409 228 401 q 341 412 315 410 q 374 415 361 414 q 309 295 355 357 q 255 237 282 260 l 254 237 q 247 230 248 237 q 184 198 216 205 q 178 193 180 197 q 173 196 176 195 q 170 197 170 197 q 160 194 164 199 q 157 189 159 193 q 156 184 157 184 q 163 170 149 172 q 170 121 165 155 q 179 73 175 91 q 216 -31 193 1 q 319 -59 241 -64 q 390 -62 364 -57 q 427 -67 386 -61 q 450 -69 445 -70 q 457 -62 457 -68 l 457 -61 q 454 -52 457 -55 q 448 -47 453 -50 q 435 -49 441 -42 l 425 -46 q 388 -41 414 -45 q 328 -38 363 -36 q 229 -12 249 -43 q 214 18 221 -1 q 391 90 211 17 q 414 40 404 63 q 268 -18 271 -16 q 266 -30 262 -23 q 276 -32 270 -37 q 421 26 281 -28 q 451 -47 444 -24 q 458 -53 452 -52 q 467 -52 463 -56 q 678 134 628 72 q 785 393 751 225 q 819 699 821 571 q 806 846 817 786 m 794 903 q 790 907 793 904 q 794 894 792 901 q 794 903 794 899 m 584 709 q 572 716 583 722 q 541 699 555 709 q 538 687 534 694 q 548 684 542 680 q 580 703 564 694 q 583 705 582 703 q 559 675 576 680 q 553 670 553 675 q 500 720 517 696 q 479 791 479 749 q 480 797 479 792 q 490 795 484 793 q 570 844 532 814 q 582 810 577 830 q 492 762 496 764 q 488 752 485 760 q 496 747 490 745 q 585 793 508 751 q 587 762 587 779 q 584 709 589 730 m 498 853 q 549 867 518 887 q 560 857 555 863 q 497 817 531 833 q 490 816 494 818 q 482 811 483 812 q 498 853 486 834 m 608 762 q 604 803 607 785 q 606 810 608 806 q 601 817 605 815 q 585 857 595 840 q 586 858 588 859 q 587 869 592 863 q 576 869 581 874 q 555 887 566 880 q 495 882 524 906 q 461 804 467 859 q 477 716 455 753 q 545 650 495 686 q 559 656 555 642 q 565 656 562 655 q 608 762 610 668 m 563 758 q 511 726 528 732 q 505 716 503 724 q 515 711 507 709 q 571 743 535 718 q 573 755 577 748 q 563 758 569 762 z "}," ":{"ha":345,"x_min":0,"x_max":0,"o":""},"!":{"ha":283,"x_min":-15,"x_max":237,"o":"m 18 286 q 14 325 14 302 q 31 317 18 322 q 39 309 35 315 q 47 302 45 304 q 63 294 67 290 q 66 293 64 293 q 66 247 66 252 q 34 271 56 245 q 18 286 25 280 m 24 214 q 22 237 24 222 q 22 262 22 254 q 67 232 50 231 q 67 178 67 186 q 54 190 59 184 q 38 207 53 194 q 24 214 33 211 m 14 347 q 16 389 16 375 q 26 382 21 385 q 56 366 52 370 q 64 365 60 363 q 66 311 66 311 q 62 312 62 312 q 52 318 54 317 q 50 322 52 319 q 47 325 49 323 q 22 338 22 346 q 14 347 22 347 m 67 969 q 67 904 70 961 q 64 848 67 888 q 62 791 62 812 l 60 585 q 63 380 60 512 q 41 393 57 386 q 25 399 26 398 q 14 411 21 404 q 13 411 14 411 q 12 521 10 448 q 5 627 12 524 q 7 865 -4 733 q 10 918 10 884 q 12 970 10 960 q 12 991 12 985 q 16 990 13 990 q 35 980 24 989 q 53 970 47 972 q 67 969 59 969 m 214 1005 q 140 1000 186 1004 q 68 991 87 993 q 62 986 63 991 q 49 990 56 987 q 49 993 49 991 q 24 1013 43 1006 q 12 1017 10 1017 l 35 1017 q 39 1018 37 1017 q 49 1023 49 1014 q 120 1030 63 1025 q 140 1037 134 1031 q 142 1036 142 1036 q 163 1026 142 1036 q 178 1021 160 1026 q 214 1005 209 1011 q 214 1005 213 1004 m 77 626 q 79 848 77 801 q 83 937 81 872 q 82 969 85 958 q 95 969 91 969 q 102 979 104 969 q 213 990 192 989 q 199 884 212 957 q 186 777 186 817 q 181 672 186 754 q 181 565 177 606 q 181 368 193 418 q 178 321 177 351 q 181 273 181 283 q 167 222 180 255 q 163 198 157 193 q 163 187 157 193 q 123 184 149 187 q 82 182 96 182 q 79 404 82 251 q 77 626 77 549 m -14 684 q -9 629 -14 662 q -4 573 -5 585 q -4 512 -3 551 q -5 452 -7 471 q -1 402 -5 444 q -1 353 2 372 q 3 294 -3 332 q -5 288 -4 296 q 1 279 -7 280 q 5 276 2 277 q 7 260 6 267 q 14 184 10 198 q 24 179 17 178 q 30 189 33 182 q 26 195 28 190 q 37 187 28 194 q 46 176 38 186 q 67 153 67 151 q 75 146 68 146 q 82 153 83 146 l 82 157 q 82 159 82 158 l 82 166 q 125 169 95 166 q 168 172 153 172 q 176 178 174 172 q 171 186 177 184 q 174 187 174 187 q 192 250 182 197 q 196 353 196 265 q 199 380 196 362 q 201 407 201 398 l 201 459 q 197 551 201 528 q 201 777 199 541 q 214 884 203 817 q 228 990 227 957 q 235 1000 237 991 q 199 1030 233 1021 q 164 1043 170 1038 q 155 1048 159 1046 q 149 1051 153 1051 q 142 1058 148 1057 q 134 1053 135 1059 q 102 1046 132 1046 q 71 1042 92 1044 q 42 1038 52 1038 q 34 1031 35 1038 l -5 1031 q -12 1026 -11 1031 q -12 1018 -14 1022 q -11 1014 -12 1015 q -5 920 -5 1005 q -9 867 -5 903 q -12 811 -12 829 q -14 747 -12 798 q -14 684 -15 708 m 46 -86 q 31 -77 42 -83 q 17 -66 21 -70 q 18 -45 17 -68 q 39 -58 17 -43 q 66 -73 57 -70 q 62 -96 62 -96 q 53 -92 60 -95 q 46 -86 47 -87 m 67 -46 q 67 -56 67 -50 q 50 -46 63 -54 q 30 -31 30 -33 q 20 -26 28 -22 q 20 -13 20 -22 q 21 0 21 -5 q 67 -26 50 -24 l 67 -46 m 79 -99 q 77 -100 78 -99 q 79 -73 77 -91 q 81 -62 85 -68 q 82 -34 82 -45 l 82 28 q 119 32 90 28 q 155 35 140 35 q 195 57 186 36 q 197 55 196 55 q 189 45 195 51 q 189 35 184 40 q 200 35 195 29 q 201 36 196 31 q 201 -31 214 19 q 193 -85 196 -62 q 138 -81 149 -87 q 79 -99 148 -87 m 177 66 q 181 64 178 66 l 181 62 q 130 50 177 52 q 82 43 142 50 l 82 47 q 77 54 82 52 q 68 50 71 55 q 64 54 67 51 q 60 60 63 57 q 41 72 52 68 q 39 72 38 73 q 77 81 54 73 q 128 86 90 86 q 177 66 151 86 m 24 62 q 49 48 42 57 q 62 36 57 39 q 67 26 57 26 l 67 -12 q 21 18 59 -9 q 22 40 22 39 q 24 51 22 43 q 24 62 24 58 m 2 -70 q 2 -70 2 -70 q 1 -86 1 -81 q 9 -94 1 -94 q 16 -86 16 -94 l 16 -85 q 33 -95 14 -83 q 70 -125 54 -110 q 81 -125 75 -131 q 81 -114 85 -120 q 79 -114 81 -114 q 79 -113 79 -113 q 83 -114 81 -114 q 116 -99 90 -113 q 142 -100 113 -100 l 201 -100 q 209 -94 209 -100 q 222 -24 209 -96 q 214 44 231 22 q 210 47 213 47 q 213 54 212 50 q 216 60 216 57 l 216 66 q 210 73 216 73 q 200 69 203 75 q 184 80 195 72 q 168 92 172 90 q 135 101 155 100 q 128 106 135 108 l 127 106 q 125 106 125 106 q 124 106 125 106 l 123 105 q 121 104 123 105 q 121 102 121 102 q 121 101 121 102 q 79 98 91 102 q 35 87 49 89 q 28 77 25 87 q 22 79 28 77 q 14 92 20 87 q 3 92 9 97 q 3 81 -3 86 q 5 80 3 81 q 2 71 1 76 q 9 65 3 65 l 10 65 q 9 18 12 51 q 9 11 7 14 q 7 -5 7 0 q 3 -62 7 -17 q 2 -70 -1 -66 z "},"\"":{"ha":487,"x_min":47,"x_max":452,"o":"m 197 946 q 280 896 229 930 q 336 913 312 913 q 441 863 441 913 q 452 851 452 861 l 452 835 q 280 701 308 715 q 174 690 203 701 l 163 707 l 125 701 l 119 701 q 47 718 111 711 l 47 729 l 52 741 q 47 762 47 750 q 97 890 97 861 q 197 946 100 903 m 191 913 l 141 785 l 174 785 q 247 873 182 785 q 191 913 240 889 m 97 790 l 108 790 l 146 885 l 141 885 q 97 790 137 885 m 224 790 l 224 785 l 263 785 q 363 873 317 819 l 363 879 l 358 879 q 247 823 277 879 l 224 790 m 391 879 l 391 873 l 397 863 q 297 762 397 856 l 291 751 l 291 746 l 414 846 q 402 879 402 864 l 391 879 m 208 757 q 197 734 208 749 l 258 734 l 258 757 l 208 757 m 97 751 l 97 746 q 141 734 137 734 l 153 751 l 97 751 z "},"#":{"ha":716,"x_min":60,"x_max":693,"o":"m 315 624 l 315 618 l 326 624 l 338 624 q 393 562 393 578 q 387 513 387 532 l 399 513 l 399 518 q 393 602 399 546 l 410 612 l 488 612 q 504 596 496 612 l 504 590 q 498 507 504 562 l 515 507 q 599 524 572 507 q 632 485 612 524 q 682 379 672 485 q 693 340 693 379 q 648 191 682 191 l 576 191 q 482 62 576 62 q 448 57 482 57 l 427 57 l 404 74 q 293 52 397 62 q 260 102 260 77 l 260 157 l 265 196 l 227 196 q 121 174 193 196 q 71 240 71 183 l 71 245 q 77 252 71 252 q 60 323 60 279 q 121 351 78 349 q 254 346 250 346 l 254 368 q 132 357 233 368 q 77 429 77 372 l 77 463 q 98 485 77 471 l 176 485 l 232 490 q 221 607 221 574 q 315 624 228 618 m 254 585 q 282 485 254 507 l 282 479 q 110 452 282 456 l 110 424 l 204 440 q 282 401 282 440 q 293 390 283 390 q 265 313 288 313 q 115 318 163 318 q 93 313 96 313 q 104 262 93 298 l 149 262 q 293 279 189 262 l 304 262 q 293 135 293 164 l 304 135 l 343 140 q 371 290 343 290 q 432 296 395 290 q 454 279 454 288 l 454 268 q 448 245 454 256 l 454 235 l 443 140 q 504 151 482 140 l 498 218 l 498 268 q 521 285 498 282 q 565 273 557 273 l 576 279 q 599 273 586 273 l 610 273 q 621 285 621 273 l 621 351 q 488 340 522 340 l 476 357 l 476 429 q 488 440 477 440 l 593 440 l 593 485 q 515 473 551 473 l 476 473 l 460 485 q 471 579 471 541 l 427 579 l 432 529 q 376 473 432 473 q 371 468 376 468 l 366 468 q 354 479 354 468 l 343 473 l 326 473 q 310 490 318 473 l 310 551 l 304 590 l 254 585 m 338 579 l 343 551 l 343 507 q 359 562 357 507 l 338 579 m 627 452 l 627 446 q 637 435 628 435 l 637 452 l 627 452 m 332 446 l 338 446 l 359 429 q 443 440 440 440 q 454 407 454 422 l 454 340 q 432 318 454 332 l 387 318 l 332 313 q 315 390 315 335 q 332 446 318 446 m 232 407 l 232 401 l 243 401 l 243 407 l 232 407 m 510 407 l 510 374 l 538 374 l 538 379 q 526 407 526 397 l 510 407 m 559 407 q 571 379 571 389 l 582 379 l 582 396 q 571 407 582 407 l 559 407 m 387 401 l 387 396 q 404 351 404 376 l 420 351 l 420 401 l 387 401 m 132 396 l 132 390 l 154 390 l 154 396 l 132 396 m 349 385 l 349 363 q 359 351 350 351 l 371 351 l 371 363 q 349 385 371 371 m 654 363 l 648 307 l 648 279 l 654 279 l 660 335 l 660 363 l 654 363 m 404 252 l 404 245 q 410 229 410 235 l 415 229 l 415 235 q 410 252 410 245 l 404 252 m 543 245 l 543 240 l 554 218 q 571 224 565 224 l 571 235 q 559 245 571 245 l 543 245 m 637 235 l 637 229 q 648 240 648 229 l 648 245 q 637 235 637 244 m 221 235 l 221 229 l 260 229 q 271 240 271 229 l 249 240 l 221 235 m 110 229 l 110 224 q 115 207 115 212 l 126 207 l 138 212 q 132 229 132 224 l 110 229 m 382 212 l 382 207 q 410 146 410 161 l 399 140 l 393 140 l 376 151 l 371 151 l 371 140 q 404 113 371 134 l 415 113 l 415 163 q 382 212 399 200 m 532 191 l 532 184 l 538 157 l 543 157 l 543 174 q 538 191 538 184 l 532 191 m 443 107 l 427 107 l 427 102 q 443 85 427 97 q 526 118 526 97 l 515 118 q 443 107 465 107 m 293 102 l 304 85 l 371 96 l 371 102 l 343 107 l 293 102 z "},"$":{"ha":1044,"x_min":56,"x_max":981,"o":"m 559 1146 q 668 1061 668 1113 q 678 947 678 1061 q 793 927 774 927 l 802 927 q 867 957 831 927 q 932 907 903 957 q 937 793 932 884 q 957 783 957 793 q 793 718 895 718 l 763 718 q 668 738 709 718 l 668 733 q 683 629 678 629 q 693 624 693 629 l 753 629 l 817 629 q 922 564 869 629 q 937 569 932 569 q 981 360 981 467 l 981 340 q 942 231 981 278 l 947 221 q 812 106 885 177 q 703 81 741 81 l 703 77 l 753 -197 q 584 -247 753 -224 q 519 -222 584 -239 l 514 -212 l 494 26 l 489 26 q 205 -43 245 -43 q 136 -3 170 -16 l 126 -8 l 116 -8 q 61 117 71 -8 q 56 156 56 121 q 465 245 165 176 l 484 245 q 479 251 484 251 l 484 275 l 484 345 l 479 375 q 484 400 484 383 l 484 415 l 435 410 l 429 410 q 420 420 420 410 q 405 415 410 415 q 121 499 121 440 q 86 633 86 526 l 86 639 q 340 942 86 874 q 385 947 367 947 l 484 947 l 450 1097 q 459 1106 459 1097 q 444 1121 452 1106 q 559 1146 444 1135 m 489 1116 q 534 1082 489 1112 l 559 1086 l 604 1086 l 638 1082 q 554 1126 638 1095 q 489 1116 522 1116 m 474 1097 l 474 1091 q 514 1042 474 1054 q 534 1012 534 1022 l 539 1012 l 534 1046 l 534 1067 q 474 1097 513 1067 m 554 1067 q 564 937 564 1001 l 564 922 q 578 888 564 905 l 578 878 l 574 878 q 465 888 486 888 l 459 888 q 216 723 298 888 l 210 673 l 210 554 q 350 439 210 464 l 414 439 l 439 445 l 444 435 q 554 454 452 435 l 559 445 l 559 375 q 574 365 574 375 l 564 350 l 564 245 q 574 196 564 236 q 450 166 565 182 q 186 92 216 106 q 210 -18 191 -18 l 216 -18 q 549 71 465 32 l 564 71 q 574 86 564 86 q 584 77 584 85 l 584 -8 q 589 -28 584 -19 l 584 -38 q 599 -217 599 -181 q 604 -222 604 -217 q 738 -197 734 -197 q 673 102 703 -68 l 683 106 l 738 106 q 832 171 832 126 q 877 221 856 171 l 882 221 l 897 211 l 902 211 q 962 355 962 279 q 892 564 962 519 q 802 609 861 609 q 683 604 793 609 q 648 743 648 638 q 683 753 668 753 q 783 738 726 738 q 917 778 857 738 q 907 892 917 831 l 902 892 q 793 852 850 852 q 733 867 757 859 q 713 863 724 863 q 683 873 696 873 q 668 858 683 865 q 653 892 660 858 l 659 927 q 653 1057 659 940 l 644 1061 l 614 1061 l 554 1067 m 484 1031 q 519 997 486 1017 l 519 1002 q 489 1031 519 1009 l 484 1031 m 499 982 q 509 972 500 972 l 514 972 q 504 982 514 982 l 499 982 m 823 907 q 832 882 832 891 q 897 918 866 886 q 872 932 897 928 q 823 907 833 907 m 106 644 q 176 684 145 653 l 191 673 q 405 903 191 838 q 450 907 423 907 l 489 907 q 484 927 484 916 l 399 927 q 141 783 245 927 q 106 644 106 713 m 504 922 l 504 907 q 534 903 530 903 l 539 903 l 539 907 q 514 922 530 907 l 504 922 m 678 922 l 678 903 l 703 897 l 718 897 l 718 903 q 683 922 708 903 l 678 922 m 768 907 q 798 878 768 901 l 817 878 q 787 907 817 884 l 768 907 m 459 773 q 474 763 474 768 q 489 768 484 768 q 519 763 515 763 q 539 768 528 768 q 544 763 539 763 l 539 713 q 549 569 539 688 l 539 564 q 529 579 529 564 l 524 579 q 444 559 524 559 l 410 559 q 315 614 315 559 l 315 624 q 459 773 315 710 m 340 618 q 359 614 349 614 l 429 614 l 465 618 q 454 713 454 694 q 439 723 439 713 l 450 738 l 439 738 q 340 618 340 699 m 474 713 l 474 708 q 519 733 519 723 l 514 733 q 474 713 474 724 m 131 713 l 165 713 q 176 703 176 712 q 161 688 176 696 l 126 688 q 116 699 116 688 q 131 713 116 705 m 479 688 l 479 678 q 519 699 519 690 l 519 703 q 479 688 486 688 m 479 659 l 479 648 l 484 648 q 514 659 500 659 q 519 654 514 654 l 519 669 q 479 659 481 659 m 106 624 l 106 599 l 121 599 q 186 624 145 599 l 186 663 q 106 624 138 624 m 514 644 q 484 629 514 633 l 484 624 q 524 604 484 616 l 524 633 q 514 644 524 644 m 111 574 l 111 564 q 126 554 111 554 q 186 569 174 569 l 186 599 q 111 574 153 579 m 389 589 l 355 594 l 350 594 l 350 589 q 439 579 391 579 q 509 584 502 584 l 509 589 q 469 599 500 589 q 389 589 423 589 m 121 534 q 235 460 162 460 q 191 549 191 506 q 121 534 140 534 m 678 460 l 693 460 q 798 340 798 460 l 798 330 q 693 251 798 278 l 673 271 l 673 300 q 663 420 673 308 l 663 445 q 678 460 663 452 m 728 435 q 693 415 728 422 l 693 410 l 698 410 q 743 415 725 415 l 748 415 l 748 420 q 728 435 748 427 m 504 390 l 509 390 q 539 410 539 401 l 534 410 q 504 390 504 398 m 723 395 l 723 390 q 738 385 738 390 q 768 390 745 390 l 763 400 q 723 395 743 395 m 683 390 q 693 311 693 368 l 693 300 q 723 326 720 311 q 683 390 716 390 m 504 360 l 504 355 l 539 365 l 539 380 q 504 360 504 368 m 738 365 l 743 330 l 743 315 q 698 281 718 281 l 698 275 l 703 275 q 778 326 766 298 l 778 345 l 772 370 q 738 365 753 365 m 504 335 l 504 326 q 519 315 519 326 q 504 305 519 305 l 504 266 l 499 241 q 544 221 541 221 l 544 345 q 504 335 512 335 m 91 146 l 91 141 q 176 117 104 141 q 529 201 391 176 l 529 206 l 469 226 l 156 151 q 91 146 134 151 m 81 121 l 81 111 q 111 102 111 111 q 86 92 111 92 l 86 86 l 91 77 q 165 92 141 92 l 165 96 q 81 121 99 121 m 96 56 l 96 41 q 106 32 98 32 q 165 47 106 43 l 165 77 q 96 56 131 62 m 519 26 l 519 17 q 559 41 559 35 l 554 41 q 519 26 524 26 m 151 12 q 171 7 162 12 l 171 26 l 165 26 q 151 12 159 26 m 519 -18 l 519 -33 q 564 -23 556 -23 l 564 -8 l 559 -8 q 519 -18 527 -18 m 519 -58 q 524 -73 524 -67 q 564 -53 564 -61 l 564 -43 q 519 -58 519 -53 m 524 -83 l 524 -93 q 529 -108 529 -102 l 569 -108 l 569 -83 l 534 -87 l 524 -83 m 529 -127 l 534 -157 l 544 -153 l 559 -153 q 569 -162 569 -154 q 539 -177 569 -172 q 534 -172 539 -172 l 534 -207 l 559 -212 l 578 -212 q 564 -127 578 -127 l 529 -127 z "},"%":{"ha":595,"x_min":62,"x_max":513,"o":"m 385 603 q 496 497 496 528 l 496 492 q 334 302 399 395 l 334 297 q 423 358 401 358 l 440 358 q 513 264 513 318 l 513 253 q 396 114 513 160 l 340 114 q 290 225 290 114 l 285 225 q 212 97 232 109 l 207 97 q 134 158 134 132 q 123 192 134 168 q 207 330 133 225 q 357 591 336 591 q 385 603 371 591 m 162 597 q 240 503 240 597 q 179 392 240 403 q 62 475 62 404 l 62 503 q 123 591 79 591 q 162 597 146 597 m 174 225 l 174 220 q 196 208 182 220 l 201 208 q 418 536 288 372 l 418 542 q 374 570 403 542 q 184 241 195 243 l 174 225 m 113 553 q 157 464 113 464 l 184 464 q 207 486 193 464 l 207 519 q 162 564 207 564 l 146 564 q 113 553 130 564 m 323 353 l 323 347 q 457 497 403 441 q 451 514 451 509 l 446 514 q 323 353 368 425 m 129 436 l 129 431 l 146 431 l 146 436 l 129 436 m 157 431 l 157 425 l 184 425 l 184 431 l 157 431 m 307 330 q 285 292 307 319 l 285 286 l 290 286 q 313 325 290 297 l 313 330 l 307 330 m 374 208 l 374 197 q 385 186 375 186 l 401 186 q 479 241 479 212 l 479 269 q 423 314 479 314 q 374 208 382 314 m 268 269 q 262 253 268 264 l 262 248 l 268 248 q 273 264 268 253 l 273 269 l 268 269 m 323 203 l 323 175 q 379 142 323 142 l 401 147 l 401 153 q 340 197 340 153 l 340 220 l 346 258 q 323 203 330 258 m 245 231 q 218 175 245 222 l 218 170 l 224 170 q 252 225 224 182 l 252 231 l 245 231 m 162 192 l 162 186 q 184 147 171 147 l 184 170 q 162 192 184 178 z "},"&":{"ha":587,"x_min":24,"x_max":557,"o":"m 291 814 q 425 742 338 814 q 452 642 452 692 l 452 614 q 425 509 452 571 q 452 425 452 457 l 513 481 l 519 481 q 557 380 532 478 q 475 325 524 325 q 508 203 475 314 l 508 180 q 480 119 490 129 l 441 109 q 369 180 369 109 l 352 253 l 347 253 q 208 153 277 153 l 163 153 q 24 275 69 153 l 24 330 q 124 509 24 436 q 202 542 191 542 q 152 653 152 607 l 152 692 q 230 781 163 781 q 291 814 238 800 m 219 692 l 219 653 q 275 558 219 629 l 269 547 l 275 519 q 235 503 258 509 l 202 509 l 197 509 q 113 325 113 450 q 214 225 132 225 q 308 264 262 225 q 363 314 316 264 l 380 314 q 435 175 401 302 q 475 197 475 189 l 475 208 q 435 342 435 319 q 524 380 444 349 l 524 386 q 508 431 508 418 q 435 380 459 380 q 402 486 427 380 q 391 497 391 486 l 419 603 l 419 642 q 324 764 419 742 q 286 781 324 777 q 219 692 219 737 m 319 692 l 324 692 q 369 647 369 692 l 369 642 q 313 603 344 603 l 296 603 q 269 647 269 616 l 269 664 q 319 692 291 692 m 308 659 l 302 636 l 319 636 q 336 653 327 636 l 336 659 l 308 659 m 202 603 l 202 591 l 241 547 q 208 603 208 595 l 202 603 m 275 492 q 324 441 324 492 q 341 408 341 436 l 341 364 q 308 302 341 321 l 269 302 q 169 370 169 309 l 169 419 q 275 492 169 473 m 235 453 l 235 447 l 286 447 l 286 458 l 263 458 l 235 453 m 96 447 q 58 342 58 366 l 58 281 q 191 180 90 180 l 197 180 l 230 186 l 230 192 q 80 309 113 192 l 80 325 q 102 441 80 353 l 102 447 l 96 447 m 197 386 q 258 336 197 336 l 296 336 q 308 347 308 336 l 308 358 q 280 414 292 407 l 252 414 q 197 386 233 414 z "},"'":{"ha":272,"x_min":3,"x_max":242,"o":"m 128 1099 q 163 1090 163 1097 l 163 1088 l 161 1082 q 218 1015 196 1067 q 242 906 242 939 l 242 887 q 199 694 242 768 q 115 673 156 673 l 106 673 q 3 735 61 673 l 3 738 q 71 781 3 754 q 112 841 109 814 l 112 863 q 47 871 109 863 l 39 871 q 14 909 39 876 l 12 928 l 12 958 q 90 1085 12 1025 q 128 1099 115 1099 m 68 1050 l 77 1050 q 112 1080 101 1080 l 112 1082 l 109 1082 q 68 1050 88 1074 m 58 941 q 85 903 63 903 q 93 906 90 906 q 106 895 94 901 q 112 901 107 901 l 120 895 l 153 895 q 163 884 157 895 l 163 841 q 77 724 163 771 q 155 703 104 703 l 177 703 l 188 711 l 193 708 q 231 898 231 778 q 193 1039 231 952 q 142 1077 163 1077 l 139 1077 q 58 952 81 1077 l 58 941 m 58 1042 l 44 1020 l 50 1020 l 55 1023 q 66 1020 60 1020 l 71 1036 q 58 1042 62 1042 m 36 1009 q 22 952 22 979 l 22 947 l 41 944 q 47 949 47 944 l 47 968 q 28 977 28 968 l 31 982 l 44 979 q 58 1009 53 979 l 36 1009 m 22 936 l 22 933 q 28 911 22 922 q 50 917 45 917 l 52 911 q 33 901 52 905 l 50 884 q 71 892 65 892 l 71 898 q 47 933 56 898 l 28 933 l 22 936 m 90 879 l 90 876 l 101 876 l 109 882 l 128 879 l 131 884 l 117 884 q 90 879 112 884 m 147 884 q 123 863 147 878 l 123 852 q 153 846 126 852 l 153 879 q 147 884 153 884 m 123 841 q 120 827 123 832 q 150 822 124 825 q 153 838 150 824 l 150 838 l 144 836 q 123 841 140 836 m 115 817 q 104 795 115 813 l 131 795 l 139 789 q 144 811 144 803 q 115 817 119 814 m 25 749 l 25 743 q 68 732 31 743 q 104 757 68 736 q 77 765 77 760 q 82 770 77 770 l 104 770 l 115 762 l 131 784 l 93 784 q 25 749 73 766 m 22 732 q 104 684 72 684 l 106 684 q 153 686 121 684 q 93 700 153 690 q 22 732 58 728 z "},"(":{"ha":451,"x_min":20,"x_max":409,"o":"m 309 730 q 398 631 347 713 l 409 591 l 409 586 q 226 403 291 465 q 210 297 210 361 q 254 153 210 193 q 248 136 248 142 q 348 41 345 62 l 348 20 q 292 -14 319 -14 l 215 -14 q 115 75 162 -14 q 20 269 20 168 l 20 314 q 287 725 20 607 q 309 730 297 730 m 54 325 l 54 269 q 154 75 54 178 q 237 14 183 14 l 254 14 l 254 25 q 154 153 193 50 q 120 292 120 237 l 120 342 q 203 503 120 427 q 337 625 203 519 l 337 631 q 292 692 308 631 q 126 564 240 692 q 54 325 54 439 m 154 342 l 154 258 l 159 258 q 176 264 170 264 l 176 292 q 254 469 176 435 q 376 597 255 479 l 376 603 l 365 603 q 154 342 154 452 m 176 231 q 165 214 176 214 q 182 192 173 192 l 187 203 l 187 231 l 176 231 m 187 158 q 193 142 193 147 l 203 142 l 203 164 l 198 164 l 187 158 m 210 114 q 215 97 215 103 l 237 97 q 226 119 226 111 q 210 114 215 114 m 254 64 q 304 36 254 47 l 304 41 q 271 75 300 61 l 264 75 q 254 64 254 74 z "},")":{"ha":369,"x_min":-1,"x_max":338,"o":"m 138 697 q 277 570 191 697 q 338 380 338 437 q 249 53 338 265 q 77 -103 218 -4 q -1 -20 65 -102 l -1 -8 q 82 25 -1 7 l 77 36 l 77 47 q 143 292 143 135 l 143 336 q 32 509 100 509 q 9 558 9 533 q 98 664 37 642 l 138 697 m 87 575 q 210 292 210 513 l 210 241 q 82 -14 210 61 l 82 -20 q 98 -36 98 -20 l 110 -36 q 243 125 215 26 q 304 375 304 285 l 304 392 q 237 575 304 433 q 143 659 168 659 q 87 575 134 656 m 54 542 l 54 536 q 110 497 71 536 q 121 509 121 497 l 82 542 l 54 542 m 126 475 l 126 469 q 138 458 127 458 l 149 458 l 149 464 q 138 475 149 475 l 126 475 m 154 419 q 160 403 160 408 l 171 403 q 165 419 165 414 l 154 419 m 171 236 q 143 97 171 174 l 143 92 l 149 92 q 176 220 176 150 l 176 236 l 171 236 z "},"*":{"ha":615,"x_min":56,"x_max":540,"o":"m 295 1129 q 406 1101 406 1129 l 373 1013 l 378 1013 q 473 1063 458 1063 q 540 940 528 1004 q 528 929 528 939 l 479 935 q 429 924 470 935 l 429 918 q 523 857 499 882 l 523 840 q 467 774 496 811 l 473 741 q 445 729 455 729 l 423 734 q 401 729 413 729 q 384 762 384 747 l 378 762 q 356 624 378 624 q 334 618 344 624 q 245 673 245 618 l 245 690 q 273 701 245 701 l 273 713 l 279 751 q 168 690 201 690 q 95 785 130 690 q 184 868 95 802 l 128 868 l 95 863 q 56 901 70 863 q 67 935 67 920 l 67 985 q 195 1013 67 993 q 162 1068 195 1018 l 162 1084 q 239 1118 162 1095 l 245 1118 q 284 1063 280 1063 l 284 1079 l 279 1118 l 295 1129 m 317 1096 l 317 1007 q 307 996 317 996 l 300 996 q 229 1079 267 1022 l 223 1079 q 201 1063 201 1071 l 267 968 l 267 962 q 251 946 267 954 q 190 974 214 974 q 101 962 159 974 l 101 924 l 256 924 q 273 907 264 924 l 273 896 q 151 802 270 884 l 145 790 q 173 762 168 762 q 307 857 288 857 q 317 807 317 838 q 307 690 317 804 l 317 685 l 345 685 l 345 802 q 340 851 345 821 q 356 873 348 873 l 368 873 q 445 802 376 873 q 484 846 450 802 l 484 851 q 368 918 374 909 l 368 929 q 495 974 368 942 q 462 1023 480 1011 q 356 968 373 968 l 351 968 q 340 979 340 968 l 340 996 q 368 1090 340 1018 l 356 1090 l 317 1096 m 378 818 l 378 807 l 390 807 q 378 818 390 818 m 184 729 l 190 729 q 267 779 260 779 q 284 762 267 771 l 284 807 l 184 729 m 412 785 l 412 774 q 423 762 413 762 l 423 774 q 412 785 423 785 z "},"+":{"ha":583,"x_min":73,"x_max":446,"o":"m 334 672 q 345 639 345 654 l 345 600 q 362 500 345 500 q 423 505 399 505 l 429 505 l 446 494 l 440 456 l 440 383 q 423 350 440 354 l 345 350 l 351 283 q 273 239 313 239 q 218 228 231 228 q 195 244 195 236 l 195 334 l 201 345 l 151 345 q 106 334 145 345 q 73 461 89 334 q 112 478 94 478 l 201 478 q 179 628 179 611 q 334 672 208 644 m 251 611 l 251 494 l 256 467 l 218 444 l 118 444 l 118 416 q 129 406 119 406 l 240 422 l 245 422 q 262 406 254 422 l 262 300 q 317 311 280 311 q 307 400 312 317 q 323 422 315 422 q 407 416 379 416 l 407 472 l 340 467 q 307 633 319 467 q 251 611 251 623 m 218 589 l 218 572 l 223 572 l 223 589 l 218 589 m 190 383 l 190 378 l 229 378 l 229 389 l 190 383 m 340 389 l 340 378 l 345 378 q 362 383 357 383 l 362 389 l 340 389 m 229 283 l 229 261 l 240 261 l 240 267 q 235 283 235 278 l 229 283 z "},",":{"ha":316,"x_min":13,"x_max":252,"o":"m 138 260 q 173 252 173 259 l 173 250 l 170 244 q 227 176 205 229 q 252 68 252 100 l 252 49 q 208 -144 252 -71 q 124 -165 165 -165 l 116 -165 q 13 -103 71 -165 l 13 -100 q 81 -57 13 -84 q 121 3 119 -24 l 121 24 q 56 33 118 24 l 48 33 q 24 71 48 38 l 21 90 l 21 119 q 100 247 21 186 q 138 260 125 260 m 78 212 l 86 212 q 121 241 111 241 l 121 244 l 119 244 q 78 212 98 236 m 67 103 q 94 65 73 65 q 102 68 100 68 q 116 57 104 62 q 121 62 117 62 l 130 57 l 162 57 q 173 46 166 57 l 173 3 q 86 -114 173 -67 q 165 -136 114 -136 l 186 -136 l 197 -127 l 203 -130 q 241 60 241 -60 q 203 201 241 114 q 151 239 172 239 l 149 239 q 67 114 91 239 l 67 103 m 67 203 l 54 182 l 59 182 l 64 184 q 75 182 69 182 l 81 198 q 67 203 72 203 m 45 171 q 32 114 32 141 l 32 109 l 51 106 q 56 111 56 106 l 56 130 q 37 138 37 130 l 40 144 l 54 141 q 67 171 62 141 l 45 171 m 32 98 l 32 95 q 37 73 32 83 q 59 79 54 79 l 62 73 q 43 62 62 66 l 59 46 q 81 54 75 54 l 81 60 q 56 95 65 60 l 37 95 l 32 98 m 100 41 l 100 38 l 111 38 l 119 43 l 138 41 l 140 46 l 127 46 q 100 41 121 46 m 157 46 q 132 24 157 39 l 132 14 q 162 8 136 14 l 162 41 q 157 46 162 46 m 132 3 q 130 -11 132 -6 q 159 -16 134 -14 q 162 0 159 -14 l 159 0 l 154 -3 q 132 3 149 -3 m 124 -22 q 113 -43 124 -25 l 140 -43 l 149 -49 q 154 -27 154 -35 q 124 -22 128 -24 m 35 -90 l 35 -95 q 78 -106 40 -95 q 113 -81 78 -102 q 86 -73 86 -79 q 92 -68 87 -68 l 113 -68 l 124 -76 l 140 -54 l 102 -54 q 35 -90 82 -72 m 32 -106 q 113 -155 81 -155 l 116 -155 q 162 -152 130 -155 q 102 -138 162 -149 q 32 -106 68 -111 z "},"-":{"ha":671,"x_min":11,"x_max":606,"o":"m 557 411 q 553 415 555 414 q 557 439 555 428 q 558 456 558 444 q 559 473 558 468 q 564 489 562 496 q 564 490 564 486 q 568 489 566 489 q 570 486 569 486 l 583 485 q 586 485 585 485 q 587 481 586 481 q 585 415 587 489 q 587 366 585 431 q 558 404 559 403 q 557 411 559 408 m 589 343 q 590 342 589 343 q 590 342 590 340 l 566 343 q 545 340 559 345 q 541 353 549 335 q 532 375 534 370 q 519 399 521 399 q 533 399 524 399 q 547 397 541 397 q 550 393 547 393 q 569 370 558 389 q 589 343 583 347 m 536 338 q 529 336 530 336 q 477 335 505 335 q 476 338 477 336 q 454 383 458 372 q 441 403 448 397 q 480 401 487 401 q 480 387 472 392 q 486 376 481 387 q 489 371 486 375 q 490 366 490 367 q 504 340 486 375 q 511 340 507 335 q 511 350 513 345 q 496 380 496 380 q 487 400 490 397 l 497 400 q 507 400 503 400 q 509 390 504 392 q 521 372 513 389 q 530 350 530 349 q 536 338 529 354 m 460 336 q 425 342 444 338 q 415 368 420 346 q 398 406 414 376 q 430 404 436 404 q 433 390 425 392 q 450 367 440 389 q 465 336 454 357 l 460 336 m 153 375 q 114 376 142 376 q 76 376 90 375 q 39 386 41 379 q 28 435 31 408 q 36 433 31 433 l 280 414 q 390 406 325 410 q 390 397 387 401 l 403 371 q 411 350 406 367 q 412 345 411 347 q 313 368 319 368 q 153 375 323 367 m 540 510 q 483 511 522 511 q 425 514 444 511 q 361 515 404 515 q 296 518 318 517 q 244 518 276 519 q 191 515 204 515 q 125 514 114 515 q 45 522 96 518 l 39 522 q 35 517 36 522 q 36 509 33 511 q 26 486 28 489 q 20 479 31 493 q 18 471 22 481 q 12 456 12 457 q 15 446 11 449 q 18 440 15 441 q 36 367 19 393 q 50 361 39 361 q 90 359 96 359 q 180 358 121 357 q 272 355 241 358 q 419 328 329 351 q 425 323 422 323 q 429 325 427 322 q 433 323 430 325 q 437 323 436 323 q 543 322 468 315 q 549 318 545 319 q 550 318 550 318 q 554 323 553 318 q 600 325 581 326 q 604 332 604 325 l 604 338 q 600 346 606 346 l 595 346 q 595 349 595 349 q 595 392 597 364 q 594 435 594 419 q 594 496 597 488 q 587 498 591 504 q 585 500 586 500 q 569 504 579 501 q 554 509 559 509 q 549 501 550 509 l 549 496 q 551 488 549 490 q 553 485 551 486 q 550 468 550 478 q 549 447 550 473 q 543 419 549 436 q 541 418 541 419 l 540 418 q 540 416 540 418 l 538 416 q 538 415 538 416 q 538 414 538 414 q 280 429 401 419 q 22 454 58 447 q 24 460 22 457 q 26 465 26 464 q 32 473 28 468 q 39 490 35 479 q 47 505 44 501 q 183 498 158 496 q 296 503 243 507 q 355 500 315 500 q 416 498 395 500 q 480 496 437 496 q 544 493 522 494 q 549 501 549 493 l 550 505 q 545 514 550 513 q 540 510 541 515 z "},"":{"ha":671,"x_min":11,"x_max":606,"o":"m 557 411 q 553 415 555 414 q 557 439 555 428 q 558 456 558 444 q 559 473 558 468 q 564 489 562 496 q 564 490 564 486 q 568 489 566 489 q 570 486 569 486 l 583 485 q 586 485 585 485 q 587 481 586 481 q 585 415 587 489 q 587 366 585 431 q 558 404 559 403 q 557 411 559 408 m 589 343 q 590 342 589 343 q 590 342 590 340 l 566 343 q 545 340 559 345 q 541 353 549 335 q 532 375 534 370 q 519 399 521 399 q 533 399 524 399 q 547 397 541 397 q 550 393 547 393 q 569 370 558 389 q 589 343 583 347 m 536 338 q 529 336 530 336 q 477 335 505 335 q 476 338 477 336 q 454 383 458 372 q 441 403 448 397 q 480 401 487 401 q 480 387 472 392 q 486 376 481 387 q 489 371 486 375 q 490 366 490 367 q 504 340 486 375 q 511 340 507 335 q 511 350 513 345 q 496 380 496 380 q 487 400 490 397 l 497 400 q 507 400 503 400 q 509 390 504 392 q 521 372 513 389 q 530 350 530 349 q 536 338 529 354 m 460 336 q 425 342 444 338 q 415 368 420 346 q 398 406 414 376 q 430 404 436 404 q 433 390 425 392 q 450 367 440 389 q 465 336 454 357 l 460 336 m 153 375 q 114 376 142 376 q 76 376 90 375 q 39 386 41 379 q 28 435 31 408 q 36 433 31 433 l 280 414 q 390 406 325 410 q 390 397 387 401 l 403 371 q 411 350 406 367 q 412 345 411 347 q 313 368 319 368 q 153 375 323 367 m 540 510 q 483 511 522 511 q 425 514 444 511 q 361 515 404 515 q 296 518 318 517 q 244 518 276 519 q 191 515 204 515 q 125 514 114 515 q 45 522 96 518 l 39 522 q 35 517 36 522 q 36 509 33 511 q 26 486 28 489 q 20 479 31 493 q 18 471 22 481 q 12 456 12 457 q 15 446 11 449 q 18 440 15 441 q 36 367 19 393 q 50 361 39 361 q 90 359 96 359 q 180 358 121 357 q 272 355 241 358 q 419 328 329 351 q 425 323 422 323 q 429 325 427 322 q 433 323 430 325 q 437 323 436 323 q 543 322 468 315 q 549 318 545 319 q 550 318 550 318 q 554 323 553 318 q 600 325 581 326 q 604 332 604 325 l 604 338 q 600 346 606 346 l 595 346 q 595 349 595 349 q 595 392 597 364 q 594 435 594 419 q 594 496 597 488 q 587 498 591 504 q 585 500 586 500 q 569 504 579 501 q 554 509 559 509 q 549 501 550 509 l 549 496 q 551 488 549 490 q 553 485 551 486 q 550 468 550 478 q 549 447 550 473 q 543 419 549 436 q 541 418 541 419 l 540 418 q 540 416 540 418 l 538 416 q 538 415 538 416 q 538 414 538 414 q 280 429 401 419 q 22 454 58 447 q 24 460 22 457 q 26 465 26 464 q 32 473 28 468 q 39 490 35 479 q 47 505 44 501 q 183 498 158 496 q 296 503 243 507 q 355 500 315 500 q 416 498 395 500 q 480 496 437 496 q 544 493 522 494 q 549 501 549 493 l 550 505 q 545 514 550 513 q 540 510 541 515 z "},".":{"ha":304,"x_min":-4,"x_max":208,"o":"m 104 269 l 170 269 q 208 201 196 269 l 208 182 q 151 5 208 38 l 121 5 q 96 11 114 5 q 83 5 87 5 q 1 49 12 5 l 1 76 l -4 84 l 1 92 l 1 98 q 91 266 1 193 q 104 269 96 269 m 15 125 l 28 125 l 47 122 q 110 250 47 178 q 121 258 121 254 l 104 258 q 18 141 68 258 q 15 125 15 127 m 153 258 l 156 252 q 151 247 156 247 l 137 250 q 61 136 99 250 q 56 95 56 110 l 56 84 q 115 16 56 47 l 134 16 q 191 119 180 16 q 197 190 197 164 q 172 258 197 228 l 153 258 m 12 114 l 12 92 q 18 87 13 87 l 45 87 l 42 92 l 45 109 l 45 111 l 42 111 q 12 114 18 114 m 12 76 l 12 65 l 15 65 q 47 62 43 62 l 47 65 l 45 76 l 12 76 m 12 54 q 18 38 18 43 l 37 38 l 64 41 q 53 52 64 45 l 39 52 l 12 54 m 31 27 l 31 24 q 56 19 49 19 l 83 19 l 75 30 q 31 27 54 27 z "},"/":{"ha":526,"x_min":-33,"x_max":585,"o":"m 567 960 q 574 916 585 943 l 514 760 q 432 612 452 663 l 408 550 q 292 232 351 401 q 207 45 227 93 q 117 -4 135 11 q 64 28 61 21 q -33 102 -33 65 q 214 632 132 467 q 309 893 265 779 q 400 977 314 908 q 519 978 417 1018 l 567 960 m 477 958 l 449 962 q 262 589 314 722 l 211 454 q 70 134 89 183 l 66 127 q 180 66 93 118 l 262 249 q 396 608 332 446 l 397 614 q 463 750 403 628 l 469 771 l 486 782 l 545 932 l 477 958 m 376 914 q 338 875 342 888 l 274 710 l 279 707 q 370 880 296 753 l 382 913 l 376 914 m 195 519 l 178 478 l 183 476 l 200 518 l 195 519 m 135 382 l 98 313 l 102 311 l 114 313 q 111 319 117 318 l 127 343 l 140 379 l 135 382 m 94 278 q 81 272 85 282 l 61 220 l 71 215 l 94 278 m 47 171 q 26 161 29 170 l 18 142 l 24 139 q 37 146 32 136 l 47 171 m 46 106 q 16 89 39 110 l 14 83 l 29 78 q 62 87 53 92 l 66 98 l 46 106 m 144 50 q 125 64 132 56 l 103 36 l 109 35 q 144 50 142 45 z "},":":{"ha":362,"x_min":11,"x_max":248,"o":"m 119 770 l 184 770 q 222 703 211 770 l 222 684 q 165 507 222 540 l 136 507 q 111 513 129 507 q 98 507 102 507 q 16 551 27 507 l 16 578 l 11 586 l 16 594 l 16 600 q 106 768 16 695 q 119 770 111 770 m 30 627 l 43 627 l 62 624 q 125 751 62 680 q 136 760 136 755 l 119 760 q 33 643 83 760 q 30 627 30 629 m 168 760 l 171 754 q 165 749 171 749 l 152 751 q 76 637 114 751 q 71 597 71 612 l 71 586 q 130 518 71 549 l 149 518 q 206 621 195 518 q 212 692 212 666 q 187 760 212 730 l 168 760 m 27 616 l 27 594 q 33 589 28 589 l 60 589 l 57 594 l 60 610 l 60 613 l 57 613 q 27 616 33 616 m 27 578 l 27 567 l 30 567 q 62 564 58 564 l 62 567 l 60 578 l 27 578 m 27 556 q 33 540 33 545 l 52 540 l 79 543 q 68 553 79 547 l 54 553 l 27 556 m 46 529 l 46 526 q 71 521 64 521 l 98 521 l 90 532 q 46 529 68 529 m 144 356 l 210 356 q 248 288 236 356 l 248 269 q 191 93 248 125 l 161 93 q 136 98 154 93 q 123 93 127 93 q 41 136 52 93 l 41 163 l 36 172 l 41 180 l 41 185 q 131 353 41 281 q 144 356 136 356 m 55 212 l 68 212 l 87 210 q 150 337 87 265 q 161 345 161 341 l 144 345 q 58 229 108 345 q 55 212 55 214 m 193 345 l 196 340 q 191 334 196 334 l 177 337 q 101 223 139 337 q 96 182 96 197 l 96 172 q 155 104 96 134 l 174 104 q 231 207 220 104 q 237 277 237 252 q 212 345 237 315 l 193 345 m 52 201 l 52 180 q 58 174 53 174 l 85 174 l 82 180 l 85 196 l 85 199 l 82 199 q 52 201 58 201 m 52 163 l 52 153 l 55 153 q 87 150 83 150 l 87 153 l 85 163 l 52 163 m 52 142 q 58 125 58 131 l 77 125 l 104 128 q 93 139 104 132 l 79 139 l 52 142 m 71 115 l 71 112 q 96 106 89 106 l 123 106 l 115 117 q 71 115 94 115 z "},";":{"ha":325,"x_min":16,"x_max":254,"o":"m 135 605 l 200 605 q 238 537 227 605 l 238 518 q 181 342 238 374 l 151 342 q 127 347 144 342 q 113 342 118 342 q 32 385 43 342 l 32 412 l 26 420 l 32 429 l 32 434 q 121 602 32 530 q 135 605 126 605 m 45 461 l 59 461 l 78 458 q 140 586 78 514 q 151 594 151 590 l 135 594 q 48 477 98 594 q 45 461 45 463 m 184 594 l 186 589 q 181 583 186 583 l 168 586 q 92 472 130 586 q 86 431 86 446 l 86 420 q 146 353 86 383 l 165 353 q 222 456 210 353 q 227 526 227 500 q 203 594 227 564 l 184 594 m 43 450 l 43 429 q 48 423 43 423 l 75 423 l 73 429 l 75 445 l 75 448 l 73 448 q 43 450 49 450 m 43 412 l 43 401 l 45 401 q 78 399 74 399 l 78 401 l 75 412 l 43 412 m 43 391 q 48 374 48 380 l 67 374 l 94 377 q 83 388 94 381 l 70 388 l 43 391 m 62 363 l 62 361 q 86 355 79 355 l 113 355 l 105 366 q 62 363 84 363 m 140 260 q 176 252 176 259 l 176 250 l 173 244 q 230 176 208 229 q 254 68 254 100 l 254 49 q 211 -144 254 -71 q 127 -165 168 -165 l 119 -165 q 16 -103 73 -165 l 16 -100 q 83 -57 16 -84 q 124 3 121 -24 l 124 24 q 59 33 121 24 l 51 33 q 26 71 51 38 l 24 90 l 24 119 q 102 247 24 186 q 140 260 127 260 m 81 212 l 89 212 q 124 241 113 241 l 124 244 l 121 244 q 81 212 100 236 m 70 103 q 97 65 75 65 q 105 68 102 68 q 119 57 106 62 q 124 62 119 62 l 132 57 l 165 57 q 176 46 169 57 l 176 3 q 89 -114 176 -67 q 168 -136 117 -136 l 189 -136 l 200 -127 l 205 -130 q 243 60 243 -60 q 205 201 243 114 q 154 239 175 239 l 151 239 q 70 114 94 239 l 70 103 m 70 203 l 56 182 l 62 182 l 67 184 q 78 182 72 182 l 83 198 q 70 203 75 203 m 48 171 q 35 114 35 141 l 35 109 l 54 106 q 59 111 59 106 l 59 130 q 40 138 40 130 l 43 144 l 56 141 q 70 171 65 141 l 48 171 m 35 98 l 35 95 q 40 73 35 83 q 62 79 57 79 l 64 73 q 45 62 64 66 l 62 46 q 83 54 77 54 l 83 60 q 59 95 68 60 l 40 95 l 35 98 m 102 41 l 102 38 l 113 38 l 121 43 l 140 41 l 143 46 l 130 46 q 102 41 124 46 m 159 46 q 135 24 159 39 l 135 14 q 165 8 138 14 l 165 41 q 159 46 165 46 m 135 3 q 132 -11 135 -6 q 162 -16 136 -14 q 165 0 162 -14 l 162 0 l 157 -3 q 135 3 152 -3 m 127 -22 q 116 -43 127 -25 l 143 -43 l 151 -49 q 157 -27 157 -35 q 127 -22 131 -24 m 37 -90 l 37 -95 q 81 -106 43 -95 q 116 -81 81 -102 q 89 -73 89 -79 q 94 -68 90 -68 l 116 -68 l 127 -76 l 143 -54 l 105 -54 q 37 -90 85 -72 m 35 -106 q 116 -155 84 -155 l 119 -155 q 165 -152 133 -155 q 105 -138 165 -149 q 35 -106 71 -111 z "},"":{"ha":325,"x_min":16,"x_max":254,"o":"m 135 605 l 200 605 q 238 537 227 605 l 238 518 q 181 342 238 374 l 151 342 q 127 347 144 342 q 113 342 118 342 q 32 385 43 342 l 32 412 l 26 420 l 32 429 l 32 434 q 121 602 32 530 q 135 605 126 605 m 45 461 l 59 461 l 78 458 q 140 586 78 514 q 151 594 151 590 l 135 594 q 48 477 98 594 q 45 461 45 463 m 184 594 l 186 589 q 181 583 186 583 l 168 586 q 92 472 130 586 q 86 431 86 446 l 86 420 q 146 353 86 383 l 165 353 q 222 456 210 353 q 227 526 227 500 q 203 594 227 564 l 184 594 m 43 450 l 43 429 q 48 423 43 423 l 75 423 l 73 429 l 75 445 l 75 448 l 73 448 q 43 450 49 450 m 43 412 l 43 401 l 45 401 q 78 399 74 399 l 78 401 l 75 412 l 43 412 m 43 391 q 48 374 48 380 l 67 374 l 94 377 q 83 388 94 381 l 70 388 l 43 391 m 62 363 l 62 361 q 86 355 79 355 l 113 355 l 105 366 q 62 363 84 363 m 140 260 q 176 252 176 259 l 176 250 l 173 244 q 230 176 208 229 q 254 68 254 100 l 254 49 q 211 -144 254 -71 q 127 -165 168 -165 l 119 -165 q 16 -103 73 -165 l 16 -100 q 83 -57 16 -84 q 124 3 121 -24 l 124 24 q 59 33 121 24 l 51 33 q 26 71 51 38 l 24 90 l 24 119 q 102 247 24 186 q 140 260 127 260 m 81 212 l 89 212 q 124 241 113 241 l 124 244 l 121 244 q 81 212 100 236 m 70 103 q 97 65 75 65 q 105 68 102 68 q 119 57 106 62 q 124 62 119 62 l 132 57 l 165 57 q 176 46 169 57 l 176 3 q 89 -114 176 -67 q 168 -136 117 -136 l 189 -136 l 200 -127 l 205 -130 q 243 60 243 -60 q 205 201 243 114 q 154 239 175 239 l 151 239 q 70 114 94 239 l 70 103 m 70 203 l 56 182 l 62 182 l 67 184 q 78 182 72 182 l 83 198 q 70 203 75 203 m 48 171 q 35 114 35 141 l 35 109 l 54 106 q 59 111 59 106 l 59 130 q 40 138 40 130 l 43 144 l 56 141 q 70 171 65 141 l 48 171 m 35 98 l 35 95 q 40 73 35 83 q 62 79 57 79 l 64 73 q 45 62 64 66 l 62 46 q 83 54 77 54 l 83 60 q 59 95 68 60 l 40 95 l 35 98 m 102 41 l 102 38 l 113 38 l 121 43 l 140 41 l 143 46 l 130 46 q 102 41 124 46 m 159 46 q 135 24 159 39 l 135 14 q 165 8 138 14 l 165 41 q 159 46 165 46 m 135 3 q 132 -11 135 -6 q 162 -16 136 -14 q 165 0 162 -14 l 162 0 l 157 -3 q 135 3 152 -3 m 127 -22 q 116 -43 127 -25 l 143 -43 l 151 -49 q 157 -27 157 -35 q 127 -22 131 -24 m 37 -90 l 37 -95 q 81 -106 43 -95 q 116 -81 81 -102 q 89 -73 89 -79 q 94 -68 90 -68 l 116 -68 l 127 -76 l 143 -54 l 105 -54 q 37 -90 85 -72 m 35 -106 q 116 -155 84 -155 l 119 -155 q 165 -152 133 -155 q 105 -138 165 -149 q 35 -106 71 -111 z "},"<":{"ha":650,"x_min":81,"x_max":526,"o":"m 459 625 q 476 581 476 623 l 476 431 l 481 392 q 448 353 448 382 q 437 330 448 345 l 370 336 l 326 336 l 287 330 q 492 186 316 290 q 526 136 526 158 q 509 81 515 136 q 393 -20 471 61 l 381 -20 q 193 192 313 24 q 81 347 157 256 l 81 353 q 137 453 81 453 l 454 625 l 459 625 m 120 414 q 215 314 215 347 l 337 170 q 376 131 370 131 l 393 142 l 398 142 q 415 114 415 142 q 470 153 459 153 l 470 164 q 203 370 309 248 l 203 380 q 381 419 203 399 l 442 419 l 442 586 q 120 414 153 414 m 248 370 q 271 347 248 361 q 337 370 271 370 l 420 370 l 420 386 l 387 386 q 248 370 260 370 m 115 370 l 115 353 q 215 208 201 260 l 220 208 q 237 231 229 208 q 126 370 176 334 l 115 370 m 259 208 q 248 180 259 180 q 254 164 254 170 l 264 164 q 276 192 264 174 q 264 208 264 192 l 259 208 m 287 136 l 287 131 l 292 131 q 304 164 292 135 q 287 136 294 164 m 326 131 q 304 97 326 125 q 365 36 358 36 l 370 47 l 370 53 l 365 81 l 342 64 q 326 81 334 64 q 337 125 337 122 l 326 131 m 398 31 l 481 109 l 481 119 l 476 119 q 398 31 398 74 z "},"=":{"ha":875,"x_min":130,"x_max":740,"o":"m 690 364 q 686 368 688 367 q 691 396 688 383 q 691 416 691 403 q 692 439 691 432 q 697 457 696 464 q 697 458 697 453 q 701 457 700 457 q 705 453 703 453 l 718 452 q 719 453 719 452 q 722 446 720 447 q 719 368 720 457 q 720 307 719 386 q 692 354 692 353 q 690 364 692 359 m 723 279 q 725 279 723 279 q 723 278 723 278 l 700 281 q 679 277 692 281 q 673 292 682 271 q 663 319 667 313 q 652 347 652 347 q 667 347 656 347 q 680 346 675 346 q 683 340 680 342 q 704 313 691 335 q 723 279 718 286 m 668 272 q 661 271 663 271 q 608 271 637 269 q 608 273 608 272 q 586 329 590 317 q 572 353 579 346 q 612 350 618 350 q 612 334 604 339 q 618 321 614 334 q 619 314 618 319 q 622 307 621 310 q 635 277 618 318 q 643 277 639 269 q 644 289 647 282 q 627 325 627 326 q 618 350 622 346 l 629 350 q 639 349 634 349 q 642 338 637 339 q 654 315 646 336 q 663 289 663 288 q 668 272 661 294 m 590 272 q 555 278 574 273 q 545 311 551 283 q 528 355 543 319 q 561 354 566 353 q 564 338 555 340 q 581 310 570 336 q 595 271 585 297 l 590 272 m 275 319 q 236 319 264 321 q 197 321 211 319 q 158 334 161 323 q 147 392 150 359 q 157 389 150 389 l 407 366 q 519 357 452 361 q 519 345 516 350 l 532 314 q 540 288 534 309 q 541 282 541 285 q 440 311 446 310 q 275 319 451 310 m 673 482 q 614 484 654 484 q 555 486 574 485 q 488 489 533 489 q 423 492 444 490 q 369 492 402 494 q 316 489 329 489 q 247 488 235 489 q 166 497 216 492 l 159 497 q 154 490 155 497 q 155 481 153 484 q 146 453 147 457 q 140 444 150 461 q 137 435 141 447 q 132 416 132 418 q 134 404 130 407 q 137 397 134 400 q 157 309 138 340 q 170 301 159 302 q 212 300 216 300 q 305 298 243 297 q 398 296 366 298 q 549 261 456 290 q 555 256 553 257 q 559 258 557 256 q 564 257 561 258 q 568 256 566 257 q 676 256 600 245 q 682 252 677 252 q 683 250 683 250 q 687 257 686 250 q 733 258 715 260 q 739 267 739 258 l 739 273 q 734 283 740 283 l 730 285 q 730 288 730 286 q 730 339 732 306 q 729 390 729 374 q 729 465 732 456 q 722 468 726 475 q 719 471 720 471 q 703 475 713 472 q 687 481 692 479 q 682 471 683 481 l 682 465 q 684 456 682 458 q 686 452 684 453 q 683 432 683 444 q 682 407 683 439 q 676 372 682 393 q 673 372 675 372 l 673 372 q 672 370 673 371 l 672 370 q 672 368 672 368 q 671 367 672 367 q 407 385 530 374 q 141 415 179 406 q 144 422 142 418 q 147 428 146 427 q 151 439 147 432 q 159 458 155 444 q 166 478 163 472 q 307 468 281 465 q 422 473 368 478 q 484 471 443 471 q 545 468 525 469 q 611 465 568 465 q 677 463 655 464 q 682 471 682 461 l 683 478 q 679 488 683 486 q 673 482 675 489 m 688 700 q 683 704 686 703 q 688 726 687 717 q 690 745 690 732 q 690 761 690 755 q 694 777 694 783 q 694 778 696 774 q 700 777 699 777 q 703 774 700 774 l 715 772 q 716 774 715 772 q 719 768 716 770 q 715 704 718 777 q 718 653 716 718 q 690 692 691 692 q 688 700 691 697 m 719 632 q 720 631 719 631 q 720 631 720 629 l 697 632 q 677 628 690 632 q 673 640 680 624 q 663 664 667 659 q 652 688 652 686 q 665 686 655 688 q 677 686 673 686 q 680 681 679 682 q 701 659 690 676 q 719 632 715 636 m 668 625 q 661 625 662 625 q 611 624 637 623 q 610 627 610 625 q 587 671 591 661 q 574 692 582 686 q 614 689 619 689 q 614 676 605 679 q 619 665 615 675 q 621 660 619 664 q 623 653 622 656 q 635 629 619 663 q 643 628 640 624 q 644 639 647 633 q 629 668 627 669 q 619 689 623 686 l 629 689 q 639 688 635 688 q 642 679 637 681 q 652 661 646 677 q 662 639 662 637 q 668 625 661 643 m 593 625 q 558 631 577 627 q 549 657 555 635 q 532 694 547 664 q 564 692 569 692 q 566 679 559 681 q 583 656 574 677 q 598 625 587 646 l 593 625 m 292 664 q 254 664 280 665 q 216 665 230 664 q 179 675 182 668 q 169 724 172 697 q 178 721 172 721 l 416 701 q 525 694 460 699 q 525 685 522 689 l 537 660 q 544 639 538 656 q 545 633 545 635 q 450 657 455 656 q 292 664 459 656 m 672 798 q 615 799 654 799 q 559 802 579 799 q 496 803 537 803 q 433 806 454 804 q 382 806 412 807 q 330 803 342 803 q 264 802 252 803 q 186 810 236 806 l 180 810 q 176 804 176 810 q 178 796 175 799 q 168 774 169 777 q 162 766 170 781 q 159 758 163 768 q 154 743 154 745 q 157 733 153 736 q 159 728 157 729 q 178 654 161 681 q 191 650 180 650 q 230 648 236 647 q 319 646 259 646 q 408 644 379 647 q 554 616 464 640 q 558 612 557 612 q 564 614 561 611 q 568 612 565 614 q 572 612 570 612 q 675 611 601 604 q 680 607 676 608 q 680 607 682 607 q 686 612 684 607 q 730 614 712 615 q 734 621 734 614 l 734 627 q 730 635 736 635 l 726 635 q 726 637 726 637 q 726 679 728 653 q 725 722 725 708 q 725 783 728 777 q 718 786 722 791 q 715 789 718 787 q 700 791 711 789 q 686 796 690 796 q 680 789 680 798 l 680 783 q 683 775 680 778 q 684 772 683 774 q 680 755 682 765 q 680 736 682 762 q 675 707 680 724 q 672 707 673 707 l 672 707 q 671 705 672 707 l 671 705 q 671 703 671 704 q 671 703 671 703 q 418 718 534 708 q 163 743 198 734 q 165 747 163 745 q 168 753 168 751 q 173 762 169 755 q 180 778 176 766 q 187 793 184 789 q 322 786 297 783 q 431 790 380 794 q 490 787 451 789 q 549 786 530 787 q 612 783 570 785 q 676 781 654 783 q 680 789 680 781 l 680 793 q 677 802 682 800 q 672 798 673 803 z "},">":{"ha":707,"x_min":98,"x_max":593,"o":"m 204 664 q 342 581 332 595 q 543 469 423 553 q 593 441 579 469 q 498 241 541 241 q 187 64 330 158 l 170 64 q 98 214 159 75 l 98 225 q 271 336 111 267 q 359 392 271 346 l 359 397 q 143 486 307 433 q 115 509 115 503 l 115 525 q 204 664 115 637 m 210 614 l 204 586 l 204 536 q 410 441 247 536 q 432 414 432 416 q 176 253 432 387 q 210 186 210 204 l 220 186 q 543 375 379 283 q 559 431 543 386 q 382 530 545 431 q 276 586 361 533 q 210 614 226 614 m 154 564 l 154 558 q 176 603 170 558 q 154 564 154 595 m 154 525 q 176 509 154 517 l 182 509 l 182 514 q 170 525 170 514 l 154 525 m 187 509 l 187 503 q 260 481 252 481 l 265 481 l 265 486 l 193 509 l 187 509 m 465 286 l 465 258 q 509 314 509 285 l 504 314 q 465 286 465 293 m 393 225 l 398 225 q 432 269 432 225 l 426 269 q 393 225 393 269 m 132 208 q 176 136 169 136 q 187 158 176 144 q 154 231 187 172 l 149 231 q 132 208 134 231 m 198 114 l 204 114 q 359 203 344 203 l 359 231 l 354 231 q 198 114 233 163 z "},"?":{"ha":830,"x_min":117,"x_max":672,"o":"m 383 799 l 406 799 q 667 627 593 799 q 672 576 672 596 q 533 343 657 385 q 472 349 496 349 l 439 349 l 433 321 q 450 171 433 232 l 428 154 q 367 171 390 171 l 345 171 q 300 149 325 171 l 289 149 q 272 165 281 149 l 272 271 q 350 443 272 401 q 456 493 456 467 l 456 521 q 400 543 456 536 q 228 465 354 543 l 205 465 q 155 566 193 465 q 117 587 117 575 q 167 710 146 703 q 383 799 218 761 m 178 660 q 228 571 195 654 l 233 571 q 345 637 273 637 l 400 637 q 505 532 464 637 l 505 526 q 355 410 505 444 q 306 282 306 372 l 306 199 l 345 204 l 355 204 l 411 199 l 406 210 l 406 338 q 433 382 406 368 l 472 382 q 533 376 496 382 q 639 576 639 435 q 511 749 639 675 q 422 765 475 765 l 378 765 q 178 660 178 713 m 161 627 l 155 599 q 183 587 165 599 l 183 593 q 161 627 171 627 m 311 554 l 328 554 l 328 604 q 311 554 317 604 m 355 604 q 361 571 361 596 l 367 571 q 372 604 367 596 l 355 604 m 406 604 l 400 593 l 400 576 q 444 571 440 571 l 444 576 q 406 604 444 585 m 261 559 l 278 549 l 283 549 l 283 582 q 261 559 275 582 m 195 566 l 195 559 l 216 498 l 228 498 l 228 510 q 200 566 200 551 l 195 566 m 272 532 l 283 532 l 283 543 q 272 532 272 542 m 333 138 l 350 138 q 477 49 461 138 l 477 16 q 383 -118 427 -118 l 361 -118 q 239 -7 272 -118 l 239 16 q 333 138 250 138 m 300 71 l 300 49 q 378 -40 300 -7 q 444 21 444 -25 l 444 43 q 372 104 431 104 l 350 104 q 300 71 319 104 m 272 16 l 272 -1 q 311 -68 272 -21 l 317 -57 l 317 -52 q 278 16 278 0 l 272 16 m 345 -68 l 345 -85 l 372 -90 q 378 -74 372 -85 l 367 -68 l 345 -68 z "},"@":{"ha":1012,"x_min":106,"x_max":745,"o":"m 429 888 l 479 888 q 640 821 555 888 q 690 743 640 814 q 745 498 745 566 q 718 427 745 463 l 723 399 q 629 293 723 325 q 540 315 566 293 q 440 298 507 304 l 440 293 q 534 260 534 293 q 568 199 555 260 q 484 77 523 77 l 479 77 q 317 138 332 117 q 162 282 162 204 l 106 449 l 106 521 q 157 688 106 615 q 340 876 157 775 q 429 888 404 888 m 173 593 l 173 515 q 307 254 173 343 q 440 187 307 216 q 451 176 441 176 l 467 176 l 490 260 l 484 260 q 201 521 256 260 q 190 559 191 521 l 190 593 q 329 787 190 690 l 429 787 q 640 665 541 787 q 684 576 684 600 l 684 554 q 629 449 661 449 l 612 449 q 568 488 568 453 q 573 599 573 570 l 562 604 l 551 604 l 557 593 q 529 566 557 586 q 501 615 501 581 q 434 632 447 632 q 329 476 344 632 l 329 465 q 440 387 329 407 q 462 393 450 393 q 473 382 463 382 q 523 432 483 382 l 534 432 q 573 376 541 432 q 712 498 712 404 q 618 782 679 751 q 479 854 618 829 l 429 854 q 206 726 297 854 q 173 593 173 664 m 357 754 q 362 737 362 743 l 390 743 q 378 754 390 754 l 357 754 m 423 754 l 434 737 q 467 743 443 743 l 467 754 l 423 754 m 307 726 l 329 726 l 329 743 q 307 726 307 734 m 223 582 l 223 566 q 317 359 256 397 l 317 410 q 296 465 296 440 q 412 660 296 623 l 440 660 q 523 632 523 653 l 551 637 l 562 637 q 606 587 606 637 q 601 482 601 498 l 618 482 q 651 559 638 482 l 651 571 q 551 710 633 646 l 540 710 l 540 704 l 551 688 q 529 671 551 671 l 456 710 l 429 704 l 390 710 q 290 660 290 693 q 223 582 223 631 m 273 704 l 262 688 l 273 688 q 279 704 273 693 l 273 704 m 440 559 l 451 559 q 517 510 517 559 l 517 488 q 490 460 517 481 l 479 460 q 412 498 455 460 l 401 493 q 378 515 378 498 q 440 559 401 559 m 434 526 q 473 493 434 517 l 484 493 l 484 521 l 456 526 l 434 526 m 134 504 l 134 460 l 145 427 l 151 427 q 140 504 140 475 l 134 504 m 351 382 l 351 371 q 412 332 378 332 l 423 332 l 479 338 l 479 349 q 351 382 376 363 m 517 376 q 512 343 512 347 l 517 343 q 529 359 529 343 q 523 376 523 371 l 517 376 m 656 371 l 656 343 q 667 354 667 343 l 667 371 l 656 371 m 606 349 l 606 338 q 618 326 608 326 l 629 326 q 623 354 623 336 q 606 349 612 349 m 562 349 l 562 343 q 573 332 564 332 l 573 349 l 562 349 m 178 343 l 178 332 q 301 182 178 240 q 307 199 301 187 q 212 298 307 210 q 184 343 184 332 l 178 343 m 517 237 q 490 126 490 140 l 501 126 q 534 193 501 146 q 523 237 534 199 l 517 237 m 368 171 l 368 165 q 406 132 368 136 q 368 171 401 171 m 434 149 q 462 121 440 121 q 434 149 456 149 z "},"A":{"ha":945,"x_min":14,"x_max":931,"o":"m 389 372 q 409 389 397 379 q 420 385 414 385 q 433 356 427 369 q 389 372 412 366 m 344 380 q 366 405 358 391 q 374 403 370 404 q 398 397 396 398 q 373 376 384 386 q 344 380 359 378 m 329 387 q 326 382 326 385 q 306 382 315 383 q 347 412 340 404 q 352 410 349 411 q 329 387 345 397 m 286 428 q 302 441 292 433 q 320 455 315 450 q 319 450 319 449 q 326 434 316 439 q 321 427 325 430 q 311 431 319 435 q 282 412 298 421 q 286 428 285 425 m 295 468 q 335 500 303 476 q 326 474 334 497 q 319 473 322 476 q 290 450 312 465 q 295 468 294 463 m 305 526 q 340 544 330 537 q 342 553 346 547 q 333 556 339 559 q 307 542 323 549 q 309 559 309 559 q 343 573 325 568 q 345 574 344 574 q 353 558 349 566 q 345 545 345 555 q 338 510 344 530 q 329 513 335 517 q 300 491 298 489 q 305 526 302 506 m 313 590 q 321 616 315 596 q 338 587 330 602 q 312 576 325 583 q 313 590 313 583 m 405 425 q 394 427 400 426 q 359 439 363 434 q 349 444 355 444 q 347 445 348 444 q 359 483 349 454 q 369 521 366 506 q 405 425 367 526 m 473 341 q 406 500 451 380 q 328 654 368 602 q 327 661 328 658 q 318 670 325 667 q 306 669 312 673 q 299 666 303 667 q 292 654 292 662 q 298 643 292 648 q 291 622 290 617 q 286 597 288 610 q 281 556 284 579 q 262 450 277 521 q 245 347 242 363 q 254 337 246 338 q 268 340 262 335 q 269 341 269 340 q 273 351 274 346 q 455 313 366 370 q 471 315 465 307 q 474 332 479 323 q 473 341 475 336 m 891 151 q 863 111 878 130 q 845 102 854 105 q 842 101 844 102 q 835 102 839 104 q 789 77 808 86 q 782 94 785 85 q 784 94 783 94 q 848 121 810 98 q 892 157 881 141 q 893 157 894 156 q 894 154 893 155 q 891 151 892 152 m 804 49 q 795 64 800 56 q 842 90 814 73 q 842 90 842 90 q 845 89 844 90 q 804 49 819 58 m 709 16 q 587 2 627 2 q 586 1 588 2 q 517 159 585 8 q 504 166 513 168 q 501 166 503 166 q 393 189 511 167 q 262 209 342 197 q 259 209 261 209 q 245 193 243 208 q 246 187 245 190 q 252 159 250 174 q 251 158 250 158 q 248 151 247 155 q 254 145 249 146 q 250 24 256 115 q 150 42 211 25 q 51 66 75 62 q 45 66 48 66 q 83 319 66 155 q 117 572 102 496 q 162 770 139 680 q 180 869 182 850 q 195 872 188 865 q 437 821 207 871 q 448 824 443 820 q 543 621 504 713 q 589 505 562 578 q 633 389 621 418 q 677 286 642 365 q 719 182 705 222 q 785 25 759 68 q 747 19 772 20 q 709 16 716 17 m 337 83 q 329 85 333 87 q 337 94 333 90 q 337 87 337 90 q 337 83 337 87 m 327 83 q 279 41 311 64 q 279 52 279 45 q 327 83 328 84 m 316 163 q 281 144 307 156 q 279 163 281 153 q 290 173 286 168 q 292 177 291 174 q 319 173 311 174 q 320 167 319 170 q 322 163 321 166 q 316 163 319 165 m 317 138 q 282 110 307 121 q 282 129 282 119 q 323 151 316 145 q 326 154 325 152 q 336 106 334 133 q 326 104 330 109 q 281 68 317 90 q 282 94 281 82 q 330 131 316 110 q 328 140 334 137 q 317 138 321 144 m 278 17 q 277 17 279 18 q 277 24 277 18 q 279 25 279 24 q 335 71 318 51 q 278 17 329 47 m 267 934 q 306 972 299 962 q 345 961 323 966 q 254 895 282 921 q 252 893 253 894 q 221 897 235 896 q 244 916 228 903 q 267 934 260 928 m 388 951 q 301 890 352 922 q 298 884 297 888 q 269 890 281 888 q 364 956 295 913 q 388 951 374 954 m 515 922 q 507 913 512 918 q 503 919 507 917 q 494 918 498 921 q 433 861 427 857 q 431 852 427 858 q 376 865 407 857 q 413 895 381 868 q 452 924 435 913 q 454 934 457 928 q 444 936 450 940 q 404 905 428 926 q 364 873 373 880 q 361 869 361 871 q 312 881 329 877 q 406 947 368 916 q 515 922 484 932 m 543 915 q 555 894 550 906 q 552 892 553 893 q 489 837 524 863 q 487 827 484 833 q 496 825 490 821 q 562 881 533 852 q 568 863 564 875 q 487 808 549 830 q 472 838 479 825 q 496 863 480 847 q 520 887 513 880 q 543 915 538 907 m 583 828 q 602 795 589 817 q 621 762 614 772 q 544 726 583 723 q 538 719 538 726 q 544 711 538 712 q 627 748 586 709 q 631 740 633 738 q 637 727 632 738 q 558 694 645 732 q 555 686 552 692 q 565 682 559 680 q 605 696 571 685 q 643 713 630 705 q 652 693 648 703 q 608 667 637 679 q 560 648 568 652 q 523 732 543 688 q 601 774 589 759 q 600 784 606 779 q 591 784 595 789 q 517 745 579 769 q 513 753 516 747 q 509 761 511 759 q 579 800 541 770 q 580 809 584 804 q 571 811 576 814 q 503 774 534 782 q 493 795 500 779 q 574 848 550 817 q 583 828 578 836 m 674 633 q 673 633 673 633 q 583 595 667 627 q 566 635 579 604 q 613 655 576 641 q 657 679 643 666 q 674 633 664 662 m 690 591 q 689 591 689 591 q 596 566 613 564 q 595 565 596 566 q 588 583 595 566 q 680 620 677 618 q 690 591 686 602 m 695 578 q 699 568 699 569 q 605 540 636 544 q 603 545 604 542 q 600 551 601 549 q 693 578 617 551 q 695 578 694 578 m 707 549 q 715 532 707 549 q 619 503 659 492 q 610 526 618 505 q 705 555 641 531 q 706 552 705 554 q 707 549 707 550 m 726 505 q 688 491 718 500 q 635 479 655 481 q 630 475 631 479 q 627 481 629 478 q 625 488 626 486 q 720 519 668 482 q 724 512 722 517 q 726 505 726 507 m 740 474 q 740 473 739 473 q 648 427 696 441 q 647 430 648 427 q 646 433 646 432 q 633 465 644 439 l 635 465 q 702 481 667 468 q 732 492 724 488 q 736 483 733 490 q 740 474 739 477 m 753 443 q 658 401 696 406 q 655 408 656 404 q 653 413 654 412 q 745 460 702 428 q 749 452 747 458 q 753 443 751 446 m 772 397 q 767 393 769 396 q 728 366 757 377 q 676 356 699 355 q 663 389 669 372 q 759 429 703 393 q 772 397 772 397 m 778 385 q 791 356 788 361 q 788 353 789 355 q 749 335 785 344 q 704 328 723 328 q 697 320 697 328 q 704 313 697 313 q 766 326 734 315 q 797 342 789 333 q 800 335 798 340 q 803 328 802 330 q 799 326 800 328 q 755 304 790 314 q 704 293 724 295 q 704 293 705 293 q 693 317 702 298 q 682 342 686 333 q 728 353 701 343 q 778 385 766 367 m 808 315 q 820 291 816 300 q 771 271 802 281 q 720 254 732 260 q 709 279 716 265 q 764 292 736 283 q 808 315 799 304 m 850 230 q 750 177 804 189 q 743 198 746 189 q 794 215 766 201 q 836 248 827 231 q 833 258 838 254 q 823 255 827 261 q 783 225 816 239 q 738 211 755 213 q 734 221 734 222 q 726 241 731 228 q 777 258 739 248 q 826 278 808 269 q 850 230 839 250 m 868 195 q 867 195 867 195 q 767 130 845 166 q 755 163 763 142 q 857 217 809 176 q 868 195 867 196 m 884 168 q 832 128 871 149 q 780 107 799 110 q 777 105 779 106 q 772 117 778 103 q 875 182 850 153 q 884 168 882 172 m 913 170 q 911 176 913 173 q 814 373 865 254 q 768 478 806 393 q 724 583 739 543 q 644 777 655 757 q 593 878 603 851 q 559 940 578 918 q 545 944 553 947 q 528 947 537 951 q 526 948 527 948 q 415 974 494 959 q 304 1003 342 988 l 304 1004 q 302 1004 303 1004 q 302 1004 302 1004 q 286 998 290 1009 q 283 991 284 994 q 266 970 283 987 q 231 941 252 958 q 183 901 188 905 q 172 901 174 901 q 165 899 168 901 q 149 896 156 903 q 147 880 141 888 q 144 818 156 868 q 125 740 139 791 q 83 539 104 667 q 54 301 73 481 q 16 65 37 153 q 20 52 14 57 q 33 47 26 46 q 43 39 35 41 q 152 12 64 36 q 262 -4 218 -5 q 272 0 269 -4 q 292 -7 279 -15 q 365 74 361 33 q 350 168 368 123 q 403 157 380 163 q 496 138 477 138 q 514 101 502 125 q 531 64 526 77 q 560 -16 559 3 q 570 -29 561 -26 q 585 -26 580 -32 q 587 -26 587 -26 q 654 -20 613 -26 q 722 -11 704 -12 q 810 6 791 -5 q 817 18 818 10 q 818 25 819 21 q 870 75 838 37 q 913 134 895 106 q 925 144 922 135 q 913 170 931 164 z "},"B":{"ha":885,"x_min":48,"x_max":892,"o":"m 774 86 q 637 31 725 39 q 561 28 616 28 q 485 23 512 26 q 336 20 431 16 q 313 22 332 20 q 287 24 296 24 q 271 35 286 38 q 256 209 272 32 q 241 322 254 233 q 231 436 232 392 q 218 664 228 598 q 210 785 206 736 q 208 833 211 793 q 213 880 206 864 q 394 886 249 871 q 680 840 562 905 q 784 661 780 786 q 779 567 785 612 q 743 496 770 494 q 729 488 732 497 q 726 475 724 483 q 734 464 726 467 q 851 289 843 414 q 774 86 859 170 m 225 233 q 214 229 218 237 q 146 135 211 221 q 146 142 146 142 q 147 175 146 153 q 210 264 168 195 q 208 273 213 270 q 198 272 201 277 q 149 197 162 212 q 151 241 150 216 q 155 243 153 241 q 214 311 191 280 q 225 233 224 240 m 228 212 q 230 171 229 195 q 153 91 148 86 q 153 81 149 87 q 163 81 157 76 q 231 151 173 90 q 231 123 231 130 q 172 64 211 97 l 172 64 q 138 100 144 85 q 143 104 141 102 q 146 109 144 106 q 148 114 147 111 q 189 166 156 125 q 227 222 216 199 q 228 212 227 214 m 233 88 q 221 78 228 84 q 195 57 200 58 q 190 52 191 56 q 184 56 187 54 q 232 102 214 81 q 233 88 233 94 m 242 33 q 201 44 228 28 q 235 71 212 49 q 242 33 237 50 m 153 310 q 150 395 153 349 q 154 397 152 396 q 193 456 169 408 q 203 477 198 466 q 203 449 203 463 q 203 419 203 435 q 155 334 185 366 q 155 324 151 330 q 165 324 160 319 q 205 387 188 349 q 212 331 207 362 q 152 259 189 298 q 153 310 153 286 m 144 477 q 173 516 153 492 q 202 554 193 541 q 203 511 203 534 q 182 464 195 490 q 149 412 161 422 q 144 477 148 439 m 140 533 q 138 553 140 538 q 195 625 175 592 q 199 595 197 608 q 201 575 199 585 q 197 572 198 574 q 143 500 199 575 q 142 516 142 506 q 140 533 140 528 m 118 698 q 121 699 120 698 q 180 755 165 736 q 180 720 178 734 q 182 704 181 713 q 157 669 174 694 q 132 634 142 646 q 132 624 127 629 q 141 624 137 619 q 164 654 151 635 q 184 685 180 679 q 191 647 186 675 q 190 646 191 646 q 136 572 172 610 q 118 698 130 628 m 109 748 q 104 766 107 755 q 108 766 106 766 q 180 827 134 770 q 178 837 184 833 q 168 835 172 840 q 105 780 127 783 q 102 779 103 780 q 87 847 90 832 q 93 847 90 846 q 136 885 119 858 q 137 886 137 885 q 180 873 172 876 q 182 872 181 873 q 182 831 180 858 q 182 783 184 814 q 115 713 166 755 q 109 748 111 734 m 83 876 q 88 878 85 876 q 107 897 98 886 q 123 890 115 894 q 86 860 109 869 q 85 859 86 860 q 83 876 84 867 m 79 919 q 95 904 85 911 q 81 890 89 897 q 79 919 79 905 m 201 948 q 159 915 176 926 q 155 909 156 913 q 105 932 117 919 q 201 948 140 933 m 267 964 q 245 939 264 960 q 229 922 235 928 q 223 916 227 920 q 222 915 222 916 q 217 908 217 914 q 213 909 213 909 q 203 909 208 911 q 193 903 197 909 q 191 899 193 903 q 189 900 189 900 q 170 906 182 903 q 230 956 189 919 q 267 964 251 961 m 286 964 q 288 968 288 966 q 316 970 304 970 q 332 970 323 970 q 288 913 316 954 q 291 904 284 907 q 233 905 256 901 q 248 922 231 904 q 286 964 282 960 m 345 970 q 392 966 369 970 q 357 919 359 923 q 359 911 355 915 q 346 909 351 910 q 323 907 339 909 q 299 905 307 905 q 300 906 300 905 q 344 962 329 947 q 345 970 347 966 m 517 919 q 481 921 498 920 q 427 918 458 921 q 436 930 432 924 q 434 939 440 936 q 425 938 429 943 q 408 918 417 927 q 407 916 408 917 q 370 912 414 917 q 387 938 376 923 q 407 963 404 959 q 517 919 468 951 m 810 610 q 752 820 821 743 q 573 911 692 887 q 571 913 572 912 q 350 998 481 991 q 212 977 305 1000 q 75 962 123 956 q 66 959 70 962 q 52 947 53 959 q 79 752 48 895 q 114 513 105 629 q 123 261 126 346 q 121 203 123 239 q 117 144 118 161 q 117 134 117 142 q 115 121 115 126 q 108 110 109 119 q 165 35 108 76 q 252 7 218 -3 q 255 -2 254 1 q 276 -6 262 -16 q 282 -5 281 -5 q 311 -7 288 -5 q 374 -9 352 -9 q 468 -5 408 -9 q 562 0 534 -1 q 728 22 677 1 q 822 98 777 41 q 878 302 892 188 q 770 476 863 418 q 810 610 802 500 m 470 538 q 522 576 505 555 q 559 604 536 584 q 598 634 585 626 l 598 633 l 598 633 q 555 557 601 590 q 470 538 510 523 m 453 562 q 452 632 453 563 q 452 701 452 651 q 506 636 503 646 q 453 562 519 591 m 453 733 q 483 730 464 730 q 512 729 508 729 q 551 715 533 727 q 515 680 547 711 q 513 676 514 678 q 500 691 508 683 q 529 714 515 703 q 529 724 534 719 q 519 724 524 729 q 490 701 505 713 q 469 724 477 715 q 453 727 463 732 q 453 730 453 728 l 453 733 m 580 686 q 570 677 577 684 q 559 667 563 671 q 530 648 539 650 l 530 648 q 520 667 526 658 q 525 669 523 667 q 563 707 557 702 q 580 686 572 698 m 595 649 q 564 625 583 641 q 533 600 538 604 q 534 610 534 606 q 534 635 536 623 q 561 651 543 637 q 587 673 566 654 q 595 649 593 662 m 581 728 q 523 755 551 751 q 484 758 518 756 q 447 764 460 758 q 431 757 435 769 q 425 747 425 753 q 425 677 425 730 q 425 608 424 634 q 447 502 427 524 q 461 498 453 495 q 471 508 469 500 q 569 532 519 496 q 625 617 618 568 q 581 728 634 685 m 597 225 q 481 195 471 196 q 475 223 478 209 l 478 223 q 505 231 492 224 q 614 265 519 230 q 599 225 615 241 l 597 225 m 471 365 q 518 361 498 364 q 522 354 519 357 q 526 290 547 329 q 473 250 506 253 l 472 250 q 471 365 467 300 m 561 304 q 571 303 566 298 q 592 321 582 313 q 601 307 596 315 q 555 288 574 296 q 561 304 559 296 m 559 348 q 583 331 572 341 q 562 315 572 323 q 559 348 564 333 m 610 279 q 526 245 527 245 q 543 265 536 255 q 606 294 568 279 q 610 279 608 287 l 610 279 m 640 282 q 618 336 635 313 q 618 345 621 340 q 609 347 614 349 l 609 347 q 468 393 565 391 q 454 396 462 398 q 444 384 444 393 q 462 158 434 242 q 477 147 465 146 q 491 159 490 149 q 589 184 528 159 q 642 264 643 206 q 641 277 642 270 q 640 282 642 280 m 159 871 q 110 821 145 825 q 104 813 103 820 q 113 807 106 806 q 172 867 156 812 q 168 876 174 873 q 159 871 161 878 m 564 597 q 531 574 555 587 q 498 552 507 562 q 498 542 494 547 q 507 542 503 537 q 541 564 517 551 q 573 587 564 576 q 573 597 578 591 q 564 597 568 602 z "},"C":{"ha":745,"x_min":-22,"x_max":735,"o":"m 692 211 q 639 184 676 201 q 589 166 593 165 q 574 163 581 170 q 572 165 576 161 q 574 170 574 167 q 605 224 577 195 q 650 272 651 273 q 648 281 654 277 q 639 281 643 286 q 594 233 638 279 q 562 178 566 203 q 543 203 553 188 q 581 258 551 227 q 625 312 616 295 q 625 312 625 311 q 644 291 623 315 q 669 254 656 277 q 664 252 667 254 q 637 219 659 246 q 608 189 621 199 q 606 179 602 185 q 616 178 610 174 q 646 209 629 189 q 675 242 671 237 q 675 243 674 241 q 693 212 686 221 q 692 211 692 210 m 670 146 q 661 149 666 153 q 607 85 635 127 q 560 58 585 71 q 654 154 583 92 q 656 161 657 157 q 685 175 673 169 q 670 146 680 161 m 538 49 q 495 36 522 43 q 490 35 494 35 q 484 33 486 33 q 492 37 488 35 q 582 127 567 77 q 593 139 592 129 q 628 150 606 140 q 538 49 563 92 m 447 46 q 416 34 432 39 q 396 28 404 44 q 286 24 340 14 q 157 95 217 39 q 71 215 102 146 q 50 542 9 348 q 119 783 91 743 q 128 796 130 785 q 141 811 135 804 q 142 827 149 819 q 184 856 151 836 q 283 903 227 883 q 540 810 405 945 q 513 766 530 798 q 478 683 496 732 q 435 705 473 684 q 379 726 404 722 q 285 688 323 739 q 248 559 252 646 q 248 479 248 536 q 246 400 248 429 q 330 190 234 212 q 475 258 412 170 q 490 233 474 262 q 556 141 528 168 q 447 46 548 93 m 357 965 q 338 939 347 952 q 278 930 307 939 q 357 965 309 953 m 380 970 q 413 975 396 973 q 376 937 396 942 q 373 936 374 937 q 354 939 363 938 q 380 970 366 955 m 429 977 q 450 977 441 977 q 464 977 456 977 q 444 949 460 970 q 426 921 431 932 q 397 931 410 927 q 429 977 411 941 m 566 940 q 562 937 564 939 q 520 865 550 920 q 507 876 513 871 q 541 935 526 919 q 540 944 545 940 q 530 944 534 949 q 495 884 513 927 q 472 899 484 892 q 487 924 475 906 q 512 955 494 932 q 511 964 516 960 q 501 964 506 969 q 459 905 465 920 q 439 916 448 911 q 458 946 444 927 q 479 975 474 966 q 566 940 531 968 m 574 932 q 584 921 580 927 q 596 903 589 916 q 574 873 587 892 q 552 842 556 847 q 551 838 551 840 q 532 856 541 848 q 573 928 563 913 q 574 932 574 930 m 632 858 q 629 848 629 854 q 621 847 625 849 q 560 829 627 850 q 559 829 560 829 q 559 830 559 830 q 563 833 562 831 q 583 862 568 840 q 604 891 596 880 q 632 858 620 867 m 639 835 q 644 835 641 835 q 646 835 644 835 q 648 834 648 834 q 618 716 634 751 q 597 709 607 715 q 593 704 594 707 q 587 705 591 705 q 633 819 629 804 q 633 823 634 821 q 639 835 640 827 m 543 689 q 541 688 545 690 q 597 810 553 728 q 597 810 597 810 q 618 817 608 813 q 570 700 621 824 q 557 694 567 699 q 543 689 548 691 m 524 683 q 508 681 511 679 q 507 682 509 680 q 530 736 519 711 q 573 802 557 795 q 576 804 574 803 q 578 805 575 804 q 524 683 537 728 m 340 599 q 340 596 340 597 q 339 593 339 594 q 314 568 332 586 q 283 537 286 538 q 279 528 277 534 q 288 524 281 522 q 317 551 294 526 q 332 566 321 555 q 319 503 324 536 q 277 456 279 457 q 277 516 277 469 q 277 576 275 554 q 319 686 283 645 q 370 703 340 709 q 281 604 290 635 q 286 597 279 597 q 295 602 293 595 q 385 698 302 625 q 393 694 389 696 q 340 599 363 671 m 323 338 q 340 301 330 319 q 330 299 334 305 q 294 248 323 287 q 280 275 286 260 q 300 308 286 289 q 323 338 319 332 m 271 367 q 276 433 271 357 q 281 437 279 433 q 316 479 290 452 q 312 442 313 459 q 311 413 311 428 q 285 385 298 401 q 271 367 275 374 m 280 350 q 300 381 280 358 q 312 395 305 388 q 319 351 313 372 q 313 347 315 351 q 294 321 307 337 q 275 296 280 304 q 271 342 271 316 q 280 350 281 340 m 348 290 q 415 237 384 239 q 360 214 387 216 q 362 218 360 214 q 359 227 366 224 q 349 224 353 230 q 347 220 349 222 q 345 216 345 217 q 338 217 340 216 q 363 264 356 233 q 358 273 365 271 q 350 267 351 274 q 325 224 342 237 q 323 222 324 224 q 315 227 319 225 q 304 237 309 232 q 342 293 336 281 q 343 296 344 294 q 348 290 347 291 m 493 288 q 494 290 494 289 q 497 292 496 292 q 552 322 516 309 q 505 260 519 293 q 492 286 496 276 q 493 288 493 288 m 592 337 q 606 343 600 340 q 618 321 610 332 q 612 318 614 321 q 572 268 603 300 q 534 217 543 237 q 534 217 532 219 q 534 217 534 217 q 534 217 534 216 q 512 250 519 239 q 517 253 516 250 q 589 333 535 298 q 592 337 591 334 m 684 284 q 653 319 682 288 q 633 359 632 343 q 633 366 634 362 q 625 376 632 374 q 612 376 618 380 q 611 376 610 376 q 547 350 595 367 q 486 319 507 335 q 469 317 476 326 q 463 291 460 307 q 441 261 454 275 q 422 265 433 272 q 381 291 408 257 q 352 337 362 315 q 345 483 331 382 q 366 585 353 538 q 420 678 387 661 q 420 679 419 678 q 487 655 466 653 q 493 657 490 655 q 536 658 506 649 q 564 667 547 661 q 592 677 585 675 q 600 684 597 680 q 613 686 606 682 q 620 688 616 687 q 621 688 621 688 q 622 689 621 689 q 628 689 625 689 q 638 694 634 690 q 639 696 638 695 q 640 696 639 696 q 640 696 640 696 q 640 697 640 698 q 678 842 659 734 q 670 858 680 852 q 663 861 667 860 q 656 876 666 871 q 618 923 650 878 q 579 966 595 954 q 434 1005 526 1008 q 314 980 372 1003 q 218 907 245 953 q 150 867 182 889 q 100 805 102 834 q 43 669 63 755 q 29 595 37 641 q 17 523 20 536 q 64 165 -22 319 q 171 47 103 96 q 318 -8 244 -5 q 412 3 364 -10 q 562 28 452 -16 q 655 87 613 49 q 715 179 703 132 q 715 186 717 183 q 730 195 724 184 q 728 212 735 204 q 684 284 720 219 z "},"D":{"ha":708,"x_min":29,"x_max":669,"o":"m 625 568 q 618 564 621 568 q 582 519 614 557 q 553 470 559 492 q 536 441 544 456 q 536 496 538 470 q 626 609 548 515 q 625 568 627 589 m 593 433 q 519 335 519 334 q 517 324 514 330 q 526 322 521 318 q 553 349 540 332 q 496 277 531 317 q 532 405 523 338 q 532 408 532 406 q 533 412 533 411 q 538 416 537 412 q 555 448 547 434 q 564 454 563 447 q 566 464 564 459 q 576 479 571 473 q 576 490 580 484 q 598 517 583 501 q 622 545 618 541 q 593 433 615 495 m 377 155 q 252 73 326 104 q 79 48 130 20 q 64 47 71 53 q 64 80 63 50 q 73 165 66 106 q 81 359 83 245 q 82 493 79 410 q 85 627 85 599 q 91 833 87 820 q 165 840 113 831 q 240 843 213 847 q 403 758 330 828 q 507 429 524 641 q 377 155 494 269 m 160 901 q 184 918 168 907 q 210 933 201 928 q 168 867 185 905 q 109 862 128 862 q 160 901 121 876 m 244 949 q 286 941 262 943 q 239 871 256 887 q 184 869 217 873 q 244 949 210 919 m 348 937 q 323 900 337 923 q 298 863 304 870 q 298 857 296 859 q 269 866 283 862 q 257 869 264 867 q 300 939 268 881 q 324 938 310 939 q 348 937 343 937 m 414 927 q 353 831 363 877 q 308 852 331 844 q 311 855 310 854 q 365 936 370 941 q 414 927 393 933 m 426 919 q 428 922 427 920 q 457 906 444 915 q 454 903 455 905 q 425 857 445 887 q 395 812 404 827 q 398 802 392 806 q 408 804 404 798 q 437 850 416 820 q 466 895 457 880 q 467 899 467 897 q 499 871 483 887 q 494 869 496 871 q 427 774 431 787 q 366 823 400 802 q 426 919 372 867 m 505 865 q 568 785 540 830 q 560 781 563 785 q 498 665 505 702 q 481 700 490 684 q 486 705 485 701 q 538 818 502 785 q 538 828 543 823 q 528 829 532 833 q 473 713 490 793 q 438 762 457 740 q 504 859 441 777 q 505 865 506 862 m 573 775 q 610 694 596 735 q 624 630 621 664 q 578 576 617 621 q 535 520 551 543 q 526 581 532 551 q 563 631 538 597 q 601 682 587 665 q 600 692 605 687 q 591 692 595 698 q 556 645 578 675 q 522 598 532 612 q 508 641 516 621 q 511 646 511 643 q 572 774 511 687 q 573 775 573 774 m 640 692 q 491 916 608 817 q 384 964 444 956 q 314 968 371 966 q 245 979 271 970 q 230 972 235 982 q 215 972 223 978 q 141 926 224 979 q 78 867 95 897 q 68 857 71 865 q 58 642 58 827 q 54 493 58 606 q 53 345 52 401 q 43 149 55 246 q 45 13 29 35 q 62 7 52 4 q 72 19 72 10 q 224 31 118 -1 q 369 110 304 56 q 451 198 416 148 q 465 202 459 195 q 613 404 587 334 q 629 448 621 426 q 631 456 632 452 q 640 692 669 585 m 330 405 q 329 404 330 405 q 294 359 315 393 q 259 317 275 328 q 262 352 261 336 q 328 448 294 427 q 330 458 334 452 q 321 461 326 465 q 264 390 289 441 q 265 430 265 410 q 272 427 268 427 q 277 433 276 428 q 344 530 289 479 q 344 540 349 535 q 334 541 338 545 q 265 441 279 490 q 265 476 265 459 q 272 473 267 473 q 277 478 276 473 q 340 563 287 515 q 349 500 349 532 q 330 405 350 453 m 262 290 q 256 289 263 289 l 256 289 q 256 298 256 292 q 281 317 269 304 q 262 290 273 305 m 263 648 q 262 652 263 650 q 261 656 261 655 q 290 646 277 654 q 261 608 283 631 q 260 631 261 621 q 263 648 269 638 m 314 623 q 309 620 311 623 q 262 562 288 587 q 262 587 262 579 q 301 637 296 627 q 314 623 308 631 m 321 613 q 336 578 330 598 q 334 576 335 577 q 264 485 276 526 q 263 544 264 509 q 266 545 264 545 q 320 612 296 572 q 321 613 320 612 m 376 530 q 339 637 370 593 q 246 686 303 688 q 234 678 237 686 q 235 663 231 670 q 233 655 232 660 q 228 297 235 343 q 233 283 227 288 q 233 276 233 280 q 246 260 233 260 l 256 260 q 267 256 260 254 q 278 264 273 257 q 376 530 386 416 z "},"E":{"ha":614,"x_min":24,"x_max":578,"o":"m 545 47 q 541 48 543 48 q 531 45 536 48 q 528 45 530 45 q 213 31 306 45 q 210 87 205 65 q 213 95 212 90 q 211 107 216 102 q 178 511 211 119 q 174 618 174 547 q 172 726 174 691 q 157 798 171 736 q 155 870 148 842 q 326 859 218 870 q 496 844 452 846 q 494 706 490 814 q 434 715 471 714 q 380 713 422 715 q 368 713 376 713 q 355 713 361 715 q 344 711 349 713 q 334 699 335 709 q 340 686 332 690 q 342 685 338 686 q 347 602 342 673 q 345 520 350 552 q 356 503 343 507 q 372 511 370 499 q 487 509 481 508 q 488 454 485 492 q 489 402 491 417 q 489 397 488 399 q 438 385 475 389 q 399 383 412 382 q 387 390 396 390 q 383 389 386 390 q 378 389 380 389 q 364 375 365 389 q 366 286 363 360 q 361 197 366 232 q 371 181 359 186 q 371 181 372 180 q 446 173 382 169 q 494 178 461 174 q 543 182 526 181 q 545 158 543 173 q 549 134 549 138 q 549 91 551 117 q 545 47 545 56 m 171 36 q 181 50 176 43 q 186 25 182 38 q 171 36 179 30 m 137 69 q 137 69 138 69 q 167 94 149 72 q 182 115 174 103 q 182 93 182 104 q 180 66 180 81 q 174 64 176 66 q 161 45 170 57 q 137 69 149 56 m 129 79 q 94 121 120 89 q 93 134 98 127 q 92 136 95 132 q 176 241 127 212 q 178 205 177 223 l 178 205 q 142 161 163 191 q 108 116 119 128 q 109 106 104 111 q 118 106 113 101 q 149 146 130 119 q 180 186 168 174 q 182 140 181 163 q 162 111 170 121 q 134 83 144 85 q 129 79 130 82 m 79 169 q 81 171 80 170 q 171 287 102 217 q 174 255 173 271 q 170 254 172 255 q 84 151 121 227 q 79 169 81 159 m 73 220 q 168 322 94 259 q 170 299 168 315 q 162 298 165 301 q 75 191 98 233 q 73 220 73 204 m 98 319 q 76 298 80 302 q 76 309 77 304 q 76 325 76 314 q 81 329 80 326 q 157 414 93 363 q 161 380 159 403 q 98 319 161 380 m 78 269 q 126 327 75 279 l 163 361 q 165 339 165 347 q 74 248 94 277 q 75 261 74 254 q 78 269 81 263 m 153 467 q 156 430 154 452 q 75 349 89 375 q 73 396 74 370 q 153 467 97 431 m 67 471 q 71 474 70 472 q 148 551 101 526 q 149 525 149 536 q 151 484 150 507 q 71 417 97 448 q 67 471 68 469 m 65 515 q 148 591 79 533 q 148 566 148 579 q 66 492 101 544 q 65 515 65 506 m 64 538 q 64 556 64 537 q 105 602 79 575 q 149 646 143 640 q 149 608 149 633 q 146 608 147 608 q 64 536 66 538 q 64 536 64 536 l 64 538 m 62 621 q 69 623 66 621 q 72 630 73 625 q 81 644 72 631 q 102 671 88 654 q 142 708 129 700 q 144 718 148 711 q 135 720 141 724 q 85 671 117 710 q 62 642 65 648 q 62 680 62 665 q 98 720 74 697 q 138 757 132 750 q 140 749 140 751 q 149 667 147 714 q 106 622 135 652 q 63 577 77 593 q 62 621 62 593 m 59 741 q 62 749 64 744 q 64 751 62 748 q 74 759 67 753 q 99 779 81 766 q 129 801 133 804 q 134 774 131 789 q 98 738 123 760 q 61 702 72 714 q 59 741 60 722 m 57 764 q 57 768 57 767 q 54 802 56 783 q 86 836 59 810 q 125 869 112 861 q 126 817 121 847 q 122 813 124 814 q 84 785 106 806 q 76 779 79 782 q 57 764 59 766 m 54 859 q 63 867 58 862 q 68 870 66 867 q 99 900 79 885 q 119 886 109 893 q 115 885 116 886 q 84 857 106 878 q 54 829 65 838 q 54 859 54 845 m 54 939 q 87 908 68 924 q 56 877 67 893 q 56 870 54 873 q 54 868 53 867 l 54 870 q 54 905 54 876 q 54 939 53 926 m 123 945 q 113 939 116 941 q 102 932 103 933 q 86 945 93 939 q 123 945 102 945 m 126 931 q 153 948 145 943 q 184 951 176 950 q 186 951 181 950 q 141 918 185 950 q 140 908 136 914 q 149 906 143 902 q 209 951 199 943 q 256 951 230 952 q 180 899 214 921 q 178 897 179 899 q 164 898 159 898 q 155 901 160 901 q 153 900 154 900 q 147 900 151 900 q 142 905 146 903 q 123 917 134 910 q 126 918 126 918 q 126 931 135 924 m 296 949 q 276 937 283 942 q 231 897 239 915 q 231 895 231 897 q 202 897 214 897 q 278 950 237 920 q 296 949 283 950 m 347 947 q 282 905 318 927 q 279 896 276 902 q 289 893 283 890 q 370 946 335 921 q 387 945 387 945 q 388 945 388 945 q 389 944 389 944 q 328 887 338 901 q 246 895 278 892 q 292 931 255 908 q 321 948 296 933 q 347 947 332 947 m 399 935 q 413 922 404 930 q 376 888 405 913 q 374 882 373 886 q 344 885 370 883 q 399 935 352 895 m 422 911 q 467 874 449 886 q 389 881 435 876 q 422 911 414 902 m 375 581 q 399 574 382 575 q 381 551 387 561 q 384 543 378 546 q 393 545 390 538 q 418 574 399 554 q 429 573 425 574 q 432 572 430 572 q 435 568 433 571 q 413 539 416 545 q 413 537 413 538 q 375 540 385 539 q 375 581 376 557 m 446 560 q 454 556 450 558 q 432 538 441 545 q 429 536 430 537 l 427 536 q 446 560 431 543 m 469 549 q 492 538 486 541 q 451 534 474 534 q 469 549 458 541 m 393 246 q 397 244 399 244 l 410 244 q 391 221 401 235 q 393 246 393 233 m 404 201 q 403 199 403 200 q 401 199 402 199 q 400 197 401 198 q 391 200 394 198 q 400 199 395 200 q 404 201 402 199 m 443 244 q 406 203 420 216 q 404 214 411 210 q 429 244 420 238 l 443 244 m 458 241 q 469 235 461 239 q 458 221 463 227 q 443 207 447 208 q 439 199 436 205 q 420 197 428 197 q 458 241 440 215 m 501 217 q 489 205 495 210 q 477 204 480 204 q 459 201 475 203 q 467 210 461 203 q 481 228 473 217 q 501 217 490 223 m 577 122 q 573 156 578 131 q 572 190 569 178 q 573 197 573 193 q 566 212 577 208 q 560 219 565 216 q 465 271 467 269 q 447 273 463 273 l 397 273 q 393 273 391 273 q 392 314 393 283 q 392 355 392 340 q 444 357 407 353 q 509 376 491 362 q 515 391 517 382 q 516 394 515 393 q 517 461 519 412 q 518 517 515 507 q 525 530 526 521 q 515 548 532 543 q 509 560 516 555 q 477 577 505 564 q 461 585 460 585 q 461 585 461 585 q 459 591 463 589 q 452 593 456 594 q 452 593 452 594 q 435 602 449 607 q 423 603 429 612 q 422 602 422 603 l 422 602 q 410 602 417 602 q 396 603 400 603 q 393 603 394 603 q 374 608 387 614 q 370 687 370 668 q 394 687 378 688 q 416 686 410 686 q 498 673 472 688 q 516 677 509 667 q 523 688 523 680 q 526 849 521 830 q 528 857 529 852 q 524 871 532 866 q 510 873 518 876 q 503 886 511 882 q 445 928 477 897 q 391 978 400 971 q 374 974 380 987 q 347 975 363 975 q 339 975 343 978 q 201 979 231 981 q 56 980 73 974 q 47 979 51 981 q 33 970 36 980 q 26 890 24 946 q 28 781 28 778 q 36 538 31 737 q 37 496 36 520 q 37 494 35 492 q 38 486 35 490 q 48 298 48 307 q 58 140 50 161 q 56 137 57 138 q 55 134 56 135 q 59 121 52 128 q 182 -7 147 15 q 203 2 197 -15 q 207 2 205 2 q 528 17 298 18 q 533 18 530 17 q 536 16 534 17 q 555 19 545 10 q 568 20 562 16 q 574 31 574 23 q 577 122 574 24 z "},"F":{"ha":671,"x_min":54,"x_max":624,"o":"m 515 390 q 547 424 537 412 q 546 433 551 429 q 536 433 541 437 q 494 387 532 427 q 457 383 473 385 q 541 477 481 420 q 549 477 551 477 q 553 395 547 446 q 515 390 531 392 m 437 404 q 437 406 437 406 q 484 473 452 436 q 521 477 500 475 q 441 384 466 424 q 437 404 437 399 m 433 427 q 431 462 430 446 q 437 463 434 462 q 462 469 449 467 q 433 427 444 447 m 434 493 q 469 528 458 512 q 502 516 490 521 q 490 502 497 511 q 435 491 460 498 q 434 493 435 492 m 422 502 q 415 500 418 502 q 411 503 414 502 q 407 505 408 505 q 436 541 429 527 q 456 533 444 537 q 422 502 446 519 m 353 389 q 349 395 353 393 q 341 393 345 397 q 267 424 265 425 q 252 414 255 427 q 260 397 249 402 q 253 355 252 385 q 254 250 256 272 q 250 146 254 250 q 252 30 247 68 q 204 47 223 40 q 155 79 156 67 q 142 91 155 91 q 136 288 140 118 q 125 525 133 421 q 113 641 123 565 q 100 757 103 720 q 98 807 100 764 q 94 857 96 837 q 90 936 84 918 q 119 922 94 933 q 221 880 149 907 q 295 852 277 858 q 334 843 309 848 q 374 835 364 838 q 444 797 422 823 q 458 793 450 791 q 457 791 457 791 q 441 713 439 764 q 445 671 442 701 q 448 629 448 644 q 444 635 446 633 q 340 697 409 666 q 330 702 338 706 q 262 733 281 724 q 245 728 252 739 q 245 711 239 720 q 245 640 237 685 q 254 568 255 586 q 261 554 253 559 q 275 553 269 550 q 289 545 279 545 q 290 543 286 545 q 303 535 293 541 q 342 511 315 528 q 404 475 410 471 q 413 379 400 444 q 353 389 387 376 m 385 229 q 393 184 387 222 q 331 138 380 171 q 275 87 291 111 q 275 110 275 99 q 275 110 275 111 q 321 176 283 144 q 354 203 328 182 q 385 229 374 218 m 400 138 q 284 39 342 103 q 279 45 283 43 q 277 60 278 52 q 328 121 288 92 q 363 144 334 125 q 395 168 384 158 q 400 138 398 151 m 402 123 q 404 89 404 104 q 376 63 395 80 q 347 38 357 47 q 298 33 322 33 q 402 123 350 90 m 404 54 q 375 44 390 48 q 390 57 378 47 q 404 70 399 64 q 404 54 404 61 q 404 54 401 53 m 275 144 q 277 174 275 159 q 283 178 281 173 q 367 259 297 218 q 369 268 373 262 q 359 271 365 274 q 278 199 298 235 q 280 232 279 216 q 281 238 280 231 q 366 330 307 292 q 367 340 371 334 q 357 342 363 345 q 284 271 313 312 q 286 317 286 298 q 283 333 285 321 q 280 352 281 346 q 287 385 277 376 q 288 387 288 385 q 320 373 293 385 q 286 342 285 342 q 286 333 281 338 q 296 334 292 329 q 315 351 303 340 q 334 367 330 363 q 380 353 361 356 q 383 243 370 328 q 378 241 380 243 q 323 195 368 231 q 275 144 290 167 m 149 952 q 177 956 160 954 q 152 937 151 936 q 121 949 132 944 q 135 950 126 949 q 149 952 144 951 m 208 960 q 247 966 230 964 q 190 926 216 935 q 186 923 188 926 q 170 930 164 932 q 168 930 170 930 q 174 935 170 932 q 180 940 178 939 q 208 960 200 956 m 280 966 q 292 956 283 961 q 231 909 243 923 q 229 907 229 908 q 203 916 200 918 q 267 966 233 928 q 280 966 277 966 m 305 947 q 307 949 305 947 q 330 939 316 943 q 302 917 321 931 q 274 895 283 903 q 272 890 272 892 q 263 893 266 892 q 253 897 259 895 q 243 901 245 901 q 305 947 250 910 m 344 932 q 368 924 353 929 q 349 909 360 919 q 321 885 326 888 q 317 878 317 883 q 286 886 298 882 q 314 909 294 895 q 342 932 334 923 q 344 932 343 932 m 384 918 q 388 917 385 918 q 392 916 391 916 q 402 912 397 914 q 357 878 369 884 q 355 869 352 875 q 331 875 346 871 q 357 897 340 880 q 384 918 374 913 m 413 908 q 481 881 452 894 q 429 843 452 867 q 416 850 422 847 q 422 854 418 851 q 448 881 429 861 q 446 890 452 886 q 437 890 441 895 q 418 870 425 877 q 402 855 405 857 q 366 867 387 861 q 410 901 378 873 q 413 908 414 903 m 496 873 q 522 860 509 867 q 476 828 524 861 q 475 819 471 824 q 484 817 479 812 q 536 852 536 852 q 550 843 543 848 q 550 843 550 843 q 523 824 521 823 q 519 833 525 830 q 510 829 513 836 q 503 819 508 823 q 500 812 499 817 q 499 806 498 809 q 488 808 492 806 q 471 807 479 814 q 467 813 470 810 q 441 836 456 826 q 492 871 465 859 q 496 873 495 871 m 561 836 q 583 819 573 827 q 547 814 572 818 q 525 809 549 814 q 558 831 529 811 q 561 836 560 833 m 591 785 q 587 785 589 785 q 470 692 518 756 q 469 726 469 712 q 475 724 471 724 q 481 730 480 726 q 513 762 485 741 q 545 784 524 770 q 592 791 578 791 q 591 785 592 793 m 591 735 q 528 694 578 722 q 474 645 488 673 q 471 672 473 654 q 474 674 473 673 q 591 770 522 741 q 591 735 590 756 m 483 779 q 484 781 483 779 q 512 778 496 777 q 498 768 505 772 q 469 736 476 751 q 483 779 472 762 m 379 604 q 380 590 380 595 q 361 589 375 590 q 379 604 376 602 m 288 644 q 321 675 296 654 q 338 667 329 671 q 277 609 338 667 q 271 697 264 675 q 307 682 283 692 q 277 652 286 664 q 278 643 273 648 q 288 644 283 638 m 361 647 q 283 576 338 604 q 281 574 283 575 q 280 593 281 583 q 283 595 281 593 q 318 627 288 601 q 351 661 340 646 q 378 647 366 654 q 378 617 376 635 q 371 616 374 619 q 337 586 331 581 q 323 585 322 584 q 373 641 357 610 q 370 650 376 647 q 361 647 363 653 m 393 562 q 379 547 389 556 q 370 538 374 541 q 366 534 368 536 q 365 534 366 534 q 361 533 363 534 q 349 541 351 539 q 325 556 353 538 q 388 562 357 562 q 389 562 387 562 q 393 562 391 562 m 406 555 q 423 547 412 551 q 395 513 417 534 q 376 524 370 528 q 406 555 389 534 m 515 510 q 526 505 523 507 q 510 504 519 505 q 515 510 514 509 m 581 395 q 576 480 575 450 q 578 497 583 487 q 568 511 579 509 q 552 505 556 515 q 549 505 552 505 q 545 526 557 519 q 475 555 526 538 q 408 587 429 571 q 406 609 408 593 q 405 631 404 623 q 425 614 416 622 q 438 611 431 608 q 447 620 444 613 l 447 615 q 456 601 446 605 q 471 602 465 596 q 587 623 486 604 q 599 639 600 625 q 584 650 597 653 q 546 643 573 648 q 566 663 551 648 q 585 682 577 675 q 585 692 589 686 q 576 693 581 697 q 545 663 569 686 q 516 637 524 642 q 475 631 492 633 q 475 637 475 633 q 486 638 481 629 q 591 717 481 629 q 593 656 593 675 q 606 644 593 643 q 621 659 621 646 q 618 730 621 671 q 622 800 617 773 q 613 816 624 812 q 610 833 618 825 q 435 930 549 888 q 398 943 425 934 q 361 956 374 951 q 323 972 341 964 q 309 979 317 974 q 298 993 311 991 q 176 983 283 995 q 83 978 91 975 q 64 972 71 983 q 67 954 58 961 q 60 880 54 928 q 66 840 60 871 q 71 803 70 816 q 94 561 71 791 q 107 312 103 480 q 116 71 113 94 q 134 59 118 56 q 172 31 142 46 q 248 2 194 20 q 264 5 257 -1 q 267 5 265 5 q 413 27 345 0 q 417 30 415 28 q 432 41 430 28 l 433 50 q 432 57 434 52 q 416 216 433 74 q 412 246 415 227 q 408 276 409 267 q 408 345 400 334 q 410 351 409 347 q 418 351 414 351 q 424 353 421 352 l 425 353 q 475 357 448 354 q 485 357 480 351 q 486 357 485 357 q 486 358 486 357 q 563 368 505 360 q 578 371 572 365 q 586 383 585 375 q 581 395 586 391 z "},"G":{"ha":755,"x_min":-27,"x_max":734,"o":"m 549 52 q 409 19 488 17 q 271 57 330 20 q 193 136 226 85 q 195 144 199 139 q 186 147 192 150 q 149 237 163 186 q 134 458 117 345 q 217 663 151 576 q 408 826 296 766 q 650 868 536 895 l 650 867 q 650 867 650 867 q 648 820 648 850 q 648 772 648 783 q 644 734 647 758 q 638 696 640 707 q 637 688 638 693 q 636 680 637 682 q 368 609 486 708 q 275 338 243 503 q 334 225 289 270 q 338 214 333 218 q 359 204 345 206 q 468 184 409 172 q 555 260 526 195 q 574 379 579 315 q 564 392 574 389 q 549 387 554 395 q 544 386 546 387 q 487 366 532 380 q 454 357 471 361 q 445 355 452 356 q 439 359 443 357 q 436 376 438 366 q 433 393 433 390 q 429 442 425 433 q 433 444 431 443 q 545 479 445 454 q 703 526 663 509 q 705 428 708 498 q 695 286 702 320 q 549 52 664 117 m 152 93 q 185 100 157 94 q 211 71 197 84 q 152 93 178 79 m 138 101 q 87 144 110 119 q 146 163 104 144 q 161 135 153 149 q 129 128 144 127 q 122 122 122 129 q 129 115 122 115 q 169 123 147 114 q 176 113 172 119 q 164 110 175 113 q 146 107 151 106 q 138 101 140 109 m 77 159 q 56 195 64 175 q 122 227 115 224 q 140 176 130 201 q 78 159 96 155 l 77 159 m 50 208 q 41 236 45 222 q 76 254 53 243 q 111 272 100 265 q 119 240 115 256 q 50 208 108 237 m 29 294 q 67 308 43 296 q 104 323 92 321 q 109 286 106 305 q 73 268 96 279 q 37 250 48 256 q 29 293 33 270 l 29 294 m 23 357 q 31 354 26 353 q 102 385 24 352 q 102 380 102 377 q 102 337 101 359 q 65 321 91 335 q 27 308 42 309 q 23 357 24 332 m 23 365 q 24 410 22 389 q 106 451 40 413 q 102 400 103 426 q 64 382 94 397 q 26 368 42 372 q 23 365 24 367 m 29 467 q 103 508 65 496 q 107 516 109 510 q 99 521 105 523 q 33 487 65 511 q 46 545 38 517 q 133 568 83 565 q 136 569 134 568 q 108 463 117 519 q 100 464 104 466 q 24 424 35 427 q 29 467 26 446 m 66 604 q 124 708 88 654 q 132 707 128 705 q 256 747 137 711 q 209 696 231 724 q 202 697 206 699 q 153 682 191 693 q 104 665 123 672 q 100 656 98 663 q 109 652 102 650 q 197 681 104 651 q 181 659 189 669 q 101 637 133 633 q 93 631 94 638 q 98 624 91 625 q 168 637 128 620 q 139 578 152 608 q 133 582 138 583 q 52 563 88 579 q 66 604 58 585 m 161 760 q 237 777 189 764 q 314 796 290 791 q 280 770 297 784 q 275 769 278 770 q 206 749 255 760 q 137 726 160 737 q 161 760 149 743 m 206 814 q 210 806 206 809 q 218 808 214 804 q 309 842 231 825 q 405 854 367 854 q 332 810 368 836 q 325 813 330 814 q 250 795 297 808 q 175 777 195 781 q 206 814 190 795 m 223 832 q 252 861 237 848 q 258 860 254 859 q 530 908 415 907 q 536 916 536 908 q 530 922 536 922 q 269 878 418 922 q 314 914 292 899 q 363 920 326 915 q 371 918 367 917 q 433 928 394 924 q 495 935 481 932 q 500 942 501 936 q 502 941 500 942 q 504 941 503 941 q 509 936 504 937 l 513 935 q 518 935 516 934 q 535 927 522 933 q 552 920 546 922 q 588 903 547 922 q 424 864 509 903 q 418 868 422 868 q 304 855 378 869 q 220 829 239 842 q 222 831 221 830 q 223 832 222 831 m 458 963 q 486 948 460 960 q 488 947 489 947 q 442 943 472 945 q 397 938 412 940 q 396 938 395 938 q 340 931 387 937 q 458 963 401 966 m 494 317 q 506 342 499 332 q 506 343 505 342 q 547 357 531 351 q 546 341 547 351 q 494 317 513 329 m 495 301 q 545 326 513 313 q 539 298 543 311 q 536 297 537 298 q 486 277 514 284 q 490 300 486 278 q 495 301 493 299 m 445 220 q 481 262 471 232 q 532 279 510 269 q 486 222 517 240 q 485 229 488 225 q 478 231 482 232 q 421 212 426 212 q 445 220 435 216 m 411 345 q 374 365 388 350 q 406 378 393 372 q 413 345 412 353 q 411 345 412 345 m 363 406 q 399 423 363 406 q 403 393 399 411 q 369 378 389 385 q 363 406 368 389 m 359 420 q 351 473 350 454 q 374 460 357 468 q 364 455 368 457 q 362 446 358 451 q 372 443 366 439 q 391 450 380 448 q 395 447 393 448 q 399 444 397 445 q 399 439 399 441 q 379 429 394 437 q 359 420 367 422 m 444 523 q 384 487 404 505 q 383 486 384 487 q 368 496 368 494 q 368 498 368 496 q 444 523 388 506 m 464 517 q 469 519 467 517 q 469 519 467 518 q 471 520 470 520 q 472 521 472 521 q 475 524 474 522 q 489 530 478 526 q 514 540 499 534 q 518 549 521 543 q 604 583 587 577 l 605 583 q 605 583 605 583 q 532 532 597 578 q 456 489 489 501 q 452 486 452 488 q 422 471 434 479 q 413 468 417 471 q 397 479 406 473 q 464 517 416 496 m 621 576 q 638 572 627 575 q 655 568 651 570 q 562 512 615 543 q 530 505 542 507 q 507 499 522 502 q 564 538 524 509 q 621 576 600 565 m 673 563 q 678 560 676 562 q 687 553 682 554 l 693 551 q 609 524 670 539 q 673 563 643 544 m 731 363 q 726 548 734 522 q 713 558 724 558 q 714 561 714 559 q 704 578 718 574 l 698 579 q 695 581 697 579 q 692 585 694 584 q 652 598 677 593 q 650 599 652 598 q 642 602 648 604 q 639 601 645 604 q 612 611 621 604 q 591 608 600 622 q 528 584 568 600 q 464 559 483 566 q 399 538 455 556 q 335 514 359 526 q 328 501 326 510 q 327 498 328 499 q 328 433 319 473 q 342 368 341 378 q 343 360 342 364 q 344 359 344 359 q 344 359 344 359 q 345 359 345 358 q 345 357 345 357 q 404 318 366 326 q 420 328 417 315 q 427 326 424 326 q 431 324 429 325 q 471 332 444 321 q 447 256 450 262 q 398 236 435 241 q 364 233 374 233 q 362 235 364 233 q 353 243 361 241 q 298 380 307 295 q 405 601 283 515 q 652 648 522 682 q 666 651 661 646 q 669 665 671 657 q 671 678 673 671 q 663 688 669 686 q 669 734 663 701 q 675 772 675 770 q 677 819 677 787 q 679 865 676 848 q 682 883 688 872 q 671 899 684 896 q 658 911 669 911 q 559 947 646 911 q 530 958 555 949 q 497 971 509 966 q 487 987 500 985 q 221 871 363 1012 q 39 610 98 749 q 5 271 -27 455 q 68 124 20 184 q 257 33 125 52 q 258 33 257 33 q 264 28 263 29 q 508 5 363 -33 q 669 138 606 31 q 731 363 729 239 z "},"H":{"ha":838,"x_min":18,"x_max":818,"o":"m 788 77 q 752 27 780 57 q 744 25 747 29 q 730 3 741 21 q 699 -29 714 -14 q 694 -34 698 -30 q 772 78 740 37 q 770 87 775 83 q 762 87 766 93 q 669 -45 728 43 q 657 12 662 -20 q 751 153 680 59 q 749 162 755 159 q 739 161 743 165 q 654 35 677 77 q 650 85 652 47 q 751 233 661 128 q 785 84 750 138 q 789 80 787 82 q 788 77 789 79 m 644 149 q 691 227 652 183 q 753 299 751 296 q 751 254 752 273 q 647 116 657 139 q 644 149 645 134 m 590 -54 q 515 -39 522 -47 q 500 -36 509 -31 q 490 53 501 -39 q 469 185 477 151 q 455 231 465 201 q 441 278 446 262 q 429 357 422 351 q 431 374 438 365 q 414 379 424 384 q 411 380 412 380 q 286 418 328 394 q 267 413 274 425 q 272 395 260 401 q 282 389 275 393 q 294 281 283 346 q 313 174 311 189 q 338 -9 336 1 q 337 -10 337 -10 q 326 -4 334 -4 q 228 27 281 -7 q 205 87 216 39 q 193 182 199 119 q 158 399 184 281 q 146 466 153 423 q 134 533 138 513 q 98 658 125 570 q 52 911 47 825 q 130 875 75 905 q 211 844 179 850 q 225 717 206 824 q 230 644 224 722 q 252 576 233 600 q 263 572 256 570 q 272 579 269 573 q 405 530 402 532 q 424 538 418 522 q 433 551 434 541 q 417 681 433 579 q 397 800 398 805 q 403 800 400 799 q 576 705 404 800 q 578 705 576 705 q 593 495 579 633 q 609 286 608 355 q 622 94 611 208 q 633 -9 630 9 q 633 -10 633 -9 q 632 -12 632 -12 q 635 -20 629 -17 q 646 -62 640 -43 q 590 -54 633 -59 m 390 12 q 446 100 450 104 q 446 109 451 104 q 437 109 441 114 q 400 55 422 94 q 363 0 378 15 q 351 77 357 32 q 421 180 353 79 q 419 189 425 185 q 410 186 414 192 q 381 140 406 180 q 349 95 363 111 q 346 123 348 107 q 424 241 356 159 q 430 221 426 234 q 436 200 434 206 q 462 62 449 156 q 463 54 463 58 q 426 34 448 47 q 390 12 399 17 m 328 267 q 386 353 383 351 q 388 357 387 355 q 401 354 401 354 q 406 313 400 343 q 406 312 406 313 l 406 312 q 397 309 400 315 q 365 267 388 294 q 332 224 342 239 q 325 265 331 235 q 328 267 326 266 m 312 347 q 310 377 310 364 q 334 369 321 373 q 312 347 319 353 m 349 365 q 373 359 360 362 q 321 283 362 348 q 314 332 317 312 q 349 365 321 336 m 339 184 q 336 203 338 193 q 371 253 346 223 q 408 301 399 288 q 419 258 412 283 q 342 153 354 176 q 339 184 340 171 m 81 935 q 146 957 104 944 q 99 922 121 934 q 79 931 88 927 q 81 935 81 932 m 174 965 q 235 985 211 977 q 235 985 235 985 q 235 985 235 985 q 189 943 220 973 q 142 903 159 916 q 140 900 141 901 q 127 907 136 903 q 113 914 118 912 q 172 962 136 928 q 174 965 174 963 m 247 977 q 270 964 256 971 q 265 963 267 964 q 193 888 271 968 q 193 879 188 884 q 202 879 197 874 q 275 953 280 958 q 275 962 279 957 q 335 939 299 950 q 315 916 323 927 q 310 921 314 920 q 302 918 305 922 q 275 884 294 903 l 267 879 q 248 870 258 875 q 239 867 250 871 q 241 863 237 867 q 227 865 235 869 q 226 865 225 865 q 218 871 223 869 q 153 894 190 876 q 200 935 170 907 q 247 977 231 964 m 350 934 q 365 929 360 930 q 332 915 351 925 q 350 934 340 924 m 236 798 q 237 838 233 821 q 286 858 247 838 q 292 862 288 860 q 236 798 261 829 m 377 849 q 376 848 376 848 q 333 802 363 831 q 291 756 302 774 q 273 726 286 749 q 254 694 262 705 q 252 718 254 708 q 246 746 251 728 l 248 746 q 369 870 286 770 q 368 880 373 875 q 359 880 363 884 q 243 760 278 782 q 239 781 240 772 q 330 883 273 822 q 332 886 332 884 q 371 903 355 899 q 377 849 370 878 m 378 829 q 372 773 368 806 q 258 627 364 764 q 254 675 254 644 q 294 738 260 680 q 334 785 307 758 q 378 829 370 819 q 378 829 378 829 m 333 589 q 305 597 309 596 q 373 628 336 616 q 333 589 348 607 m 381 579 q 404 590 393 579 q 406 561 406 574 q 347 584 383 573 q 391 625 361 602 q 391 633 395 629 q 393 634 396 635 q 398 636 396 635 q 401 610 400 625 q 397 603 399 606 q 381 593 387 593 q 375 586 375 593 q 381 579 375 579 m 394 660 q 387 661 391 661 q 357 652 372 656 q 383 696 362 659 q 380 705 386 702 q 371 703 374 709 q 335 643 345 655 q 283 616 307 631 q 267 610 273 620 q 266 608 267 611 q 264 608 264 608 q 262 614 263 610 q 267 616 264 614 q 375 755 376 757 q 384 712 375 754 q 394 660 390 686 m 470 830 q 485 836 477 833 q 484 835 484 836 q 483 834 483 834 q 446 812 456 810 q 439 808 441 812 q 427 817 430 814 q 470 830 433 817 m 536 857 q 554 854 541 857 q 491 782 511 823 q 490 779 490 781 q 454 798 470 789 q 481 814 465 801 q 501 832 489 821 q 521 850 515 846 q 536 857 530 854 m 573 851 q 611 842 591 847 q 609 841 610 842 q 528 760 569 814 q 501 773 511 768 q 503 775 503 774 q 573 851 525 821 m 616 841 q 660 827 638 835 q 578 744 639 814 q 577 735 574 740 q 541 754 560 744 q 616 829 578 804 q 616 841 623 834 m 670 824 q 703 810 687 818 q 702 810 703 810 q 665 774 689 799 q 629 738 642 749 q 599 735 611 732 q 587 730 591 736 q 585 731 586 731 q 584 732 584 732 q 587 734 586 732 q 667 817 648 804 q 670 824 671 819 m 713 806 q 739 793 728 799 q 749 791 743 790 q 717 777 736 786 q 685 762 690 764 q 663 751 688 764 q 711 800 701 791 q 713 806 714 802 m 626 642 q 680 694 637 653 q 733 747 714 725 q 734 755 736 751 q 747 761 743 760 q 745 696 743 735 q 614 568 616 573 q 605 707 606 649 q 672 726 625 707 q 713 745 688 733 q 665 698 696 727 q 616 652 629 665 q 616 642 612 647 q 626 642 621 637 m 751 561 q 631 398 634 406 q 624 470 628 429 q 737 616 676 549 q 737 626 742 621 q 728 626 732 631 q 621 490 672 564 q 616 545 617 530 q 618 547 618 545 q 746 678 631 575 q 749 618 749 631 q 751 561 749 593 m 751 541 q 753 511 752 530 q 755 483 754 491 q 692 404 726 455 q 635 319 642 328 q 632 374 634 349 q 636 378 635 376 q 751 541 650 412 m 755 465 q 758 418 757 443 q 696 332 732 387 q 638 242 650 259 q 636 298 637 273 l 636 299 q 639 301 637 300 q 695 385 654 320 q 755 465 730 437 m 758 390 q 755 325 758 367 q 752 322 753 324 q 696 252 739 299 q 642 180 656 207 q 639 221 640 208 q 698 309 658 246 q 758 397 734 367 q 758 393 758 396 l 758 390 m 808 85 q 808 98 813 92 q 780 239 781 140 q 783 319 780 266 q 785 398 785 372 q 781 501 785 434 q 776 604 777 572 q 780 783 774 765 q 772 799 783 795 q 755 795 762 804 l 751 793 q 759 804 758 797 q 752 817 760 812 q 562 881 669 863 q 554 891 560 888 q 542 891 548 895 q 536 888 543 892 q 528 884 531 888 q 475 861 509 874 q 414 843 419 840 q 406 844 410 845 q 403 932 391 896 q 398 947 406 941 q 393 949 396 949 q 260 1000 290 981 q 258 1016 263 1008 q 245 1019 254 1023 q 149 986 213 1006 q 52 954 83 966 q 43 940 43 950 q 42 939 39 937 q 37 931 38 937 q 25 918 26 929 q 69 663 18 827 q 105 536 96 576 q 119 465 111 511 q 132 392 127 414 q 169 158 157 280 q 193 28 179 56 q 199 14 192 20 q 326 -32 265 -36 q 332 -30 329 -32 q 347 -36 337 -39 q 465 24 359 -32 q 481 -60 469 -35 q 501 -63 488 -75 q 555 -79 512 -73 q 652 -92 646 -90 q 668 -83 665 -97 q 677 -77 674 -81 q 741 -26 692 -75 q 814 71 800 37 q 808 85 818 80 z "},"I":{"ha":534,"x_min":48,"x_max":486,"o":"m 435 810 q 425 606 430 666 q 397 340 422 573 q 377 75 379 180 q 377 73 377 73 l 377 70 q 315 46 358 59 q 252 22 271 33 q 252 62 252 22 q 254 151 252 64 q 256 273 255 185 q 258 395 256 350 q 273 625 259 415 q 273 633 275 629 q 274 640 274 641 q 284 758 277 691 q 287 836 293 842 q 291 844 290 840 q 441 897 335 864 q 435 810 437 880 m 250 706 q 249 697 250 711 q 240 699 245 703 q 178 661 229 691 q 119 620 140 638 q 121 665 120 647 q 127 666 123 664 q 253 741 220 726 q 250 706 252 724 m 241 622 q 216 608 236 618 q 190 593 199 599 q 121 549 117 549 q 117 547 119 549 q 119 605 119 573 q 125 607 123 604 q 185 648 146 625 q 247 687 237 680 q 248 687 247 686 q 241 622 244 657 m 235 494 q 225 497 231 502 q 167 462 208 485 q 109 426 128 441 q 113 471 112 456 q 121 470 117 467 q 176 507 139 484 q 232 543 214 530 q 234 553 237 547 q 225 555 231 559 q 170 519 208 542 q 114 483 132 496 q 117 518 116 503 q 117 540 117 519 q 125 536 120 535 q 184 572 146 539 q 241 606 198 583 q 235 494 237 563 m 232 441 q 168 401 214 423 q 103 361 121 378 q 108 414 104 382 q 116 414 113 411 q 174 450 136 429 q 232 486 215 473 q 234 488 233 486 q 233 465 234 482 q 232 441 233 450 m 230 372 q 225 371 227 372 q 171 335 211 365 q 109 303 125 301 q 102 296 102 304 q 109 289 102 290 q 163 313 127 287 q 229 357 227 357 q 229 313 229 338 q 109 227 142 273 q 111 218 104 222 q 120 220 117 215 q 228 298 150 260 q 227 252 228 288 q 220 250 224 252 q 190 227 210 240 q 158 206 166 213 q 100 161 106 165 q 100 296 99 157 q 102 347 100 318 q 111 348 106 345 q 170 387 129 366 q 231 422 215 410 q 230 372 231 404 m 227 183 q 222 182 224 183 q 174 142 210 174 q 119 104 131 106 q 114 96 112 103 q 122 91 115 90 q 167 119 135 93 q 226 168 228 169 l 226 163 q 224 113 226 153 q 223 62 223 82 q 223 48 224 58 q 223 33 223 39 q 215 24 220 28 q 166 56 195 33 q 186 77 171 63 q 217 98 201 89 q 220 106 223 100 q 210 110 216 113 q 155 65 170 87 q 149 70 151 68 q 116 92 145 73 q 86 116 96 105 q 92 124 90 119 q 97 145 95 134 q 100 146 98 145 q 162 192 115 153 q 195 214 172 200 q 227 237 217 228 q 227 183 227 215 m 139 882 q 165 895 154 890 q 189 888 191 886 q 189 887 189 887 q 191 887 190 887 q 163 869 178 878 q 121 850 134 852 q 119 873 119 867 q 139 882 121 874 m 123 909 q 134 905 127 907 q 146 901 142 903 q 140 899 140 899 q 119 888 118 888 q 123 909 120 901 m 189 937 q 231 950 203 941 q 182 920 199 933 q 155 929 170 924 q 172 933 159 930 q 189 937 183 935 m 271 955 q 274 963 275 958 q 283 965 279 964 q 368 942 353 949 q 375 939 369 942 q 321 909 365 932 q 270 876 288 890 q 257 882 263 879 q 298 911 272 896 q 342 936 336 932 q 344 945 348 939 q 335 948 340 951 q 244 890 242 888 q 229 899 235 896 q 298 947 300 949 q 298 956 302 951 q 288 956 293 962 q 254 930 276 944 q 216 906 222 911 q 210 909 208 910 q 197 915 204 912 q 233 936 211 924 q 271 955 265 952 m 418 919 q 294 876 337 894 q 342 903 309 886 q 390 932 374 922 q 418 919 408 922 m 254 808 q 254 752 255 781 q 246 753 250 755 q 121 679 212 738 q 125 728 123 706 l 125 730 q 165 742 131 723 q 243 790 226 774 q 243 800 248 795 q 233 800 238 804 q 173 763 225 793 q 152 751 164 758 q 139 745 147 749 q 132 740 130 741 q 122 740 127 743 q 122 831 123 768 q 122 836 122 833 q 162 852 135 838 q 205 881 184 865 q 239 861 216 876 q 189 827 226 854 q 127 793 143 795 q 123 785 121 791 q 131 779 125 778 q 185 808 146 782 q 253 853 245 849 q 260 849 259 850 q 254 808 252 836 m 473 928 q 460 932 469 934 q 448 941 458 941 q 370 972 457 941 q 324 984 352 978 q 277 995 285 993 q 262 989 268 998 q 216 975 246 985 q 170 961 185 965 q 93 938 98 942 q 91 921 85 930 q 93 917 93 918 q 96 914 94 916 q 93 878 92 903 q 94 781 94 843 q 89 559 94 680 q 75 330 83 431 q 75 230 73 313 q 64 132 76 168 q 64 128 64 130 q 57 109 48 122 q 125 53 68 92 q 219 -6 207 -3 q 227 -6 223 -7 q 236 -18 228 -14 q 250 -15 244 -21 q 319 20 271 5 q 392 46 376 37 q 399 57 399 50 q 405 68 405 61 q 449 554 405 81 q 462 776 462 696 q 464 841 463 812 q 479 905 467 897 q 484 918 486 911 q 473 928 481 925 z "},"J":{"ha":725,"x_min":9,"x_max":695,"o":"m 661 381 q 606 317 608 320 q 603 360 606 334 q 608 363 606 360 q 661 446 627 407 q 661 381 662 413 m 647 278 q 637 277 641 286 q 598 207 625 252 q 606 276 605 242 q 607 289 607 281 q 659 362 614 315 q 647 278 655 319 m 642 259 q 611 172 629 206 q 573 117 588 129 q 589 166 582 138 q 591 173 589 165 q 593 175 592 174 q 644 263 635 245 q 643 261 643 262 q 642 259 643 260 m 557 163 q 524 92 545 116 q 401 28 481 41 q 262 39 328 16 q 113 149 182 67 q 74 241 83 182 q 71 264 73 249 q 67 287 68 280 q 62 309 66 295 q 56 330 58 324 q 64 332 63 332 q 95 339 81 335 q 208 370 149 343 q 219 364 212 365 q 283 237 222 277 q 360 230 323 210 q 409 295 393 248 q 413 408 418 326 q 393 547 410 459 q 340 852 345 806 q 378 859 354 856 q 416 862 410 861 q 502 878 458 869 q 516 839 503 865 q 539 741 529 812 q 563 505 557 613 q 572 390 564 490 q 576 276 578 321 q 557 163 576 235 m 91 379 q 98 380 94 377 q 159 415 118 400 q 227 441 215 435 q 229 446 229 442 q 233 446 235 447 q 214 406 224 429 q 211 404 213 405 q 92 369 149 373 q 88 368 90 369 q 68 363 80 366 q 91 379 78 370 m 127 429 q 193 439 126 429 q 109 404 119 410 q 104 403 106 405 q 70 379 80 387 q 127 429 77 387 m 256 425 q 266 385 258 408 q 249 365 259 376 q 250 387 248 376 q 245 401 252 396 q 256 425 250 414 m 271 371 q 275 357 274 361 q 279 345 277 352 q 262 317 269 321 q 261 315 262 316 q 250 350 253 332 q 271 371 263 362 m 286 331 q 303 304 294 316 q 288 272 295 290 q 269 298 278 283 q 265 305 267 302 q 269 307 267 305 q 286 331 277 313 m 332 283 q 332 281 332 281 q 315 252 329 271 q 298 262 307 255 q 312 296 304 281 q 332 283 321 288 m 343 279 q 369 275 356 275 q 337 251 357 257 q 329 250 334 250 q 343 278 340 267 q 343 279 343 277 m 372 904 q 406 922 393 915 q 410 922 408 920 q 496 964 418 924 q 515 964 505 964 q 424 913 498 956 q 395 901 417 910 q 366 886 375 893 q 353 884 359 885 q 372 904 368 899 m 417 946 q 444 966 447 968 q 471 965 454 966 q 427 941 440 947 q 419 943 424 947 q 401 933 412 939 q 417 946 410 941 m 518 927 q 510 911 513 918 q 456 899 477 903 q 518 927 486 916 m 536 965 q 553 966 545 966 q 539 953 546 960 q 528 941 533 947 q 524 941 526 942 q 422 893 468 923 q 422 893 422 894 q 397 890 408 891 q 395 889 400 890 q 439 909 444 911 q 534 961 513 951 q 536 965 536 962 m 588 958 q 592 938 589 950 q 596 918 595 923 q 597 911 596 916 q 598 905 598 907 q 548 840 554 861 q 548 841 549 840 q 532 882 532 876 q 534 886 533 884 q 540 903 543 892 q 560 932 545 914 q 588 958 574 947 m 608 847 q 603 850 607 850 q 597 846 598 850 q 564 780 589 827 q 563 785 564 781 q 562 791 562 789 q 553 829 558 814 q 559 833 558 828 q 601 891 563 854 q 608 847 604 871 m 615 805 q 572 728 618 810 q 575 720 570 724 q 583 722 580 718 q 600 755 588 731 q 618 787 611 776 q 618 787 618 787 q 626 738 621 770 q 625 736 625 737 q 581 661 608 700 q 578 677 578 677 q 566 762 572 728 q 568 764 568 763 q 573 770 570 766 q 574 774 574 772 q 608 843 600 823 q 609 845 608 844 q 615 805 612 823 m 640 650 q 638 648 639 649 q 589 576 615 622 q 583 644 586 614 q 629 718 611 682 q 640 650 635 683 m 650 581 q 594 490 616 537 q 590 555 591 531 q 642 634 621 609 q 650 581 646 606 m 656 519 q 661 463 660 491 q 601 377 623 422 q 598 412 599 398 q 595 463 597 431 q 652 564 616 515 q 656 519 655 538 m 692 442 q 658 719 690 511 q 635 859 640 840 q 625 926 633 865 q 617 979 617 981 q 606 998 620 994 q 589 1005 601 1009 q 441 996 558 995 q 433 994 437 996 q 428 991 430 993 q 424 989 426 990 q 418 983 420 986 q 402 972 414 980 q 382 956 394 966 q 349 922 381 956 q 306 873 307 880 q 305 867 304 870 q 311 847 298 855 q 346 633 317 774 q 382 420 375 491 q 382 307 390 341 q 378 307 380 307 q 300 377 325 295 q 286 454 279 448 q 290 469 293 461 q 279 479 288 477 q 260 483 271 491 q 252 482 256 484 q 115 458 258 484 q 106 451 109 456 q 49 401 56 408 q 16 349 14 366 q 16 349 16 349 q 15 349 15 349 q 12 341 9 346 q 21 338 16 336 q 22 338 21 338 q 23 339 22 338 q 25 338 24 338 q 34 294 27 323 q 42 252 40 266 q 67 160 50 192 q 219 26 104 90 q 365 -6 284 -9 q 508 38 446 -3 q 553 81 535 56 q 558 81 555 81 q 653 189 609 85 q 692 442 695 291 z "},"K":{"ha":975,"x_min":40,"x_max":958,"o":"m 838 102 q 760 79 755 79 q 751 75 755 79 q 515 260 597 191 q 509 265 515 267 q 441 326 472 298 q 437 341 442 334 q 427 353 435 350 q 413 349 419 357 q 411 346 413 349 q 399 336 402 345 q 402 319 395 326 q 403 319 403 319 q 404 318 404 318 q 422 231 404 301 q 444 133 431 194 q 464 34 459 56 q 379 30 435 34 q 294 25 321 26 q 290 42 294 22 q 283 94 288 54 q 277 146 281 112 q 270 198 272 182 q 246 412 249 391 q 216 637 222 598 q 199 743 204 720 q 186 833 187 806 q 189 833 188 833 q 252 848 200 835 q 316 858 291 858 q 327 857 321 855 q 328 857 331 857 q 353 674 340 779 q 355 648 353 670 q 359 616 357 629 q 380 566 365 578 q 397 566 389 559 q 412 566 404 562 q 419 580 420 569 q 457 679 418 612 q 459 683 459 680 q 478 720 473 706 q 515 825 500 771 q 522 850 520 843 q 529 869 525 858 q 531 875 530 872 q 536 880 534 876 q 672 881 645 878 q 634 781 660 843 q 595 681 604 707 q 543 574 572 620 q 514 506 519 538 q 513 499 513 503 l 513 491 q 518 480 513 486 q 520 475 518 479 q 602 399 532 452 q 665 342 623 382 q 728 286 705 303 q 865 180 800 232 q 911 130 884 165 q 916 125 913 127 q 878 113 901 121 q 838 102 848 104 m 618 115 q 626 125 621 119 q 627 130 627 127 q 660 104 656 108 q 618 115 663 103 m 581 130 q 601 144 576 127 q 604 149 603 146 q 611 142 606 146 q 619 136 616 138 q 618 135 618 136 q 604 119 609 122 q 587 126 595 122 q 581 130 586 127 m 567 138 q 546 154 556 146 q 570 175 545 154 q 594 155 572 173 q 581 146 593 155 q 570 140 574 140 q 567 138 568 140 m 535 163 q 503 193 519 176 q 528 209 512 195 q 560 182 544 196 q 536 163 543 165 q 535 163 536 163 m 496 201 q 474 224 484 212 q 491 240 484 234 q 518 217 497 235 q 514 214 513 212 q 501 206 505 207 q 496 201 496 205 m 466 233 q 458 241 461 237 q 449 245 454 246 q 443 267 445 261 q 441 275 443 269 q 438 286 439 282 q 481 248 457 269 q 466 233 474 241 m 256 13 q 250 16 255 14 q 236 26 244 20 q 258 60 243 34 q 261 34 260 45 q 263 21 261 37 q 256 13 260 17 m 224 35 q 205 51 216 41 q 252 111 243 99 q 255 79 254 90 q 254 78 254 79 q 227 33 224 31 q 225 34 226 33 q 224 35 224 35 m 191 66 q 189 68 190 67 q 189 70 189 71 l 189 71 q 184 92 189 69 q 214 130 196 104 q 244 169 234 158 q 247 147 247 149 q 250 123 248 138 q 244 121 247 124 q 197 60 235 110 q 191 66 192 64 m 170 159 q 203 194 181 169 q 237 229 224 218 q 243 182 239 205 q 239 181 240 182 q 210 144 227 169 q 180 107 191 118 q 170 159 175 134 m 156 227 q 158 227 157 227 q 231 290 176 237 q 235 243 234 255 q 200 210 220 232 q 167 173 174 180 q 156 227 159 212 m 144 288 q 224 353 210 347 q 229 306 226 335 q 153 239 164 245 q 144 288 149 265 m 131 356 q 214 429 180 385 l 214 429 l 214 429 q 219 391 217 404 q 222 366 220 382 q 141 302 201 357 q 131 356 134 337 m 117 433 q 156 470 119 435 q 203 513 210 519 q 213 439 206 493 q 205 438 209 442 q 129 370 174 397 q 117 433 120 415 m 186 575 q 186 584 191 579 q 178 584 182 589 q 105 502 169 574 q 98 549 101 528 q 119 571 104 555 q 172 622 161 614 q 174 631 177 625 q 166 633 171 636 q 125 594 151 623 q 96 564 96 564 q 90 618 92 593 q 170 703 110 637 q 170 713 174 708 q 162 713 166 717 q 88 634 106 652 q 85 688 86 662 q 92 694 87 689 q 111 712 98 701 q 137 732 117 718 q 162 754 153 745 q 162 763 166 759 q 154 764 158 768 q 125 738 144 753 q 94 713 102 720 q 85 706 97 716 q 85 718 85 720 l 85 741 q 85 765 85 757 q 149 827 129 799 q 149 826 149 826 q 150 825 150 825 q 157 821 153 822 q 169 730 159 785 q 186 641 184 651 q 201 529 193 595 q 170 498 190 516 q 136 469 141 473 q 115 448 112 446 q 108 486 111 472 l 186 575 m 81 819 q 81 823 81 821 q 117 848 92 825 q 140 834 130 842 q 139 833 139 834 q 85 781 122 810 q 81 819 84 802 m 71 874 q 71 873 72 873 q 104 854 82 865 q 101 851 102 852 q 77 836 84 836 q 71 874 69 865 m 149 895 q 186 902 157 897 q 142 870 171 888 q 125 878 136 873 q 110 886 115 884 q 130 890 115 887 q 149 895 142 893 m 206 906 q 241 916 227 910 q 267 894 245 911 q 277 885 272 889 q 207 869 281 886 q 244 901 243 900 q 244 909 248 905 q 236 910 240 914 q 210 887 228 902 q 184 865 192 873 q 181 864 180 864 q 175 861 178 863 q 161 857 167 862 q 154 863 158 859 q 206 906 189 885 m 401 632 q 393 608 396 618 q 389 627 391 614 q 401 632 395 629 m 387 640 q 380 690 384 659 q 454 741 414 709 q 415 661 447 723 q 413 656 414 659 q 387 640 397 642 m 379 760 q 482 822 454 798 q 464 766 471 784 q 378 704 416 725 q 372 754 376 730 q 379 760 376 755 m 406 828 q 444 854 418 838 q 481 879 470 870 q 483 888 486 882 q 475 890 480 893 q 446 870 465 882 q 416 851 422 854 q 421 863 419 857 q 427 882 423 868 q 449 890 433 883 q 475 907 466 899 q 490 894 484 899 q 506 892 497 888 q 498 871 503 886 q 490 846 494 861 q 385 777 460 814 q 406 828 392 796 m 450 930 q 467 916 456 926 q 448 905 460 911 q 432 897 435 897 q 450 930 441 922 m 514 940 q 566 942 551 941 q 524 912 557 934 q 515 909 519 912 q 511 917 515 913 q 486 939 502 924 q 500 939 492 939 q 514 940 510 940 m 586 945 q 589 945 590 946 q 605 930 594 937 q 581 918 592 922 q 577 911 577 916 q 547 912 552 912 q 586 945 574 930 m 616 923 q 628 917 621 921 q 639 911 636 912 q 597 911 622 910 q 616 923 606 916 m 944 130 q 943 130 944 130 q 943 130 943 130 q 942 146 947 138 q 930 154 938 155 q 921 167 926 158 q 913 180 915 177 q 865 220 909 184 q 743 313 814 262 q 631 416 730 323 q 590 446 623 422 q 553 481 564 465 q 545 500 559 494 q 583 581 548 524 q 623 673 599 606 q 666 779 631 693 q 706 887 693 844 q 707 905 713 894 q 691 915 702 916 q 688 914 690 915 q 685 914 686 914 q 684 917 684 916 q 644 945 675 926 q 613 964 616 960 q 608 978 614 972 q 596 983 604 983 q 584 978 589 983 q 527 972 571 975 q 456 976 465 970 q 446 978 451 979 l 444 978 q 441 978 443 978 q 437 977 439 978 q 427 966 428 975 q 426 964 426 964 q 428 951 425 956 q 401 893 418 940 q 383 850 395 877 q 365 808 370 819 q 355 876 360 846 q 345 888 354 886 q 325 889 335 889 q 292 913 314 896 q 271 930 281 922 q 263 939 267 934 q 260 943 260 942 q 248 954 257 953 q 233 947 238 954 q 149 928 215 941 q 110 919 142 926 q 70 911 85 913 q 57 909 63 913 q 50 897 51 905 q 50 896 50 896 q 42 886 44 892 q 47 842 40 877 q 56 742 56 797 q 75 505 55 631 q 157 75 104 317 q 157 68 157 72 q 212 4 159 45 q 286 -11 268 -39 q 287 -9 286 -11 q 291 -7 289 -8 q 292 -7 292 -7 q 385 -2 319 -7 q 478 2 445 3 q 492 18 492 1 q 495 31 497 23 q 477 117 489 59 q 460 202 467 174 q 585 99 531 123 q 629 85 600 92 q 674 71 660 77 q 726 54 713 54 l 745 40 q 765 47 758 30 l 830 66 q 944 98 924 95 q 958 115 958 99 q 944 130 958 132 z "},"L":{"ha":727,"x_min":20,"x_max":710,"o":"m 677 153 q 678 146 677 149 q 422 87 583 130 q 166 24 239 39 q 170 96 166 51 q 170 100 170 98 q 170 101 170 101 q 214 475 170 141 q 260 851 248 738 l 260 857 l 260 857 q 431 847 374 857 q 396 583 404 778 q 390 494 395 551 q 382 405 384 431 q 382 368 382 391 q 381 330 382 341 q 381 317 381 326 q 380 304 380 308 q 378 292 380 304 q 380 287 378 286 q 378 272 375 280 q 380 270 379 271 q 382 267 380 269 q 386 254 381 260 q 399 252 391 249 q 539 273 453 268 q 682 283 666 281 q 679 218 681 262 q 677 153 677 175 m 160 304 q 157 304 159 304 q 56 245 87 274 q 62 292 58 262 q 67 293 65 291 q 165 341 61 288 q 160 304 163 323 m 153 248 q 87 212 149 245 q 53 189 63 199 q 54 231 52 209 q 62 232 59 229 q 158 289 92 260 q 153 248 155 269 m 142 98 q 142 96 142 96 q 140 73 141 86 q 117 62 128 69 q 102 90 110 73 q 136 113 127 108 q 138 123 142 117 q 130 125 135 129 q 96 102 119 120 q 83 132 87 124 q 134 164 133 164 q 139 173 141 166 q 131 178 138 180 q 76 144 129 177 q 56 170 66 160 q 104 205 64 184 q 151 230 146 227 q 142 101 142 158 q 142 98 142 99 m 138 38 q 126 50 132 43 q 140 58 132 55 q 138 38 138 43 m 71 343 q 176 414 96 372 q 168 357 174 400 q 116 334 153 349 q 65 309 82 320 q 71 343 68 330 m 78 411 q 185 473 153 465 q 179 431 182 454 q 73 366 95 386 q 78 411 75 389 m 85 482 q 138 513 104 496 q 193 540 182 533 q 186 488 189 501 q 182 488 184 488 q 79 429 146 478 q 85 482 83 465 m 94 549 q 99 545 95 545 q 106 548 104 543 q 154 583 113 562 q 201 604 178 596 q 199 581 200 596 q 195 557 196 564 l 195 557 q 140 529 178 547 q 87 500 104 512 q 94 549 90 528 m 96 565 q 103 604 99 582 q 111 601 106 599 q 116 609 117 602 q 208 657 163 657 q 205 638 207 650 q 203 620 203 625 q 147 595 178 611 q 94 555 104 573 q 96 565 96 568 m 109 633 q 114 635 112 633 q 213 699 155 684 q 211 685 212 694 q 210 671 210 675 q 115 628 163 672 q 109 627 112 629 q 106 624 109 626 q 108 629 107 625 q 109 633 109 631 m 123 712 q 219 752 184 740 q 217 733 218 746 q 215 714 216 720 q 113 654 157 701 q 123 712 120 692 m 134 772 q 227 811 155 785 q 224 789 225 803 q 221 768 222 772 q 127 728 185 755 q 134 772 131 753 m 137 821 q 229 868 160 857 q 237 862 237 862 q 231 851 232 858 q 230 839 231 847 q 229 827 229 831 q 136 789 148 796 q 137 821 137 804 m 138 868 q 142 870 141 868 q 193 892 147 875 q 212 879 200 888 q 138 843 165 868 q 138 868 138 859 m 143 918 q 178 902 159 912 q 140 886 147 892 q 143 918 141 904 m 264 927 q 270 926 265 927 q 240 908 248 916 q 240 899 235 903 q 250 898 245 893 q 273 912 254 901 q 295 926 288 920 q 318 926 309 926 q 258 882 294 913 q 257 882 256 883 q 184 930 193 925 q 264 927 249 927 m 360 929 q 361 930 361 929 q 381 909 368 924 q 317 881 352 903 q 277 880 297 881 q 360 929 326 920 m 408 876 q 345 881 378 880 q 388 897 367 892 q 391 898 390 897 q 408 876 401 886 m 422 336 q 458 342 439 338 q 410 303 433 325 q 410 320 410 309 q 410 334 410 330 l 410 337 q 410 340 410 339 q 422 336 415 335 m 505 353 q 488 341 497 348 q 441 297 453 316 q 441 290 439 294 q 408 283 424 288 q 409 286 408 283 q 414 288 412 286 q 496 351 454 325 q 505 353 494 350 m 552 361 q 555 363 553 362 q 570 357 559 361 q 576 355 568 359 q 498 298 528 325 q 455 293 474 296 q 495 329 465 307 q 552 361 528 354 m 610 341 q 618 338 613 340 q 583 312 591 320 q 583 303 578 308 q 522 300 538 301 q 593 349 549 321 q 610 341 602 345 m 633 331 q 669 310 658 320 q 594 304 640 307 q 633 331 600 309 m 703 300 q 703 314 709 307 q 618 368 687 336 q 618 368 618 368 q 615 374 618 372 q 608 374 612 376 q 607 374 608 374 q 543 392 560 397 q 537 391 540 392 q 415 363 477 373 q 410 361 413 363 q 420 524 414 454 q 458 840 447 814 q 443 852 455 842 q 445 868 449 859 q 404 926 435 889 q 344 972 368 967 q 326 962 330 975 q 325 958 326 961 q 324 957 324 957 q 300 956 319 956 q 240 956 280 954 q 189 958 227 956 q 138 959 157 959 q 124 947 125 960 q 119 939 121 945 q 107 786 121 946 q 90 672 103 741 q 66 559 68 569 q 43 354 66 558 q 25 185 25 185 q 29 176 25 180 q 32 155 20 163 q 81 74 45 144 q 130 9 106 25 q 138 7 134 6 q 156 -6 140 -9 q 412 56 237 9 q 669 116 578 100 q 672 115 671 115 q 672 115 671 115 q 673 115 671 115 q 673 115 671 115 l 673 115 l 673 115 q 673 115 674 115 l 673 115 l 673 115 l 673 115 q 674 115 675 115 l 674 115 q 674 115 677 114 l 675 115 q 675 115 674 115 q 675 115 674 115 l 675 115 q 675 115 675 115 l 676 114 q 676 114 677 114 l 676 114 l 677 114 l 677 114 q 690 117 686 112 l 694 123 q 696 140 701 132 q 705 153 705 143 q 707 220 705 175 q 710 288 709 266 q 703 300 710 296 z "},"M":{"ha":1122,"x_min":29,"x_max":1103,"o":"m 1066 741 q 1063 740 1065 741 q 977 668 990 684 q 989 728 985 702 q 991 728 991 728 q 1029 749 1003 736 q 1067 770 1055 762 q 1068 770 1066 769 q 1066 741 1069 758 m 1046 669 q 1034 625 1041 651 q 988 579 1019 608 q 941 534 954 547 q 949 568 946 554 q 971 648 952 581 q 979 650 976 646 q 1061 721 997 673 q 1054 694 1059 710 q 1046 669 1048 675 m 1010 526 q 1009 526 1009 526 q 913 425 1002 514 q 937 521 915 433 q 947 520 943 515 q 987 559 962 535 q 1027 598 1017 587 q 1010 526 1015 547 m 986 431 q 978 428 980 433 q 895 347 964 397 q 901 372 899 361 q 907 398 903 380 q 954 445 921 414 q 1000 492 986 475 q 986 431 994 466 m 972 367 q 970 364 970 366 q 913 314 967 355 q 876 281 896 300 q 889 325 884 307 q 980 403 972 392 q 972 367 977 391 m 962 311 q 960 298 962 310 q 906 247 941 277 q 850 197 862 208 q 867 250 857 217 q 935 313 903 289 q 966 336 965 335 q 962 311 962 312 m 949 222 q 889 176 935 208 q 832 126 849 146 q 842 170 836 145 q 899 222 861 190 q 956 273 940 258 q 949 222 951 247 m 937 149 q 918 134 928 142 q 915 142 920 138 q 906 141 910 145 q 866 104 897 134 q 825 68 842 81 q 825 78 825 72 q 825 87 825 84 q 826 89 825 87 q 826 92 826 91 q 895 160 837 115 q 947 201 938 193 q 937 149 944 165 m 872 90 q 857 77 866 83 q 898 115 855 75 q 885 102 895 113 q 872 90 878 94 m 806 138 q 799 77 799 106 q 793 68 795 74 q 787 60 788 66 q 783 43 784 53 q 724 55 779 44 q 599 98 669 66 q 633 223 604 113 q 677 345 653 299 q 671 363 683 357 q 652 359 659 371 q 650 353 654 362 q 555 259 615 326 q 504 212 537 238 q 450 167 458 174 q 449 168 450 167 q 408 179 437 172 q 365 192 380 185 q 363 336 365 193 q 363 380 363 351 q 364 380 365 380 q 366 383 366 381 q 363 386 366 385 q 362 490 366 458 q 347 504 361 504 q 334 490 333 504 l 334 490 q 333 487 334 489 q 279 359 319 457 q 216 237 262 317 q 203 237 211 237 q 198 237 201 237 q 196 237 197 237 l 195 237 q 187 236 191 237 q 121 258 174 245 q 62 288 76 268 q 62 289 62 290 q 146 457 85 338 q 230 625 201 564 q 269 713 237 642 q 309 800 293 766 q 338 854 314 810 q 366 910 358 888 q 438 891 402 903 q 512 859 497 871 q 520 846 512 850 q 532 766 520 841 q 545 647 541 703 q 541 640 542 643 q 545 629 536 632 q 547 564 547 595 q 550 553 546 557 q 559 543 552 546 q 574 547 568 541 q 648 622 602 574 q 722 699 704 680 q 781 760 741 718 q 799 781 795 777 q 962 730 844 776 q 943 652 957 701 q 922 576 926 593 q 899 484 916 547 q 877 393 884 425 q 829 224 864 335 q 806 138 815 178 m 615 262 q 608 235 612 251 q 551 214 605 234 q 568 231 560 223 q 577 241 570 233 q 584 244 581 240 q 615 262 591 255 m 620 277 q 606 273 612 275 q 625 294 617 286 q 620 277 623 288 m 586 201 q 524 180 579 192 q 505 176 505 176 q 522 190 519 187 q 529 189 526 187 q 604 218 523 186 q 600 204 600 205 q 586 201 591 208 m 336 369 q 308 355 320 357 q 322 391 313 367 q 336 427 332 414 q 336 369 336 417 m 335 337 q 292 318 308 328 q 300 338 297 330 l 305 348 q 336 360 319 349 q 335 337 335 349 m 334 298 q 290 278 319 295 q 262 260 272 268 q 279 292 272 279 q 284 294 282 292 q 335 323 300 310 q 334 298 335 313 m 333 261 q 332 261 332 261 q 242 225 262 235 q 245 230 243 227 q 248 235 247 233 q 257 237 254 232 q 296 266 266 248 q 334 283 320 279 q 333 261 333 268 m 453 961 q 454 962 453 961 q 461 958 457 960 q 424 925 441 938 q 397 932 409 929 q 453 961 435 949 m 476 952 q 502 948 484 951 q 461 912 474 926 q 440 920 450 916 q 476 952 456 932 m 548 935 q 508 903 530 917 q 505 895 503 900 q 475 907 498 898 q 519 945 486 918 q 548 935 532 941 m 562 928 q 583 918 566 926 q 604 908 595 911 q 576 897 601 906 q 542 882 552 888 q 530 880 535 884 q 514 890 524 885 l 515 890 q 562 928 542 907 m 619 880 q 553 816 567 836 q 549 855 548 845 q 584 869 560 861 q 618 884 607 878 q 619 880 617 886 m 622 864 q 626 836 623 854 q 560 764 592 785 q 554 804 555 794 q 563 806 559 802 q 622 864 578 827 m 629 815 q 632 795 630 806 q 600 760 621 780 q 565 726 570 731 q 563 744 564 736 q 562 748 563 743 q 629 815 595 769 m 635 777 q 641 761 637 770 q 606 721 629 745 q 570 682 578 693 q 567 708 568 697 q 602 743 578 720 q 635 777 625 765 m 656 720 q 574 630 583 642 q 572 663 572 647 q 608 705 584 678 q 646 746 636 733 q 656 720 654 728 m 661 705 q 665 682 665 692 l 665 680 q 574 587 581 593 q 574 608 574 597 q 661 705 591 631 m 900 844 q 903 841 901 842 q 858 797 876 810 q 830 804 842 802 q 900 844 844 810 m 923 843 q 956 844 935 852 q 903 783 929 802 q 874 792 887 788 q 923 843 890 805 l 923 843 m 970 838 q 992 825 979 833 q 975 805 989 820 q 960 789 971 801 q 944 773 949 779 q 943 768 942 770 q 918 777 927 773 q 969 838 943 798 q 970 838 969 838 m 1034 798 q 1019 789 1033 797 q 1015 795 1019 793 q 1006 794 1010 797 q 989 777 1000 789 q 972 760 977 764 q 970 757 970 758 q 954 763 956 762 q 954 764 955 764 q 972 782 960 770 q 990 801 985 795 q 1004 818 1000 811 q 1034 798 1012 812 m 1091 796 q 1073 805 1086 809 q 1064 810 1069 807 q 1055 817 1063 819 q 985 861 991 858 q 915 871 942 883 q 897 874 907 880 q 803 823 812 827 q 793 813 795 821 l 793 813 q 779 810 785 816 q 777 795 774 804 q 761 778 773 790 q 745 762 745 762 q 690 705 732 749 q 678 743 686 720 q 664 780 666 774 q 657 808 660 792 q 656 814 658 811 q 640 911 641 907 q 629 920 637 919 q 620 931 627 928 q 577 954 612 935 q 533 971 551 967 q 515 975 527 972 q 497 978 503 977 q 479 982 490 979 q 473 984 474 983 q 477 977 475 981 q 467 987 475 985 q 454 984 460 988 q 439 985 448 991 q 355 943 431 980 q 349 937 351 941 q 342 928 344 935 q 313 871 339 917 q 279 802 309 865 q 205 640 264 772 q 123 471 177 576 q 38 303 60 349 q 37 295 36 299 q 35 279 29 288 q 99 237 52 249 q 175 211 161 220 q 187 210 181 207 q 189 210 189 210 q 203 208 195 208 q 213 196 203 199 q 228 201 222 193 q 239 200 233 197 q 332 239 264 214 q 338 184 332 208 q 342 179 339 181 q 349 170 342 173 q 395 153 364 161 q 442 140 430 145 q 445 140 443 140 q 463 140 454 132 q 472 141 467 138 q 533 159 488 152 q 593 179 576 167 q 570 98 580 128 q 567 91 568 94 q 564 82 562 79 q 572 66 560 71 q 589 72 583 62 q 694 33 652 42 q 783 14 788 10 q 783 13 783 12 q 793 3 785 5 q 806 6 800 1 q 807 7 806 6 q 814 18 814 11 q 817 20 816 19 q 849 39 824 24 q 880 60 869 50 q 911 88 891 68 q 941 117 930 109 q 957 124 951 115 q 960 132 958 127 q 963 137 962 134 q 972 182 966 148 q 979 237 974 195 q 987 291 983 271 q 1032 501 1013 431 q 1054 586 1040 528 q 1076 670 1067 641 q 1091 796 1103 766 z "},"N":{"ha":868,"x_min":18,"x_max":846,"o":"m 634 130 q 633 131 633 131 q 536 247 621 138 q 426 366 455 351 q 425 366 427 366 q 424 370 423 372 q 406 378 420 382 q 397 362 393 375 q 430 224 413 315 q 461 85 448 128 q 460 85 460 84 q 375 52 445 72 q 281 30 329 39 q 277 41 283 37 q 277 41 277 41 q 276 42 276 42 q 274 63 275 49 q 272 81 273 77 q 262 125 269 94 q 253 170 256 154 q 241 264 248 201 q 229 359 234 328 q 157 684 210 477 q 158 690 159 686 q 154 695 157 694 q 151 708 153 699 q 147 721 149 717 q 219 736 169 718 q 274 750 237 744 q 330 762 313 757 q 378 710 338 749 q 463 589 404 684 q 503 532 477 566 q 545 475 534 490 q 556 454 549 469 q 568 434 564 441 q 581 417 570 432 q 583 412 582 414 q 588 404 584 408 q 589 403 589 404 q 590 402 590 402 q 604 399 596 397 q 614 408 612 400 q 608 428 616 416 q 600 465 607 435 q 568 594 570 575 q 547 756 564 627 q 549 761 549 759 q 546 769 551 766 q 540 820 542 799 q 538 829 544 825 q 538 834 538 831 q 537 839 537 838 q 714 871 594 824 q 747 576 713 816 q 761 486 749 559 q 774 395 770 431 q 800 219 789 271 q 800 216 800 218 q 812 170 803 184 q 634 130 651 139 m 496 196 q 525 215 514 214 q 542 190 530 208 q 560 164 553 173 q 496 196 534 169 m 448 279 q 437 325 442 306 q 468 294 452 313 q 448 279 455 288 m 456 267 q 477 281 462 277 q 493 260 484 273 q 456 238 469 251 q 451 263 452 260 q 456 267 454 263 m 460 212 q 460 216 460 214 q 458 221 459 220 q 460 223 460 222 q 477 236 464 227 q 500 248 490 244 l 502 248 q 516 227 512 234 q 498 217 507 224 q 485 204 500 218 q 474 212 479 209 q 460 212 468 216 m 205 95 q 205 96 206 96 q 233 125 216 114 q 246 66 248 56 q 205 95 231 77 m 168 121 q 169 122 169 123 q 196 151 179 132 q 224 179 216 172 q 228 149 226 163 q 230 140 228 150 q 194 103 207 127 q 168 121 177 115 m 157 172 q 152 214 155 191 q 201 252 174 230 q 208 254 205 250 q 214 260 212 257 q 221 197 220 211 q 191 165 211 186 q 161 134 171 144 q 157 172 160 133 m 146 252 q 144 264 145 254 q 199 309 143 264 q 208 309 205 304 q 212 275 210 296 q 207 274 210 276 q 149 230 174 247 q 146 252 148 240 m 137 342 q 170 376 146 353 q 193 400 190 397 q 204 338 199 367 q 205 328 204 339 q 182 312 200 328 q 142 280 150 286 q 137 342 139 306 m 132 420 q 134 422 133 421 q 159 450 142 433 q 175 465 167 458 q 180 467 176 465 q 190 416 184 444 q 185 413 187 416 q 158 384 182 409 q 136 361 143 369 q 132 420 134 402 m 130 441 q 122 499 127 468 q 163 541 140 524 q 176 482 170 514 q 159 469 172 480 q 130 440 144 456 l 130 441 m 107 568 q 117 568 112 564 q 150 596 150 596 q 159 556 154 579 q 119 517 137 540 q 107 568 113 544 m 105 576 q 75 690 98 608 q 78 690 76 689 q 116 713 87 693 q 121 711 119 711 q 128 683 123 702 q 90 648 102 667 q 92 639 86 643 q 102 642 98 635 q 132 669 112 656 q 146 610 138 642 q 107 578 141 607 q 105 576 106 577 m 71 701 q 56 760 62 735 q 105 722 80 744 q 74 703 84 707 q 71 701 73 703 m 155 814 q 100 774 123 788 q 99 764 93 770 q 60 789 79 779 q 155 814 126 807 m 217 827 q 135 758 164 785 q 135 747 130 753 q 130 738 131 744 q 130 738 131 738 q 100 762 117 750 q 107 762 104 760 q 185 821 134 778 q 217 827 199 824 m 241 829 q 257 817 248 823 q 203 777 206 781 q 203 768 197 772 q 212 767 208 763 q 267 806 212 766 q 269 808 268 807 q 304 784 302 786 q 266 776 290 781 q 228 769 237 771 q 148 750 144 751 q 241 829 178 778 m 458 875 q 466 869 460 873 q 473 864 471 866 q 481 860 473 865 q 483 850 477 854 q 473 841 477 845 q 473 831 469 836 q 484 831 479 826 q 498 845 489 837 q 500 840 500 842 q 511 827 500 829 q 511 821 511 825 q 512 816 512 818 q 490 789 505 809 q 490 779 485 784 q 499 779 495 774 q 514 798 512 795 q 520 751 516 781 q 488 720 490 722 q 488 721 487 724 q 458 875 458 867 m 532 905 q 502 880 518 895 q 484 892 494 885 q 532 905 513 899 m 529 682 q 534 638 532 660 q 529 635 532 637 q 505 614 519 627 q 500 659 504 635 q 513 670 503 662 q 529 682 530 683 m 520 692 q 515 689 521 693 q 509 684 513 687 q 504 680 505 681 q 497 674 507 682 q 491 705 496 682 q 495 707 493 705 q 522 734 503 715 q 525 714 523 727 q 528 695 526 701 q 520 692 523 696 m 513 564 q 500 583 509 570 q 505 593 504 587 q 505 595 505 593 l 505 596 q 522 611 515 606 q 532 619 526 614 q 536 623 534 621 q 541 585 539 602 q 513 564 531 577 m 555 518 q 563 494 558 508 q 550 513 559 499 q 555 518 553 515 m 548 533 q 542 524 545 527 q 522 552 538 530 q 543 569 534 562 q 551 535 545 554 q 548 533 549 534 m 584 913 q 587 916 586 913 q 652 898 629 903 q 621 869 630 886 q 574 863 594 863 q 583 871 581 870 q 624 889 610 895 q 632 893 630 886 q 628 903 634 900 q 553 865 603 913 q 534 869 543 866 q 525 869 529 871 q 521 878 527 875 q 584 913 555 907 m 682 892 q 686 890 682 892 q 644 876 663 882 q 677 892 656 886 q 682 892 683 891 m 838 171 q 838 172 838 172 l 838 172 q 835 184 840 179 q 831 204 833 186 q 827 231 829 212 q 824 237 827 235 q 802 395 810 305 q 790 482 799 428 q 777 569 779 547 q 743 900 740 848 q 734 913 744 910 q 719 908 725 916 q 689 919 712 913 q 593 943 633 931 q 585 945 589 946 q 574 943 578 947 q 452 912 538 935 q 437 909 444 916 q 433 895 429 902 q 429 884 428 891 q 441 808 431 854 q 457 732 454 749 q 477 619 477 612 q 433 684 448 665 q 397 730 410 716 q 349 788 351 778 q 330 797 345 802 q 288 827 321 807 q 252 863 260 845 q 237 870 247 873 q 226 858 228 867 q 224 857 224 858 q 28 810 176 848 q 18 799 20 808 q 24 785 18 791 q 22 777 22 781 q 66 616 26 764 q 101 454 92 519 q 113 285 106 413 q 119 241 115 268 q 126 197 125 206 q 134 144 133 138 q 132 127 125 137 q 134 125 134 125 q 135 123 134 125 q 140 106 132 113 q 197 67 149 100 q 252 26 231 43 q 257 10 254 16 q 273 3 262 1 q 283 2 277 1 q 391 28 332 11 q 471 58 449 44 q 489 52 477 48 q 496 68 500 56 q 467 181 480 113 q 469 182 467 181 q 534 141 517 146 q 583 127 584 126 q 614 109 601 113 l 614 109 q 614 109 614 109 q 616 108 618 107 q 624 98 618 101 q 637 99 630 94 q 733 131 671 121 q 835 146 837 146 q 845 157 844 148 q 838 171 846 167 z "},"O":{"ha":715,"x_min":52,"x_max":738,"o":"m 686 262 q 625 168 670 208 q 524 117 581 130 q 515 118 519 119 q 488 111 503 116 q 289 206 381 106 q 191 408 201 300 q 194 478 189 434 q 201 549 201 536 q 242 675 204 609 q 326 774 277 736 q 445 814 385 819 q 448 814 446 814 q 449 814 450 814 q 692 469 650 791 q 686 262 709 340 m 378 90 q 352 92 365 91 q 373 102 362 100 q 378 109 379 102 q 427 92 401 98 q 378 90 408 89 m 323 130 q 328 138 329 132 q 361 117 345 127 q 366 115 359 119 q 334 95 349 111 q 279 108 304 100 q 323 130 293 120 m 222 134 q 174 171 196 149 q 197 184 180 170 q 238 212 226 210 q 243 218 243 214 q 320 144 276 176 q 320 144 319 144 q 264 113 281 130 q 222 134 241 122 m 168 177 q 145 204 155 191 q 145 205 146 205 q 176 230 154 211 q 207 254 195 246 q 209 263 212 257 q 199 266 205 269 q 169 242 187 258 q 138 217 146 223 q 137 216 138 216 q 115 256 124 235 l 115 256 q 146 285 123 268 q 176 313 168 302 q 174 322 180 319 q 165 321 168 326 q 137 294 156 309 q 109 270 116 278 q 92 322 98 296 q 170 363 130 359 q 204 278 180 324 q 237 226 218 251 q 234 226 236 226 q 202 208 222 223 q 185 193 198 204 q 178 187 180 189 q 176 184 175 185 q 168 177 168 187 m 81 389 q 88 389 85 387 q 164 422 149 414 q 166 382 163 401 q 168 376 166 383 q 88 338 126 372 q 81 389 83 364 m 83 452 q 121 454 91 449 q 168 467 154 459 q 165 438 166 450 q 163 437 163 438 q 81 401 146 429 q 83 452 81 424 m 85 491 q 127 499 92 489 q 172 513 138 503 q 170 483 172 500 q 165 481 168 483 q 126 469 157 475 q 84 467 91 461 l 83 467 q 85 491 84 472 m 90 538 q 91 548 90 541 l 91 547 q 177 574 121 542 q 173 528 174 551 q 155 522 168 526 q 138 517 144 519 q 116 511 130 514 q 96 505 91 503 q 87 512 96 513 q 90 538 90 530 m 97 598 q 98 598 98 599 q 199 650 115 618 q 180 593 187 622 q 95 561 120 556 q 92 561 94 562 q 97 598 94 582 m 117 663 q 120 669 120 665 q 121 672 122 672 q 123 674 121 671 q 127 670 124 671 q 176 684 143 668 q 223 698 208 701 q 206 667 215 684 q 204 667 205 667 q 102 622 102 622 q 117 663 108 645 m 146 705 q 152 703 149 703 q 207 724 174 707 q 261 749 249 745 q 253 740 257 744 q 231 710 241 726 q 182 700 213 717 q 132 684 148 682 q 129 684 131 684 q 146 705 136 694 m 241 771 q 322 804 277 791 q 274 763 298 787 q 267 766 271 767 q 215 743 248 760 q 163 721 181 726 q 241 771 190 743 m 723 451 q 671 663 709 576 q 449 842 602 825 q 445 842 447 843 l 445 842 q 395 839 420 844 q 380 846 389 848 q 102 694 190 817 q 64 558 73 652 q 54 383 52 436 q 199 115 60 213 q 352 64 252 78 q 441 65 404 58 q 474 76 454 68 q 507 87 498 85 q 627 134 573 95 q 708 239 682 175 q 723 451 738 313 m 574 357 q 564 360 570 363 q 534 347 549 352 q 541 389 541 366 q 579 405 564 392 q 579 400 579 397 q 574 357 580 378 m 504 287 q 472 290 488 285 q 527 331 509 300 q 528 331 528 331 q 570 348 548 336 q 504 287 551 293 m 442 308 q 369 441 389 353 q 371 583 347 541 q 376 582 373 582 q 428 573 425 574 q 471 541 454 565 q 507 442 489 514 q 453 315 536 324 q 442 308 446 314 m 455 625 q 485 618 470 626 q 458 602 470 609 q 454 595 454 600 q 450 597 450 597 q 416 606 437 604 q 455 625 438 623 m 497 610 q 528 572 513 596 q 508 569 516 567 q 499 564 501 571 q 504 555 498 557 q 534 560 517 553 q 553 522 545 543 q 555 516 552 524 q 533 504 545 507 q 528 495 526 502 q 536 490 530 488 q 560 503 549 494 q 570 469 566 486 q 543 459 557 460 q 536 452 536 458 q 543 445 536 444 q 573 455 559 446 q 578 422 576 439 q 574 420 576 422 q 541 403 562 406 q 539 422 541 413 q 500 545 531 485 q 464 589 487 572 q 465 589 465 589 q 497 610 479 598 m 580 529 q 486 646 543 625 q 425 646 452 659 q 404 631 417 642 q 392 633 399 635 q 342 434 306 608 q 401 312 356 367 q 516 260 455 245 q 605 374 595 281 q 580 529 612 446 m 260 187 q 238 167 250 176 q 216 157 224 156 q 209 150 209 157 q 216 142 209 142 q 269 177 239 142 q 269 187 274 182 q 260 187 264 192 z "},"P":{"ha":678,"x_min":55,"x_max":664,"o":"m 604 647 q 600 656 605 652 q 591 653 594 659 q 562 635 579 630 q 561 654 562 645 q 610 693 560 654 q 610 702 615 697 q 600 703 606 707 q 580 686 596 700 q 559 669 567 675 q 553 692 556 682 q 553 693 554 694 q 612 740 602 734 q 616 684 623 713 q 604 647 613 665 m 554 585 q 561 621 559 602 q 598 638 583 616 q 554 585 583 613 m 547 706 q 547 707 547 707 q 547 707 547 707 q 522 746 537 729 q 581 785 523 747 q 606 753 596 770 l 606 753 q 547 706 591 744 m 309 444 q 296 435 299 444 q 298 420 293 427 q 361 58 300 362 q 357 57 359 58 q 289 47 336 51 q 213 50 222 41 q 205 53 209 53 q 145 412 168 260 q 115 588 140 449 q 109 635 112 604 q 104 682 106 667 q 92 714 102 688 q 85 748 84 734 q 322 780 148 776 q 513 710 467 783 q 490 525 574 618 q 309 444 411 436 m 343 292 q 404 363 358 327 q 409 326 406 349 q 401 325 405 329 q 374 290 397 321 q 346 258 359 269 q 340 289 342 276 q 343 292 342 290 m 380 421 q 338 381 365 400 q 328 382 334 387 q 327 416 327 401 q 400 429 363 416 q 402 380 399 407 q 336 311 355 343 q 330 362 332 340 q 345 368 334 361 q 392 414 374 389 q 389 423 395 420 q 380 421 384 427 m 438 161 q 438 153 438 158 q 435 151 437 153 q 407 125 422 142 q 381 97 385 101 q 376 121 375 123 q 403 159 382 134 q 429 199 421 183 q 425 208 431 205 q 416 205 419 212 q 371 141 418 211 q 364 173 369 151 q 389 212 372 184 q 415 250 405 237 q 414 260 419 256 q 405 260 410 265 q 382 226 395 248 q 360 191 366 199 q 349 244 353 223 q 354 246 351 244 q 411 315 349 241 q 419 260 417 275 q 430 211 421 248 q 438 161 437 180 m 385 79 q 385 81 384 82 q 412 110 393 89 q 439 138 429 129 q 444 118 441 127 q 385 79 422 109 m 290 839 q 302 838 296 838 q 262 814 279 818 q 257 808 256 813 q 189 803 220 807 q 290 839 245 829 m 365 835 q 320 808 329 811 q 286 808 301 808 q 321 836 298 816 q 365 835 338 835 m 380 835 q 442 834 422 836 q 395 804 410 810 q 349 808 373 806 q 349 808 347 808 q 363 817 353 810 q 377 826 372 823 q 380 835 382 829 m 524 819 q 467 785 496 805 q 417 800 444 794 q 441 816 427 806 q 464 833 458 829 q 524 819 497 829 m 538 813 q 553 806 547 809 q 570 794 562 801 q 512 756 518 762 q 481 778 498 768 q 536 810 509 797 q 538 813 538 811 m 618 785 q 468 857 566 848 q 382 861 445 859 q 296 866 328 861 q 291 866 294 866 q 284 866 288 867 q 70 771 235 857 q 64 766 66 769 q 60 759 60 764 q 65 709 55 739 q 83 611 79 669 q 98 521 87 576 q 115 431 112 447 q 181 28 155 172 q 191 18 183 19 q 205 23 199 17 q 268 18 220 16 q 365 31 328 20 q 369 32 367 31 q 384 33 376 27 q 391 47 393 37 l 391 48 q 391 49 391 49 q 459 94 439 87 q 477 96 469 88 q 479 112 486 102 q 465 182 469 126 q 448 256 464 190 q 428 438 424 360 q 428 441 428 439 q 540 549 504 479 q 558 550 549 542 q 637 659 616 603 q 618 785 664 730 m 332 569 q 374 612 347 580 q 375 610 375 609 q 332 569 376 583 m 304 585 q 303 585 304 585 q 302 587 303 585 q 302 588 302 587 q 323 605 309 593 q 345 621 337 616 q 340 616 340 617 q 304 585 316 590 m 321 665 q 291 634 304 642 q 286 661 288 649 q 321 665 302 667 m 359 646 q 298 603 349 641 q 294 621 296 614 q 336 661 310 628 q 359 646 349 656 m 402 621 q 394 646 401 634 q 394 647 394 646 q 351 684 380 671 q 342 688 348 691 q 265 682 300 701 q 258 669 258 677 q 258 665 258 667 q 269 606 260 643 q 283 548 280 562 q 295 538 285 538 q 308 534 300 532 q 402 621 409 559 z "},"Q":{"ha":788,"x_min":41,"x_max":760,"o":"m 644 119 q 642 115 642 117 q 641 115 638 114 q 601 111 628 113 q 591 111 596 115 q 591 111 591 111 q 591 111 591 111 q 530 102 552 107 q 591 150 553 111 q 684 222 606 165 q 686 233 689 227 q 676 235 682 239 q 602 178 614 188 q 569 146 597 174 q 534 119 549 127 q 551 160 543 136 l 552 161 q 656 255 627 236 q 702 284 698 281 q 644 119 680 157 m 655 36 q 585 -23 618 3 q 584 -34 579 -28 q 566 -38 574 -37 q 564 -33 566 -35 q 548 -6 557 -21 q 632 71 555 5 q 645 54 634 68 q 655 36 650 47 m 673 0 q 602 -28 664 -2 q 662 23 632 -4 q 673 0 667 13 m 507 67 q 563 80 530 77 q 526 43 541 55 q 526 34 522 39 q 536 33 531 29 q 583 82 548 43 q 604 83 590 83 q 625 85 618 85 q 625 84 624 87 q 604 68 620 80 q 584 52 591 58 q 541 7 553 25 q 507 67 532 22 m 494 -66 q 427 -89 472 -77 q 424 -87 425 -88 q 381 -33 415 -83 q 328 48 332 41 q 307 52 320 62 q 295 51 301 54 q 182 59 242 15 q 110 158 132 96 q 96 452 74 256 q 178 711 114 614 q 289 785 220 776 q 353 782 319 788 q 362 777 356 777 q 369 777 363 777 q 399 762 394 762 q 401 762 399 762 q 515 630 485 677 q 562 448 558 564 q 547 258 564 347 q 524 169 536 203 q 488 109 506 119 q 477 107 482 110 q 465 100 469 106 q 465 86 460 94 q 501 20 470 77 q 538 -44 523 -19 q 494 -66 532 -47 m 467 780 q 496 781 475 779 q 526 781 516 781 q 467 735 494 752 q 424 778 456 745 q 467 780 452 780 m 545 779 q 571 771 560 777 q 574 770 572 770 q 583 764 576 766 q 588 763 584 764 q 508 690 542 730 q 476 725 494 707 q 545 779 507 744 l 545 779 m 603 757 q 634 728 619 747 q 596 689 622 711 q 555 653 562 661 q 555 643 551 648 q 565 643 560 638 q 605 678 574 652 q 642 716 630 700 q 659 688 650 705 q 656 688 657 688 q 594 636 624 669 q 580 618 592 634 q 564 600 570 606 q 557 613 560 607 q 517 678 543 645 q 603 756 553 723 l 603 757 m 665 677 q 669 669 669 670 q 681 647 675 659 q 675 645 677 648 q 627 598 661 628 q 578 551 593 569 q 568 586 574 570 q 595 615 573 590 q 663 675 629 656 q 665 677 664 676 m 686 637 q 724 505 717 572 q 722 397 730 458 q 711 397 717 403 q 673 362 699 385 q 633 327 646 339 q 578 273 583 275 q 586 337 583 304 q 596 343 595 334 q 600 346 595 341 q 612 357 604 349 q 650 393 627 372 q 718 448 706 444 q 723 457 725 450 q 715 462 721 464 q 640 404 700 457 q 597 362 616 382 q 587 353 584 350 q 589 394 589 376 q 650 463 607 408 q 718 522 685 508 q 720 530 724 525 q 710 534 716 536 q 644 477 680 521 q 629 457 640 471 q 614 437 619 444 q 595 417 606 428 q 590 412 595 416 l 590 413 q 581 536 590 488 q 586 538 584 536 q 635 587 601 557 q 685 635 671 618 q 686 637 685 635 m 706 308 q 629 254 711 315 q 559 189 604 235 q 576 258 569 222 q 627 299 593 262 q 673 343 643 317 q 720 387 707 373 q 706 308 718 369 m 664 99 q 728 277 705 142 q 751 516 760 448 q 690 691 742 595 q 590 791 640 782 q 585 795 589 794 q 494 808 557 810 q 377 804 380 804 q 352 810 370 808 q 278 811 313 816 q 168 745 216 803 q 66 439 90 651 q 105 101 41 209 q 194 20 138 45 q 309 26 257 -7 q 360 -52 310 22 q 397 -102 389 -95 q 397 -108 397 -103 l 397 -111 q 405 -123 397 -119 q 420 -120 413 -127 q 420 -120 420 -120 l 420 -120 q 497 -95 457 -110 q 529 -79 506 -92 q 562 -66 549 -69 q 622 -48 585 -65 q 681 -27 663 -30 q 691 -14 693 -25 q 701 3 707 -11 q 683 43 692 24 q 692 52 696 55 q 692 62 698 56 q 683 62 688 66 q 680 58 682 60 q 676 56 677 56 q 675 56 676 56 q 675 58 675 57 q 664 74 673 62 q 653 92 656 85 q 656 94 652 91 q 664 99 661 95 m 387 359 q 360 300 376 324 q 355 302 357 301 q 320 342 332 309 q 312 413 309 373 q 330 481 315 453 q 372 511 347 511 q 387 359 416 457 m 308 262 q 321 275 316 265 q 319 284 325 280 q 309 281 313 288 q 296 276 304 272 q 286 273 290 279 q 288 264 282 267 q 292 262 290 263 q 256 282 272 266 q 271 293 263 285 q 294 313 290 313 q 301 317 300 313 q 341 277 315 288 q 308 262 327 264 m 247 293 q 227 345 232 315 q 233 345 230 343 q 286 382 274 366 q 297 326 288 351 q 294 327 296 327 q 271 314 283 327 q 247 293 252 294 m 226 357 q 225 386 224 372 q 290 433 279 430 q 288 418 288 425 q 286 393 286 406 q 275 391 279 397 q 226 357 266 377 q 226 357 226 357 m 231 431 q 233 440 232 435 q 235 441 235 441 q 271 466 248 448 q 306 491 293 484 q 307 492 306 490 q 292 449 298 473 q 290 449 291 449 q 227 406 270 443 q 231 431 229 418 m 241 473 q 243 475 242 474 q 338 536 260 498 q 345 533 342 535 q 309 496 323 523 q 306 503 309 500 q 299 503 302 505 q 268 481 287 496 q 237 459 245 465 q 241 473 239 466 m 290 536 q 304 545 297 541 q 318 543 311 544 q 257 509 275 522 q 290 536 260 517 m 282 550 q 284 549 283 549 q 277 545 278 545 q 264 536 267 538 q 282 550 274 554 m 414 496 q 337 567 389 552 q 329 571 335 574 q 326 570 332 572 q 298 573 313 572 q 296 574 296 574 q 233 536 258 593 q 207 450 220 511 q 248 251 176 312 q 298 233 269 233 q 351 250 327 234 q 414 352 388 274 q 414 496 441 438 z "}}}
